{"glyphs":{"0":{"ha":829,"x_min":0,"x_max":0,"o":"m 414 -16 b 768 490 637 -16 768 181 b 414 994 768 798 636 994 b 60 490 193 994 60 797 b 414 -16 60 180 192 -16 z m 414 66 b 153 490 249 66 153 231 b 414 912 153 745 251 912 b 675 490 578 912 675 747 b 414 66 675 231 580 66 z "},"1":{"ha":585,"x_min":0,"x_max":0,"o":"m 329 0 l 418 0 l 418 979 l 328 979 b 64 798 298 961 91 814 l 64 699 b 326 879 92 716 304 865 l 329 879 z "},"2":{"ha":781,"x_min":0,"x_max":0,"o":"m 78 705 l 78 704 l 168 704 l 168 705 b 389 913 169 824 263 913 b 604 722 509 913 604 829 b 429 431 604 636 568 578 l 83 65 l 83 0 l 721 0 l 721 83 l 212 83 l 212 85 l 485 370 b 696 727 648 539 696 620 b 391 994 696 877 562 994 b 78 705 212 994 79 871 z "},"3":{"ha":802,"x_min":0,"x_max":0,"o":"m 271 466 l 389 466 b 642 265 546 466 642 390 b 397 66 642 149 539 66 b 151 254 256 66 158 144 l 61 254 b 398 -16 67 97 201 -16 b 736 268 589 -16 736 102 b 490 508 736 406 640 499 l 490 511 b 694 744 615 533 694 621 b 393 994 694 889 565 994 b 81 731 216 994 93 888 l 171 731 b 389 913 181 840 267 913 b 601 732 521 913 601 838 b 385 545 601 623 513 545 l 271 545 z "},"4":{"ha":823,"x_min":0,"x_max":0,"o":"m 547 0 l 637 0 l 637 221 l 783 221 l 783 303 l 637 303 l 637 980 l 502 980 b 51 306 286 677 157 485 l 51 221 l 547 221 z m 144 306 b 546 899 242 465 366 649 l 547 899 l 547 303 l 144 303 z "},"5":{"ha":804,"x_min":0,"x_max":0,"o":"m 410 -16 b 754 315 610 -16 754 122 b 431 642 754 504 617 642 b 195 534 332 642 243 601 l 193 534 l 229 896 l 695 896 l 695 979 l 153 979 l 97 437 l 186 437 b 416 562 231 515 317 562 b 661 313 557 562 661 456 b 412 66 661 170 557 66 b 173 255 286 66 186 145 l 82 255 b 410 -16 94 97 231 -16 z "},"6":{"ha":818,"x_min":0,"x_max":0,"o":"m 427 -16 b 766 317 623 -16 766 125 b 441 641 766 503 627 641 b 153 455 309 641 193 565 l 151 455 b 433 912 151 745 254 912 b 655 746 542 912 631 846 l 749 746 b 433 994 721 896 596 994 b 62 469 201 994 62 797 b 127 170 62 346 83 246 b 427 -16 188 51 295 -16 z m 426 67 b 178 321 286 67 178 179 b 427 559 178 454 287 559 b 672 315 568 559 672 455 b 426 67 672 176 564 67 z "},"7":{"ha":749,"x_min":0,"x_max":0,"o":"m 144 0 l 243 0 l 691 892 l 691 979 l 54 979 l 54 896 l 598 896 l 598 893 z "},"8":{"ha":821,"x_min":0,"x_max":0,"o":"m 410 -16 b 759 266 616 -16 759 102 b 541 517 759 389 671 490 l 541 519 b 721 739 650 551 721 635 b 410 994 721 886 591 994 b 99 739 230 994 99 886 b 280 519 99 633 170 550 l 280 517 b 62 266 150 490 62 389 b 410 -16 62 102 205 -16 z m 410 66 b 156 271 259 66 156 153 b 410 472 156 389 260 472 b 665 271 561 472 665 389 b 410 66 665 153 562 66 z m 410 555 b 191 731 282 555 191 628 b 410 913 191 836 280 913 b 629 731 541 913 629 836 b 410 555 629 628 538 555 z "},"9":{"ha":818,"x_min":0,"x_max":0,"o":"m 385 -16 b 756 510 618 -16 756 182 b 690 809 756 633 734 732 b 391 994 631 927 524 994 b 52 659 195 994 52 852 b 376 338 52 475 190 338 b 665 525 511 338 627 415 b 665 525 665 525 665 525 b 666 525 665 525 665 525 b 667 503 666 517 667 509 b 386 66 662 229 562 66 b 163 233 273 66 187 135 l 69 233 b 385 -16 96 85 220 -16 z m 391 420 b 145 662 248 420 145 525 b 392 911 145 802 253 911 b 641 657 533 911 641 799 b 391 420 641 526 532 420 z "}," ":{"ha":284,"x_min":0,"x_max":0,"o":""},"A":{"ha":856,"x_min":0,"x_max":0,"o":"m 742 0 l 840 0 l 474 979 l 382 979 l 16 0 l 114 0 l 222 300 l 633 300 z m 426 864 l 430 864 l 606 380 l 250 380 z "},"À":{"ha":856,"x_min":0,"x_max":0,"o":"m 742 0 l 840 0 l 474 979 l 382 979 l 16 0 l 114 0 l 222 300 l 633 300 z m 426 864 l 430 864 l 606 380 l 250 380 z m 383 1057 l 465 1057 l 300 1252 l 197 1252 z "},"Á":{"ha":856,"x_min":0,"x_max":0,"o":"m 742 0 l 840 0 l 474 979 l 382 979 l 16 0 l 114 0 l 222 300 l 633 300 z m 426 864 l 430 864 l 606 380 l 250 380 z m 473 1057 l 659 1252 l 556 1252 l 391 1057 z "},"Ä":{"ha":856,"x_min":0,"x_max":0,"o":"m 742 0 l 840 0 l 474 979 l 382 979 l 16 0 l 114 0 l 222 300 l 633 300 z m 426 864 l 430 864 l 606 380 l 250 380 z m 313 1077 b 374 1139 347 1077 374 1105 b 313 1201 374 1173 347 1201 b 250 1139 279 1201 250 1173 b 313 1077 250 1105 279 1077 z m 543 1077 b 606 1139 577 1077 606 1105 b 543 1201 606 1173 577 1201 b 481 1139 509 1201 481 1173 b 543 1077 481 1105 509 1077 z "},"Ǟ":{"ha":856,"x_min":0,"x_max":0,"o":"m 742 0 l 840 0 l 474 979 l 382 979 l 16 0 l 114 0 l 222 300 l 633 300 z m 426 864 l 430 864 l 606 380 l 250 380 z m 317 1174 b 257 1114 284 1174 257 1147 b 317 1054 257 1080 284 1054 b 376 1114 349 1054 376 1080 b 317 1174 376 1147 349 1174 z m 221 1342 l 221 1280 l 635 1280 l 635 1342 z m 539 1174 b 480 1114 507 1174 480 1147 b 539 1054 480 1080 507 1054 b 599 1114 572 1054 599 1080 b 539 1174 599 1147 572 1174 z "},"Å":{"ha":856,"x_min":0,"x_max":0,"o":"m 742 0 l 840 0 l 474 979 l 382 979 l 16 0 l 114 0 l 222 300 l 633 300 z m 426 864 l 430 864 l 606 380 l 250 380 z m 428 1026 b 551 1149 496 1026 551 1082 b 428 1274 551 1217 496 1274 b 304 1149 360 1274 304 1217 b 428 1026 304 1082 360 1026 z m 428 1074 b 353 1149 386 1074 353 1108 b 428 1225 353 1192 386 1225 b 503 1149 470 1225 503 1192 b 428 1074 503 1108 470 1074 z "},"Ǻ":{"ha":856,"x_min":0,"x_max":0,"o":"m 742 0 l 840 0 l 474 979 l 382 979 l 16 0 l 114 0 l 222 300 l 633 300 z m 426 864 l 430 864 l 606 380 l 250 380 z m 428 1014 b 549 1135 494 1014 549 1068 b 428 1255 549 1201 494 1255 b 307 1135 361 1255 307 1201 b 428 1014 307 1068 361 1014 z m 428 1061 b 354 1135 387 1061 354 1093 b 428 1209 354 1176 387 1209 b 502 1135 469 1209 502 1176 b 428 1061 502 1093 469 1061 z m 483 1419 l 391 1297 l 465 1297 l 568 1419 z "},"Ã":{"ha":856,"x_min":0,"x_max":0,"o":"m 742 0 l 840 0 l 474 979 l 382 979 l 16 0 l 114 0 l 222 300 l 633 300 z m 426 864 l 430 864 l 606 380 l 250 380 z m 518 1066 b 635 1227 589 1066 635 1128 l 572 1227 b 519 1127 572 1163 553 1127 b 338 1234 461 1127 432 1234 b 220 1073 265 1234 220 1174 l 284 1073 b 338 1173 282 1136 301 1173 b 518 1066 397 1173 429 1066 z "},"Ằ":{"ha":856,"x_min":0,"x_max":0,"o":"m 742 0 l 840 0 l 474 979 l 382 979 l 16 0 l 114 0 l 222 300 l 633 300 z m 426 864 l 430 864 l 606 380 l 250 380 z m 631 1223 l 564 1223 b 428 1108 559 1155 505 1108 b 292 1223 351 1108 297 1155 l 224 1223 b 428 1048 230 1120 312 1048 b 631 1223 544 1048 626 1120 z m 484 1224 l 359 1367 l 269 1367 l 404 1224 z "},"Ǡ":{"ha":856,"x_min":0,"x_max":0,"o":"m 742 0 l 840 0 l 474 979 l 382 979 l 16 0 l 114 0 l 222 300 l 633 300 z m 426 864 l 430 864 l 606 380 l 250 380 z m 428 1063 b 495 1131 465 1063 495 1093 b 428 1196 495 1166 465 1196 b 361 1131 391 1196 361 1166 b 428 1063 361 1093 391 1063 z m 635 1342 l 221 1342 l 221 1280 l 635 1280 z "},"Ḁ":{"ha":856,"x_min":0,"x_max":0,"o":"m 742 0 l 840 0 l 474 979 l 382 979 l 16 0 l 114 0 l 222 300 l 633 300 z m 426 864 l 430 864 l 606 380 l 250 380 z m 428 -318 b 551 -195 496 -318 551 -262 b 428 -71 551 -127 496 -71 b 304 -195 360 -71 304 -127 b 428 -318 304 -262 360 -318 z m 428 -270 b 353 -195 387 -270 353 -236 b 428 -119 353 -153 387 -119 b 503 -195 470 -119 503 -153 b 428 -270 503 -236 470 -270 z "},"Â":{"ha":856,"x_min":0,"x_max":0,"o":"m 742 0 l 840 0 l 474 979 l 382 979 l 16 0 l 114 0 l 222 300 l 633 300 z m 426 864 l 430 864 l 606 380 l 250 380 z m 393 1247 l 205 1047 l 293 1047 l 427 1190 l 429 1190 l 563 1047 l 651 1047 l 463 1247 z "},"Ậ":{"ha":856,"x_min":0,"x_max":0,"o":"m 742 0 l 840 0 l 474 979 l 382 979 l 16 0 l 114 0 l 222 300 l 633 300 z m 426 864 l 430 864 l 606 380 l 250 380 z m 393 1247 l 205 1047 l 293 1047 l 427 1190 l 429 1190 l 563 1047 l 651 1047 l 463 1247 z m 428 -237 b 497 -168 466 -237 497 -205 b 428 -98 497 -130 466 -98 b 359 -168 390 -98 359 -130 b 428 -237 359 -205 390 -237 z "},"Ấ":{"ha":856,"x_min":0,"x_max":0,"o":"m 742 0 l 840 0 l 474 979 l 382 979 l 16 0 l 114 0 l 222 300 l 633 300 z m 426 864 l 430 864 l 606 380 l 250 380 z m 389 1211 l 201 1047 l 294 1047 l 427 1162 l 429 1162 l 562 1047 l 655 1047 l 467 1211 z m 547 1224 l 626 1224 l 762 1367 l 671 1367 z "},"Ẫ":{"ha":856,"x_min":0,"x_max":0,"o":"m 742 0 l 840 0 l 474 979 l 382 979 l 16 0 l 114 0 l 222 300 l 633 300 z m 426 864 l 430 864 l 606 380 l 250 380 z m 509 1242 b 627 1374 580 1242 627 1299 l 564 1374 b 507 1299 561 1328 540 1299 b 347 1389 454 1299 436 1389 b 229 1257 273 1389 229 1333 l 292 1257 b 349 1334 294 1303 314 1334 b 509 1242 401 1334 420 1242 z m 389 1206 l 201 1047 l 294 1047 l 427 1158 l 429 1158 l 562 1047 l 655 1047 l 467 1206 z "},"Ầ":{"ha":856,"x_min":0,"x_max":0,"o":"m 742 0 l 840 0 l 474 979 l 382 979 l 16 0 l 114 0 l 222 300 l 633 300 z m 426 864 l 430 864 l 606 380 l 250 380 z m 389 1211 l 201 1047 l 294 1047 l 427 1162 l 429 1162 l 562 1047 l 655 1047 l 467 1211 z m 671 1224 l 547 1367 l 456 1367 l 592 1224 z "},"Ẩ":{"ha":856,"x_min":0,"x_max":0,"o":"m 742 0 l 840 0 l 474 979 l 382 979 l 16 0 l 114 0 l 222 300 l 633 300 z m 426 864 l 430 864 l 606 380 l 250 380 z m 389 1211 l 201 1047 l 294 1047 l 427 1162 l 429 1162 l 562 1047 l 655 1047 l 467 1211 z m 512 1307 b 572 1320 526 1315 549 1320 b 627 1274 604 1320 627 1301 b 576 1213 627 1248 607 1225 l 616 1178 b 688 1278 661 1194 688 1234 b 581 1371 688 1333 644 1371 b 512 1355 557 1371 530 1364 z "},"Ă":{"ha":856,"x_min":0,"x_max":0,"o":"m 742 0 l 840 0 l 474 979 l 382 979 l 16 0 l 114 0 l 222 300 l 633 300 z m 426 864 l 430 864 l 606 380 l 250 380 z m 224 1236 b 428 1048 231 1132 307 1048 b 631 1236 549 1048 625 1132 l 564 1236 b 428 1109 558 1158 505 1109 b 292 1236 351 1109 298 1158 z "},"Ắ":{"ha":856,"x_min":0,"x_max":0,"o":"m 742 0 l 840 0 l 474 979 l 382 979 l 16 0 l 114 0 l 222 300 l 633 300 z m 426 864 l 430 864 l 606 380 l 250 380 z m 224 1223 b 428 1048 230 1120 312 1048 b 631 1223 544 1048 626 1120 l 564 1223 b 428 1108 559 1155 505 1108 b 292 1223 351 1108 297 1155 z m 372 1224 l 452 1224 l 587 1367 l 496 1367 z "},"Ẵ":{"ha":856,"x_min":0,"x_max":0,"o":"m 742 0 l 840 0 l 474 979 l 382 979 l 16 0 l 114 0 l 222 300 l 633 300 z m 426 864 l 430 864 l 606 380 l 250 380 z m 224 1214 b 428 1048 230 1124 312 1048 b 631 1214 544 1048 626 1124 l 564 1214 b 428 1108 559 1156 505 1108 b 292 1214 351 1108 297 1156 z m 509 1242 b 627 1374 580 1242 627 1299 l 564 1374 b 507 1299 561 1328 540 1299 b 347 1389 454 1299 436 1389 b 229 1257 273 1389 229 1333 l 292 1257 b 349 1334 294 1303 314 1334 b 509 1242 401 1334 420 1242 z "},"Ẳ":{"ha":856,"x_min":0,"x_max":0,"o":"m 742 0 l 840 0 l 474 979 l 382 979 l 16 0 l 114 0 l 222 300 l 633 300 z m 426 864 l 430 864 l 606 380 l 250 380 z m 331 1340 b 396 1356 347 1348 372 1356 b 457 1305 431 1356 457 1334 b 400 1238 457 1277 435 1250 l 432 1194 b 522 1309 488 1216 522 1260 b 406 1411 522 1370 475 1411 b 331 1393 376 1411 348 1403 z m 224 1223 b 428 1048 230 1120 312 1048 b 631 1223 544 1048 626 1120 l 564 1223 b 428 1108 559 1155 505 1108 b 292 1223 351 1108 297 1155 z "},"Ặ":{"ha":856,"x_min":0,"x_max":0,"o":"m 742 0 l 840 0 l 474 979 l 382 979 l 16 0 l 114 0 l 222 300 l 633 300 z m 426 864 l 430 864 l 606 380 l 250 380 z m 224 1236 b 428 1048 231 1132 307 1048 b 631 1236 549 1048 625 1132 l 564 1236 b 428 1109 558 1158 505 1109 b 292 1236 351 1109 298 1158 z m 428 -237 b 497 -168 466 -237 497 -205 b 428 -98 497 -130 466 -98 b 359 -168 390 -98 359 -130 b 428 -237 359 -205 390 -237 z "},"Ȃ":{"ha":856,"x_min":0,"x_max":0,"o":"m 742 0 l 840 0 l 474 979 l 382 979 l 16 0 l 114 0 l 222 300 l 633 300 z m 426 864 l 430 864 l 606 380 l 250 380 z m 224 1048 l 292 1048 b 428 1175 298 1126 351 1175 b 564 1048 505 1175 558 1126 l 631 1048 b 428 1236 625 1152 549 1236 b 224 1048 307 1236 231 1152 z "},"Ǎ":{"ha":856,"x_min":0,"x_max":0,"o":"m 742 0 l 840 0 l 474 979 l 382 979 l 16 0 l 114 0 l 222 300 l 633 300 z m 426 864 l 430 864 l 606 380 l 250 380 z m 393 1052 l 463 1052 l 651 1252 l 563 1252 l 429 1109 l 427 1109 l 293 1252 l 205 1252 z "},"Ȧ":{"ha":856,"x_min":0,"x_max":0,"o":"m 742 0 l 840 0 l 474 979 l 382 979 l 16 0 l 114 0 l 222 300 l 633 300 z m 426 864 l 430 864 l 606 380 l 250 380 z m 428 1068 b 497 1137 466 1068 497 1099 b 428 1206 497 1175 466 1206 b 359 1137 390 1206 359 1175 b 428 1068 359 1099 390 1068 z "},"Ạ":{"ha":856,"x_min":0,"x_max":0,"o":"m 742 0 l 840 0 l 474 979 l 382 979 l 16 0 l 114 0 l 222 300 l 633 300 z m 426 864 l 430 864 l 606 380 l 250 380 z m 428 -237 b 497 -168 466 -237 497 -205 b 428 -98 497 -130 466 -98 b 359 -168 390 -98 359 -130 b 428 -237 359 -205 390 -237 z "},"Ả":{"ha":856,"x_min":0,"x_max":0,"o":"m 742 0 l 840 0 l 474 979 l 382 979 l 16 0 l 114 0 l 222 300 l 633 300 z m 426 864 l 430 864 l 606 380 l 250 380 z m 325 1186 b 395 1201 342 1196 370 1201 b 458 1150 431 1201 458 1180 b 399 1082 458 1121 435 1095 l 433 1039 b 526 1154 490 1060 526 1104 b 405 1255 526 1216 477 1255 b 325 1239 375 1255 345 1249 z "},"Ȁ":{"ha":856,"x_min":0,"x_max":0,"o":"m 742 0 l 840 0 l 474 979 l 382 979 l 16 0 l 114 0 l 222 300 l 633 300 z m 426 864 l 430 864 l 606 380 l 250 380 z m 479 1057 l 562 1057 l 397 1252 l 294 1252 z m 277 1057 l 360 1057 l 194 1252 l 92 1252 z "},"Ā":{"ha":856,"x_min":0,"x_max":0,"o":"m 742 0 l 840 0 l 474 979 l 382 979 l 16 0 l 114 0 l 222 300 l 633 300 z m 426 864 l 430 864 l 606 380 l 250 380 z m 635 1166 l 221 1166 l 221 1104 l 635 1104 z "},"Ą":{"ha":856,"x_min":0,"x_max":0,"o":"m 426 864 l 430 864 l 606 380 l 250 380 z m 829 -271 l 829 -207 b 776 -213 815 -210 795 -213 b 689 -140 728 -213 689 -186 b 833 -1 689 -90 739 -39 l 839 1 l 474 979 l 382 979 l 16 0 l 114 0 l 222 300 l 633 300 l 739 9 b 612 -158 650 -39 612 -97 b 759 -281 612 -231 675 -281 b 829 -271 791 -281 817 -277 z "},"B":{"ha":817,"x_min":0,"x_max":0,"o":"m 446 0 b 777 269 652 0 777 102 b 547 512 777 404 682 496 l 547 517 b 726 737 651 536 726 629 b 444 979 726 882 612 979 l 92 979 l 92 0 z m 184 897 l 424 897 b 632 727 554 897 632 833 b 397 544 632 612 545 544 l 184 544 z m 184 82 l 184 464 l 420 464 b 682 273 589 464 682 395 b 433 82 682 152 593 82 z "},"Ḇ":{"ha":817,"x_min":0,"x_max":0,"o":"m 446 0 b 777 269 652 0 777 102 b 547 512 777 404 682 496 l 547 517 b 726 737 651 536 726 629 b 444 979 726 882 612 979 l 92 979 l 92 0 z m 184 897 l 424 897 b 632 727 554 897 632 833 b 397 544 632 612 545 544 l 184 544 z m 184 82 l 184 464 l 420 464 b 682 273 589 464 682 395 b 433 82 682 152 593 82 z m 574 -143 l 161 -143 l 161 -205 l 574 -205 z "},"Ḅ":{"ha":817,"x_min":0,"x_max":0,"o":"m 446 0 b 777 269 652 0 777 102 b 547 512 777 404 682 496 l 547 517 b 726 737 651 536 726 629 b 444 979 726 882 612 979 l 92 979 l 92 0 z m 184 897 l 424 897 b 632 727 554 897 632 833 b 397 544 632 612 545 544 l 184 544 z m 184 82 l 184 464 l 420 464 b 682 273 589 464 682 395 b 433 82 682 152 593 82 z m 368 -237 b 437 -168 406 -237 437 -205 b 368 -98 437 -130 406 -98 b 298 -168 330 -98 298 -130 b 368 -237 298 -205 330 -237 z "},"Ḃ":{"ha":817,"x_min":0,"x_max":0,"o":"m 446 0 b 777 269 652 0 777 102 b 547 512 777 404 682 496 l 547 517 b 726 737 651 536 726 629 b 444 979 726 882 612 979 l 92 979 l 92 0 z m 184 897 l 424 897 b 632 727 554 897 632 833 b 397 544 632 612 545 544 l 184 544 z m 184 82 l 184 464 l 420 464 b 682 273 589 464 682 395 b 433 82 682 152 593 82 z m 368 1068 b 437 1137 406 1068 437 1099 b 368 1206 437 1175 406 1206 b 298 1137 330 1206 298 1175 b 368 1068 298 1099 330 1068 z "},"C":{"ha":930,"x_min":0,"x_max":0,"o":"m 488 -16 b 885 290 701 -16 850 99 l 792 290 b 489 71 763 154 645 71 b 147 492 281 71 147 234 b 488 908 147 746 281 908 b 792 668 640 908 765 809 l 885 668 b 488 994 859 859 695 994 b 52 492 222 994 52 798 b 488 -16 52 182 222 -16 z "},"Ć":{"ha":930,"x_min":0,"x_max":0,"o":"m 488 -16 b 885 290 701 -16 850 99 l 792 290 b 489 71 763 154 645 71 b 147 492 281 71 147 234 b 488 908 147 746 281 908 b 792 668 640 908 765 809 l 885 668 b 488 994 859 859 695 994 b 52 492 222 994 52 798 b 488 -16 52 182 222 -16 z m 533 1057 l 719 1253 l 616 1253 l 451 1057 z "},"Č":{"ha":930,"x_min":0,"x_max":0,"o":"m 488 -16 b 885 290 701 -16 850 99 l 792 290 b 489 71 763 154 645 71 b 147 492 281 71 147 234 b 488 908 147 746 281 908 b 792 668 640 908 765 809 l 885 668 b 488 994 859 859 695 994 b 52 492 222 994 52 798 b 488 -16 52 182 222 -16 z m 453 1053 l 524 1053 l 711 1253 l 623 1253 l 490 1109 l 487 1109 l 353 1253 l 265 1253 z "},"Ĉ":{"ha":930,"x_min":0,"x_max":0,"o":"m 488 -16 b 885 290 701 -16 850 99 l 792 290 b 489 71 763 154 645 71 b 147 492 281 71 147 234 b 488 908 147 746 281 908 b 792 668 640 908 765 809 l 885 668 b 488 994 859 859 695 994 b 52 492 222 994 52 798 b 488 -16 52 182 222 -16 z m 453 1248 l 265 1048 l 353 1048 l 487 1191 l 490 1191 l 623 1048 l 711 1048 l 524 1248 z "},"Ċ":{"ha":930,"x_min":0,"x_max":0,"o":"m 488 -16 b 885 290 701 -16 850 99 l 792 290 b 489 71 763 154 645 71 b 147 492 281 71 147 234 b 488 908 147 746 281 908 b 792 668 640 908 765 809 l 885 668 b 488 994 859 859 695 994 b 52 492 222 994 52 798 b 488 -16 52 182 222 -16 z m 488 1069 b 557 1138 526 1069 557 1100 b 488 1207 557 1176 526 1207 b 419 1138 450 1207 419 1176 b 488 1069 419 1100 450 1069 z "},"Ç":{"ha":930,"x_min":0,"x_max":0,"o":"m 885 668 b 488 994 859 859 695 994 b 52 492 222 994 52 798 b 456 -15 52 195 208 1 l 419 -106 l 419 -144 l 461 -144 b 564 -199 531 -144 564 -161 b 468 -259 564 -235 528 -259 b 385 -250 439 -259 401 -255 l 385 -306 b 479 -316 402 -312 444 -317 b 635 -197 568 -315 635 -272 b 491 -90 635 -130 579 -92 l 524 -14 b 885 290 718 -2 852 110 l 792 290 b 489 71 763 154 645 71 b 147 492 281 71 147 234 b 488 908 147 746 281 908 b 792 668 640 908 765 809 z "},"Ḉ":{"ha":930,"x_min":0,"x_max":0,"o":"m 719 1253 l 616 1253 l 451 1057 l 533 1057 z m 885 668 b 488 994 859 859 695 994 b 52 492 222 994 52 798 b 456 -15 52 195 208 1 l 419 -106 l 419 -144 l 461 -144 b 564 -199 531 -144 564 -161 b 468 -259 564 -235 528 -259 b 385 -250 439 -259 401 -255 l 385 -306 b 479 -316 402 -312 444 -317 b 635 -197 568 -315 635 -272 b 491 -90 635 -130 579 -92 l 524 -14 b 885 290 718 -2 852 110 l 792 290 b 489 71 763 154 645 71 b 147 492 281 71 147 234 b 488 908 147 746 281 908 b 792 668 640 908 765 809 z "},"D":{"ha":924,"x_min":0,"x_max":0,"o":"m 92 979 l 92 0 l 409 0 b 873 490 703 0 873 180 b 409 979 873 799 702 979 z m 184 895 l 404 895 b 779 489 644 895 779 749 b 404 84 779 229 644 84 l 184 84 z "},"Ḋ":{"ha":924,"x_min":0,"x_max":0,"o":"m 92 979 l 92 0 l 409 0 b 873 490 703 0 873 180 b 409 979 873 799 702 979 z m 184 895 l 404 895 b 779 489 644 895 779 749 b 404 84 779 229 644 84 l 184 84 z m 374 1068 b 443 1137 412 1068 443 1099 b 374 1206 443 1175 412 1206 b 304 1137 336 1206 304 1175 b 374 1068 304 1099 336 1068 z "},"Ḓ":{"ha":924,"x_min":0,"x_max":0,"o":"m 92 979 l 92 0 l 409 0 b 873 490 703 0 873 180 b 409 979 873 799 702 979 z m 184 895 l 404 895 b 779 489 644 895 779 749 b 404 84 779 229 644 84 l 184 84 z m 338 -89 l 151 -289 l 239 -289 l 372 -146 l 375 -146 l 509 -289 l 597 -289 l 409 -89 z "},"Ḑ":{"ha":924,"x_min":0,"x_max":0,"o":"m 92 979 l 92 0 l 409 0 b 873 490 703 0 873 180 b 409 979 873 799 702 979 z m 184 895 l 404 895 b 779 489 644 895 779 749 b 404 84 779 229 644 84 l 184 84 z m 345 -327 l 431 -89 l 350 -89 l 278 -327 z "},"Ḏ":{"ha":924,"x_min":0,"x_max":0,"o":"m 92 979 l 92 0 l 409 0 b 873 490 703 0 873 180 b 409 979 873 799 702 979 z m 184 895 l 404 895 b 779 489 644 895 779 749 b 404 84 779 229 644 84 l 184 84 z m 581 -143 l 167 -143 l 167 -205 l 581 -205 z "},"Ď":{"ha":924,"x_min":0,"x_max":0,"o":"m 92 979 l 92 0 l 409 0 b 873 490 703 0 873 180 b 409 979 873 799 702 979 z m 184 895 l 404 895 b 779 489 644 895 779 749 b 404 84 779 229 644 84 l 184 84 z m 338 1052 l 409 1052 l 597 1252 l 509 1252 l 375 1109 l 372 1109 l 239 1252 l 151 1252 z "},"Ḍ":{"ha":924,"x_min":0,"x_max":0,"o":"m 92 979 l 92 0 l 409 0 b 873 490 703 0 873 180 b 409 979 873 799 702 979 z m 184 895 l 404 895 b 779 489 644 895 779 749 b 404 84 779 229 644 84 l 184 84 z m 374 -237 b 443 -168 412 -237 443 -205 b 374 -98 443 -130 412 -98 b 304 -168 336 -98 304 -130 b 374 -237 304 -205 336 -237 z "},"Đ":{"ha":935,"x_min":0,"x_max":0,"o":"m 195 84 l 195 462 l 406 462 l 406 546 l 195 546 l 195 895 l 414 895 b 789 489 654 895 789 749 b 414 84 789 229 654 84 z m 102 979 l 102 546 l 16 546 l 16 462 l 102 462 l 102 0 l 419 0 b 883 490 713 0 883 180 b 419 979 883 799 712 979 z "},"E":{"ha":749,"x_min":0,"x_max":0,"o":"m 682 84 l 184 84 l 184 460 l 657 460 l 657 543 l 184 543 l 184 895 l 682 895 l 682 979 l 92 979 l 92 0 l 682 0 z "},"È":{"ha":749,"x_min":0,"x_max":0,"o":"m 682 84 l 184 84 l 184 460 l 657 460 l 657 543 l 184 543 l 184 895 l 682 895 l 682 979 l 92 979 l 92 0 l 682 0 z m 342 1057 l 424 1057 l 258 1252 l 156 1252 z "},"Ȅ":{"ha":749,"x_min":0,"x_max":0,"o":"m 682 84 l 184 84 l 184 460 l 657 460 l 657 543 l 184 543 l 184 895 l 682 895 l 682 979 l 92 979 l 92 0 l 682 0 z m 438 1057 l 521 1057 l 355 1252 l 253 1252 z m 236 1057 l 319 1057 l 153 1252 l 50 1252 z "},"É":{"ha":749,"x_min":0,"x_max":0,"o":"m 682 84 l 184 84 l 184 460 l 657 460 l 657 543 l 184 543 l 184 895 l 682 895 l 682 979 l 92 979 l 92 0 l 682 0 z m 431 1057 l 617 1252 l 515 1252 l 349 1057 z "},"Ê":{"ha":749,"x_min":0,"x_max":0,"o":"m 682 84 l 184 84 l 184 460 l 657 460 l 657 543 l 184 543 l 184 895 l 682 895 l 682 979 l 92 979 l 92 0 l 682 0 z m 351 1247 l 163 1047 l 252 1047 l 385 1190 l 388 1190 l 522 1047 l 610 1047 l 422 1247 z "},"Ể":{"ha":749,"x_min":0,"x_max":0,"o":"m 682 84 l 184 84 l 184 460 l 657 460 l 657 543 l 184 543 l 184 895 l 682 895 l 682 979 l 92 979 l 92 0 l 682 0 z m 347 1211 l 159 1047 l 253 1047 l 385 1162 l 388 1162 l 520 1047 l 614 1047 l 426 1211 z m 471 1307 b 530 1320 484 1315 508 1320 b 586 1274 563 1320 586 1301 b 534 1213 586 1248 566 1225 l 575 1178 b 647 1278 619 1194 647 1234 b 540 1371 647 1333 603 1371 b 471 1355 515 1371 488 1364 z "},"Ề":{"ha":749,"x_min":0,"x_max":0,"o":"m 682 84 l 184 84 l 184 460 l 657 460 l 657 543 l 184 543 l 184 895 l 682 895 l 682 979 l 92 979 l 92 0 l 682 0 z m 347 1211 l 159 1047 l 253 1047 l 385 1162 l 388 1162 l 520 1047 l 614 1047 l 426 1211 z m 629 1224 l 505 1367 l 414 1367 l 551 1224 z "},"Ễ":{"ha":749,"x_min":0,"x_max":0,"o":"m 682 84 l 184 84 l 184 460 l 657 460 l 657 543 l 184 543 l 184 895 l 682 895 l 682 979 l 92 979 l 92 0 l 682 0 z m 467 1242 b 585 1374 538 1242 585 1299 l 522 1374 b 466 1299 519 1328 498 1299 b 306 1389 413 1299 395 1389 b 188 1257 231 1389 188 1333 l 251 1257 b 307 1334 253 1303 273 1334 b 467 1242 360 1334 378 1242 z m 347 1206 l 159 1047 l 253 1047 l 385 1158 l 388 1158 l 520 1047 l 614 1047 l 426 1206 z "},"Ệ":{"ha":749,"x_min":0,"x_max":0,"o":"m 682 84 l 184 84 l 184 460 l 657 460 l 657 543 l 184 543 l 184 895 l 682 895 l 682 979 l 92 979 l 92 0 l 682 0 z m 351 1247 l 163 1047 l 252 1047 l 385 1190 l 388 1190 l 522 1047 l 610 1047 l 422 1247 z m 387 -237 b 456 -168 425 -237 456 -205 b 387 -98 456 -130 425 -98 b 317 -168 349 -98 317 -130 b 387 -237 317 -205 349 -237 z "},"Ế":{"ha":749,"x_min":0,"x_max":0,"o":"m 682 84 l 184 84 l 184 460 l 657 460 l 657 543 l 184 543 l 184 895 l 682 895 l 682 979 l 92 979 l 92 0 l 682 0 z m 347 1211 l 159 1047 l 253 1047 l 385 1162 l 388 1162 l 520 1047 l 614 1047 l 426 1211 z m 506 1224 l 585 1224 l 721 1367 l 630 1367 z "},"Ë":{"ha":749,"x_min":0,"x_max":0,"o":"m 682 84 l 184 84 l 184 460 l 657 460 l 657 543 l 184 543 l 184 895 l 682 895 l 682 979 l 92 979 l 92 0 l 682 0 z m 271 1077 b 333 1139 305 1077 333 1105 b 271 1201 333 1173 305 1201 b 209 1139 237 1201 209 1173 b 271 1077 209 1105 237 1077 z m 502 1077 b 564 1139 536 1077 564 1105 b 502 1201 564 1173 536 1201 b 440 1139 468 1201 440 1173 b 502 1077 440 1105 468 1077 z "},"Ẹ":{"ha":749,"x_min":0,"x_max":0,"o":"m 682 84 l 184 84 l 184 460 l 657 460 l 657 543 l 184 543 l 184 895 l 682 895 l 682 979 l 92 979 l 92 0 l 682 0 z m 387 -237 b 456 -168 425 -237 456 -205 b 387 -98 456 -130 425 -98 b 317 -168 349 -98 317 -130 b 387 -237 317 -205 349 -237 z "},"Ȇ":{"ha":749,"x_min":0,"x_max":0,"o":"m 682 84 l 184 84 l 184 460 l 657 460 l 657 543 l 184 543 l 184 895 l 682 895 l 682 979 l 92 979 l 92 0 l 682 0 z m 183 1048 l 251 1048 b 387 1175 256 1126 310 1175 b 522 1048 463 1175 517 1126 l 590 1048 b 387 1236 584 1152 507 1236 b 183 1048 266 1236 189 1152 z "},"Ẻ":{"ha":749,"x_min":0,"x_max":0,"o":"m 682 84 l 184 84 l 184 460 l 657 460 l 657 543 l 184 543 l 184 895 l 682 895 l 682 979 l 92 979 l 92 0 l 682 0 z m 283 1186 b 353 1201 301 1196 329 1201 b 416 1150 390 1201 416 1180 b 357 1082 416 1121 393 1095 l 391 1039 b 485 1154 448 1060 485 1104 b 363 1255 485 1216 435 1255 b 283 1239 334 1255 304 1249 z "},"Ě":{"ha":749,"x_min":0,"x_max":0,"o":"m 682 84 l 184 84 l 184 460 l 657 460 l 657 543 l 184 543 l 184 895 l 682 895 l 682 979 l 92 979 l 92 0 l 682 0 z m 351 1052 l 422 1052 l 610 1252 l 522 1252 l 388 1109 l 385 1109 l 252 1252 l 163 1252 z "},"Ē":{"ha":749,"x_min":0,"x_max":0,"o":"m 682 84 l 184 84 l 184 460 l 657 460 l 657 543 l 184 543 l 184 895 l 682 895 l 682 979 l 92 979 l 92 0 l 682 0 z m 593 1166 l 180 1166 l 180 1104 l 593 1104 z "},"Ḕ":{"ha":749,"x_min":0,"x_max":0,"o":"m 682 84 l 184 84 l 184 460 l 657 460 l 657 543 l 184 543 l 184 895 l 682 895 l 682 979 l 92 979 l 92 0 l 682 0 z m 180 1084 l 593 1084 l 593 1147 l 180 1147 z m 429 1224 l 305 1367 l 214 1367 l 350 1224 z "},"Ḗ":{"ha":749,"x_min":0,"x_max":0,"o":"m 682 84 l 184 84 l 184 460 l 657 460 l 657 543 l 184 543 l 184 895 l 682 895 l 682 979 l 92 979 l 92 0 l 682 0 z m 593 1084 l 593 1147 l 180 1147 l 180 1084 z m 347 1224 l 426 1224 l 562 1367 l 471 1367 z "},"Ẽ":{"ha":749,"x_min":0,"x_max":0,"o":"m 682 84 l 184 84 l 184 460 l 657 460 l 657 543 l 184 543 l 184 895 l 682 895 l 682 979 l 92 979 l 92 0 l 682 0 z m 477 1066 b 594 1227 548 1066 594 1128 l 530 1227 b 477 1127 530 1163 512 1127 b 297 1234 420 1127 391 1234 b 179 1073 224 1234 179 1174 l 243 1073 b 296 1173 241 1136 260 1173 b 477 1066 356 1173 387 1066 z "},"Ḙ":{"ha":749,"x_min":0,"x_max":0,"o":"m 682 84 l 184 84 l 184 460 l 657 460 l 657 543 l 184 543 l 184 895 l 682 895 l 682 979 l 92 979 l 92 0 l 682 0 z m 351 -89 l 163 -289 l 252 -289 l 385 -146 l 388 -146 l 522 -289 l 610 -289 l 422 -89 z "},"Ĕ":{"ha":749,"x_min":0,"x_max":0,"o":"m 682 84 l 184 84 l 184 460 l 657 460 l 657 543 l 184 543 l 184 895 l 682 895 l 682 979 l 92 979 l 92 0 l 682 0 z m 183 1236 b 387 1048 189 1132 266 1048 b 590 1236 507 1048 584 1132 l 522 1236 b 387 1109 517 1158 463 1109 b 251 1236 310 1109 256 1158 z "},"Ḛ":{"ha":749,"x_min":0,"x_max":0,"o":"m 682 84 l 184 84 l 184 460 l 657 460 l 657 543 l 184 543 l 184 895 l 682 895 l 682 979 l 92 979 l 92 0 l 682 0 z m 477 -234 b 594 -73 548 -234 594 -172 l 530 -73 b 477 -173 530 -137 512 -173 b 297 -66 420 -173 391 -66 b 179 -227 224 -66 179 -126 l 243 -227 b 296 -127 241 -164 260 -127 b 477 -234 356 -127 387 -234 z "},"Ė":{"ha":749,"x_min":0,"x_max":0,"o":"m 682 84 l 184 84 l 184 460 l 657 460 l 657 543 l 184 543 l 184 895 l 682 895 l 682 979 l 92 979 l 92 0 l 682 0 z m 387 1068 b 456 1137 425 1068 456 1099 b 387 1206 456 1175 425 1206 b 317 1137 349 1206 317 1175 b 387 1068 317 1099 349 1068 z "},"Ȩ":{"ha":749,"x_min":0,"x_max":0,"o":"m 682 895 l 682 979 l 92 979 l 92 0 l 360 0 l 317 -106 l 317 -144 l 359 -144 b 463 -199 429 -144 463 -161 b 366 -259 463 -235 426 -259 b 283 -250 337 -259 299 -255 l 283 -306 b 378 -316 300 -312 342 -317 b 533 -197 466 -315 533 -272 b 389 -90 533 -130 477 -92 l 429 0 l 682 0 l 682 84 l 184 84 l 184 460 l 657 460 l 657 543 l 184 543 l 184 895 z "},"Ḝ":{"ha":749,"x_min":0,"x_max":0,"o":"m 522 1236 b 387 1109 517 1158 463 1109 b 251 1236 310 1109 256 1158 l 183 1236 b 387 1048 189 1132 266 1048 b 590 1236 507 1048 584 1132 z m 682 895 l 682 979 l 92 979 l 92 0 l 360 0 l 317 -106 l 317 -144 l 359 -144 b 463 -199 429 -144 463 -161 b 366 -259 463 -235 426 -259 b 283 -250 337 -259 299 -255 l 283 -306 b 378 -316 300 -312 342 -317 b 533 -197 466 -315 533 -272 b 389 -90 533 -130 477 -92 l 429 0 l 682 0 l 682 84 l 184 84 l 184 460 l 657 460 l 657 543 l 184 543 l 184 895 z "},"Ę":{"ha":749,"x_min":0,"x_max":0,"o":"m 92 0 l 547 0 l 547 -3 b 441 -158 479 -45 441 -99 b 587 -281 441 -231 503 -281 b 657 -271 619 -281 646 -277 l 657 -207 b 605 -213 644 -210 624 -213 b 517 -140 556 -213 517 -186 b 671 3 517 -89 573 -35 l 682 7 l 682 84 l 184 84 l 184 460 l 657 460 l 657 543 l 184 543 l 184 895 l 682 895 l 682 979 l 92 979 z "},"F":{"ha":720,"x_min":0,"x_max":0,"o":"m 184 0 l 184 444 l 633 444 l 633 527 l 184 527 l 184 895 l 672 895 l 672 979 l 92 979 l 92 0 z "},"Ḟ":{"ha":720,"x_min":0,"x_max":0,"o":"m 184 0 l 184 444 l 633 444 l 633 527 l 184 527 l 184 895 l 672 895 l 672 979 l 92 979 l 92 0 z m 382 1068 b 451 1137 420 1068 451 1099 b 382 1206 451 1175 420 1206 b 313 1137 344 1206 313 1175 b 382 1068 313 1099 344 1068 z "},"G":{"ha":956,"x_min":0,"x_max":0,"o":"m 898 397 l 898 492 l 502 492 l 502 410 l 806 410 l 806 376 b 492 71 806 191 681 71 b 147 495 282 71 147 237 b 492 908 147 750 279 908 b 795 684 641 908 755 824 l 892 684 b 492 994 855 871 697 994 b 52 495 224 994 52 798 b 492 -16 52 186 227 -16 b 898 397 746 -16 898 139 z "},"Ǵ":{"ha":956,"x_min":0,"x_max":0,"o":"m 898 397 l 898 492 l 502 492 l 502 410 l 806 410 l 806 376 b 492 71 806 191 681 71 b 147 495 282 71 147 237 b 492 908 147 750 279 908 b 795 684 641 908 755 824 l 892 684 b 492 994 855 871 697 994 b 52 495 224 994 52 798 b 492 -16 52 186 227 -16 b 898 397 746 -16 898 139 z m 536 1057 l 722 1252 l 620 1252 l 454 1057 z "},"Ǧ":{"ha":956,"x_min":0,"x_max":0,"o":"m 898 397 l 898 492 l 502 492 l 502 410 l 806 410 l 806 376 b 492 71 806 191 681 71 b 147 495 282 71 147 237 b 492 908 147 750 279 908 b 795 684 641 908 755 824 l 892 684 b 492 994 855 871 697 994 b 52 495 224 994 52 798 b 492 -16 52 186 227 -16 b 898 397 746 -16 898 139 z m 456 1052 l 527 1052 l 715 1252 l 627 1252 l 493 1109 l 490 1109 l 357 1252 l 269 1252 z "},"Ĝ":{"ha":956,"x_min":0,"x_max":0,"o":"m 898 397 l 898 492 l 502 492 l 502 410 l 806 410 l 806 376 b 492 71 806 191 681 71 b 147 495 282 71 147 237 b 492 908 147 750 279 908 b 795 684 641 908 755 824 l 892 684 b 492 994 855 871 697 994 b 52 495 224 994 52 798 b 492 -16 52 186 227 -16 b 898 397 746 -16 898 139 z m 456 1247 l 269 1047 l 357 1047 l 490 1190 l 493 1190 l 627 1047 l 715 1047 l 527 1247 z "},"Ğ":{"ha":956,"x_min":0,"x_max":0,"o":"m 898 397 l 898 492 l 502 492 l 502 410 l 806 410 l 806 376 b 492 71 806 191 681 71 b 147 495 282 71 147 237 b 492 908 147 750 279 908 b 795 684 641 908 755 824 l 892 684 b 492 994 855 871 697 994 b 52 495 224 994 52 798 b 492 -16 52 186 227 -16 b 898 397 746 -16 898 139 z m 288 1236 b 492 1048 294 1132 371 1048 b 695 1236 612 1048 689 1132 l 627 1236 b 492 1109 622 1158 568 1109 b 356 1236 415 1109 361 1158 z "},"Ḡ":{"ha":956,"x_min":0,"x_max":0,"o":"m 898 397 l 898 492 l 502 492 l 502 410 l 806 410 l 806 376 b 492 71 806 191 681 71 b 147 495 282 71 147 237 b 492 908 147 750 279 908 b 795 684 641 908 755 824 l 892 684 b 492 994 855 871 697 994 b 52 495 224 994 52 798 b 492 -16 52 186 227 -16 b 898 397 746 -16 898 139 z m 699 1166 l 285 1166 l 285 1104 l 699 1104 z "},"Ġ":{"ha":956,"x_min":0,"x_max":0,"o":"m 898 397 l 898 492 l 502 492 l 502 410 l 806 410 l 806 376 b 492 71 806 191 681 71 b 147 495 282 71 147 237 b 492 908 147 750 279 908 b 795 684 641 908 755 824 l 892 684 b 492 994 855 871 697 994 b 52 495 224 994 52 798 b 492 -16 52 186 227 -16 b 898 397 746 -16 898 139 z m 492 1068 b 561 1137 530 1068 561 1099 b 492 1206 561 1175 530 1206 b 422 1137 454 1206 422 1175 b 492 1068 422 1099 454 1068 z "},"Ģ":{"ha":956,"x_min":0,"x_max":0,"o":"m 898 397 l 898 492 l 502 492 l 502 410 l 806 410 l 806 376 b 492 71 806 191 681 71 b 147 495 282 71 147 237 b 492 908 147 750 279 908 b 795 684 641 908 755 824 l 892 684 b 492 994 855 871 697 994 b 52 495 224 994 52 798 b 492 -16 52 186 227 -16 b 898 397 746 -16 898 139 z m 463 -327 l 549 -89 l 468 -89 l 396 -327 z "},"H":{"ha":941,"x_min":0,"x_max":0,"o":"m 849 0 l 849 979 l 756 979 l 756 543 l 184 543 l 184 979 l 92 979 l 92 0 l 184 0 l 184 459 l 756 459 l 756 0 z "},"Ḧ":{"ha":941,"x_min":0,"x_max":0,"o":"m 849 0 l 849 979 l 756 979 l 756 543 l 184 543 l 184 979 l 92 979 l 92 0 l 184 0 l 184 459 l 756 459 l 756 0 z m 355 1077 b 416 1139 389 1077 416 1105 b 355 1201 416 1173 389 1201 b 292 1139 321 1201 292 1173 b 355 1077 292 1105 321 1077 z m 585 1077 b 648 1139 619 1077 648 1105 b 585 1201 648 1173 619 1201 b 524 1139 551 1201 524 1173 b 585 1077 524 1105 551 1077 z "},"Ȟ":{"ha":941,"x_min":0,"x_max":0,"o":"m 849 0 l 849 979 l 756 979 l 756 543 l 184 543 l 184 979 l 92 979 l 92 0 l 184 0 l 184 459 l 756 459 l 756 0 z m 435 1052 l 505 1052 l 693 1252 l 605 1252 l 471 1109 l 469 1109 l 335 1252 l 247 1252 z "},"Ĥ":{"ha":941,"x_min":0,"x_max":0,"o":"m 849 0 l 849 979 l 756 979 l 756 543 l 184 543 l 184 979 l 92 979 l 92 0 l 184 0 l 184 459 l 756 459 l 756 0 z m 435 1247 l 247 1047 l 335 1047 l 469 1190 l 471 1190 l 605 1047 l 693 1047 l 505 1247 z "},"Ḥ":{"ha":941,"x_min":0,"x_max":0,"o":"m 849 0 l 849 979 l 756 979 l 756 543 l 184 543 l 184 979 l 92 979 l 92 0 l 184 0 l 184 459 l 756 459 l 756 0 z m 470 -237 b 539 -168 508 -237 539 -205 b 470 -98 539 -130 508 -98 b 401 -168 432 -98 401 -130 b 470 -237 401 -205 432 -237 z "},"Ḣ":{"ha":941,"x_min":0,"x_max":0,"o":"m 849 0 l 849 979 l 756 979 l 756 543 l 184 543 l 184 979 l 92 979 l 92 0 l 184 0 l 184 459 l 756 459 l 756 0 z m 470 1068 b 539 1137 508 1068 539 1099 b 470 1206 539 1175 508 1206 b 401 1137 432 1206 401 1175 b 470 1068 401 1099 432 1068 z "},"Ḫ":{"ha":941,"x_min":0,"x_max":0,"o":"m 849 0 l 849 979 l 756 979 l 756 543 l 184 543 l 184 979 l 92 979 l 92 0 l 184 0 l 184 459 l 756 459 l 756 0 z m 267 -77 b 470 -264 273 -180 349 -264 b 673 -77 591 -264 667 -180 l 606 -77 b 470 -203 600 -154 547 -203 b 334 -77 393 -203 340 -154 z "},"Ḩ":{"ha":941,"x_min":0,"x_max":0,"o":"m 756 979 l 756 543 l 184 543 l 184 979 l 92 979 l 92 0 l 116 0 l 73 -106 l 73 -144 l 115 -144 b 218 -199 185 -144 218 -161 b 122 -259 218 -235 182 -259 b 39 -250 93 -259 55 -255 l 39 -306 b 134 -316 56 -312 98 -317 b 289 -197 222 -315 289 -272 b 145 -90 289 -130 233 -92 l 184 0 l 184 5 l 184 5 l 184 459 l 756 459 l 756 0 l 849 0 l 849 979 z "},"Ħ":{"ha":950,"x_min":0,"x_max":0,"o":"m 761 543 l 189 543 l 189 743 l 761 743 z m 943 818 l 854 818 l 854 979 l 761 979 l 761 818 l 189 818 l 189 979 l 96 979 l 96 818 l 7 818 l 7 743 l 96 743 l 96 0 l 189 0 l 189 459 l 761 459 l 761 0 l 854 0 l 854 743 l 943 743 z "},"I":{"ha":275,"x_min":0,"x_max":0,"o":"m 184 0 l 184 979 l 92 979 l 92 0 z "},"İ":{"ha":275,"x_min":0,"x_max":0,"o":"m 184 0 l 184 979 l 92 979 l 92 0 z m 138 1068 b 207 1137 176 1068 207 1099 b 138 1206 207 1175 176 1206 b 68 1137 100 1206 68 1175 b 138 1068 68 1099 100 1068 z "},"Ì":{"ha":275,"x_min":0,"x_max":0,"o":"m 184 0 l 184 979 l 92 979 l 92 0 z m 93 1057 l 175 1057 l 9 1252 l -93 1252 z "},"Ȉ":{"ha":275,"x_min":0,"x_max":0,"o":"m 184 0 l 184 979 l 92 979 l 92 0 z m 189 1057 l 272 1057 l 106 1252 l 4 1252 z m -13 1057 l 70 1057 l -96 1252 l -199 1252 z "},"Í":{"ha":275,"x_min":0,"x_max":0,"o":"m 184 0 l 184 979 l 92 979 l 92 0 z m 182 1057 l 368 1252 l 266 1252 l 100 1057 z "},"Î":{"ha":275,"x_min":0,"x_max":0,"o":"m 184 0 l 184 979 l 92 979 l 92 0 z m 102 1247 l -85 1047 l 3 1047 l 136 1190 l 139 1190 l 273 1047 l 361 1047 l 173 1247 z "},"Ǐ":{"ha":275,"x_min":0,"x_max":0,"o":"m 184 0 l 184 979 l 92 979 l 92 0 z m 102 1052 l 173 1052 l 361 1252 l 273 1252 l 139 1109 l 136 1109 l 3 1252 l -85 1252 z "},"Ï":{"ha":275,"x_min":0,"x_max":0,"o":"m 184 0 l 184 979 l 92 979 l 92 0 z m 22 1077 b 84 1139 56 1077 84 1105 b 22 1201 84 1173 56 1201 b -40 1139 -12 1201 -40 1173 b 22 1077 -40 1105 -12 1077 z m 253 1077 b 315 1139 287 1077 315 1105 b 253 1201 315 1173 287 1201 b 191 1139 219 1201 191 1173 b 253 1077 191 1105 219 1077 z "},"Ḯ":{"ha":275,"x_min":0,"x_max":0,"o":"m 184 0 l 184 979 l 92 979 l 92 0 z m 90 1224 l 170 1224 l 305 1367 l 214 1367 z m 26 1054 b 85 1114 59 1054 85 1080 b 26 1174 85 1147 59 1174 b -33 1114 -6 1174 -33 1147 b 26 1054 -33 1080 -6 1054 z m 249 1054 b 309 1114 281 1054 309 1080 b 249 1174 309 1147 281 1174 b 190 1114 216 1174 190 1147 b 249 1054 190 1080 216 1054 z "},"Ĭ":{"ha":275,"x_min":0,"x_max":0,"o":"m 184 0 l 184 979 l 92 979 l 92 0 z m -66 1236 b 138 1048 -60 1132 17 1048 b 341 1236 258 1048 335 1132 l 273 1236 b 138 1109 268 1158 214 1109 b 2 1236 61 1109 7 1158 z "},"Ị":{"ha":275,"x_min":0,"x_max":0,"o":"m 184 0 l 184 979 l 92 979 l 92 0 z m 138 -237 b 207 -168 176 -237 207 -205 b 138 -98 207 -130 176 -98 b 68 -168 100 -98 68 -130 b 138 -237 68 -205 100 -237 z "},"Ȋ":{"ha":275,"x_min":0,"x_max":0,"o":"m 184 0 l 184 979 l 92 979 l 92 0 z m -66 1048 l 2 1048 b 138 1175 7 1126 61 1175 b 273 1048 214 1175 268 1126 l 341 1048 b 138 1236 335 1152 258 1236 b -66 1048 17 1236 -60 1152 z "},"Ī":{"ha":275,"x_min":0,"x_max":0,"o":"m 184 0 l 184 979 l 92 979 l 92 0 z m 345 1166 l -69 1166 l -69 1104 l 345 1104 z "},"Ḭ":{"ha":275,"x_min":0,"x_max":0,"o":"m 184 0 l 184 979 l 92 979 l 92 0 z m 228 -234 b 345 -73 299 -234 345 -172 l 281 -73 b 229 -173 281 -137 263 -173 b 48 -66 171 -173 142 -66 b -70 -227 -25 -66 -70 -126 l -6 -227 b 47 -127 -8 -164 11 -127 b 228 -234 107 -127 138 -234 z "},"Ỉ":{"ha":275,"x_min":0,"x_max":0,"o":"m 184 0 l 184 979 l 92 979 l 92 0 z m 35 1186 b 104 1201 52 1196 80 1201 b 168 1150 141 1201 168 1180 b 109 1082 168 1121 144 1095 l 142 1039 b 236 1154 199 1060 236 1104 b 115 1255 236 1216 186 1255 b 35 1239 85 1255 55 1249 z "},"Ĩ":{"ha":275,"x_min":0,"x_max":0,"o":"m 184 0 l 184 979 l 92 979 l 92 0 z m 228 1066 b 345 1227 299 1066 345 1128 l 281 1227 b 229 1127 281 1163 263 1127 b 48 1234 171 1127 142 1234 b -70 1073 -25 1234 -70 1174 l -6 1073 b 47 1173 -8 1136 11 1173 b 228 1066 107 1173 138 1066 z "},"Į":{"ha":275,"x_min":0,"x_max":0,"o":"m 92 2 b -9 -158 28 -41 -9 -97 b 137 -281 -9 -231 54 -281 b 208 -271 168 -281 195 -277 l 208 -207 b 155 -213 193 -210 174 -213 b 68 -140 106 -213 68 -186 b 180 -1 68 -90 114 -41 l 184 2 l 184 979 l 92 979 z "},"J":{"ha":669,"x_min":0,"x_max":0,"o":"m 28 224 b 298 -20 30 81 141 -20 b 578 268 473 -20 578 88 l 578 979 l 486 979 l 486 269 b 298 66 486 138 417 66 b 120 224 197 66 124 131 z "},"Ĵ":{"ha":669,"x_min":0,"x_max":0,"o":"m 28 224 b 298 -20 30 81 141 -20 b 578 268 473 -20 578 88 l 578 979 l 486 979 l 486 269 b 298 66 486 138 417 66 b 120 224 197 66 124 131 z m 496 1247 l 309 1047 l 397 1047 l 530 1190 l 533 1190 l 667 1047 l 755 1047 l 567 1247 z "},"K":{"ha":820,"x_min":0,"x_max":0,"o":"m 184 0 l 184 349 l 304 480 l 693 0 l 812 0 l 370 546 l 772 979 l 654 979 l 189 471 l 184 471 l 184 979 l 92 979 l 92 0 z "},"Ḱ":{"ha":820,"x_min":0,"x_max":0,"o":"m 184 0 l 184 349 l 304 480 l 693 0 l 812 0 l 370 546 l 772 979 l 654 979 l 189 471 l 184 471 l 184 979 l 92 979 l 92 0 z m 439 1057 l 625 1252 l 522 1252 l 357 1057 z "},"Ǩ":{"ha":820,"x_min":0,"x_max":0,"o":"m 184 0 l 184 349 l 304 480 l 693 0 l 812 0 l 370 546 l 772 979 l 654 979 l 189 471 l 184 471 l 184 979 l 92 979 l 92 0 z m 359 1052 l 429 1052 l 617 1252 l 529 1252 l 395 1109 l 393 1109 l 259 1252 l 171 1252 z "},"Ḳ":{"ha":820,"x_min":0,"x_max":0,"o":"m 184 0 l 184 349 l 304 480 l 693 0 l 812 0 l 370 546 l 772 979 l 654 979 l 189 471 l 184 471 l 184 979 l 92 979 l 92 0 z m 394 -237 b 463 -168 432 -237 463 -205 b 394 -98 463 -130 432 -98 b 325 -168 356 -98 325 -130 b 394 -237 325 -205 356 -237 z "},"Ḵ":{"ha":820,"x_min":0,"x_max":0,"o":"m 184 0 l 184 349 l 304 480 l 693 0 l 812 0 l 370 546 l 772 979 l 654 979 l 189 471 l 184 471 l 184 979 l 92 979 l 92 0 z m 601 -143 l 187 -143 l 187 -205 l 601 -205 z "},"Ķ":{"ha":820,"x_min":0,"x_max":0,"o":"m 184 0 l 184 349 l 304 480 l 693 0 l 812 0 l 370 546 l 772 979 l 654 979 l 189 471 l 184 471 l 184 979 l 92 979 l 92 0 z m 366 -327 l 452 -89 l 370 -89 l 298 -327 z "},"L":{"ha":713,"x_min":0,"x_max":0,"o":"m 674 84 l 184 84 l 184 979 l 92 979 l 92 0 l 674 0 z "},"Ĺ":{"ha":713,"x_min":0,"x_max":0,"o":"m 674 84 l 184 84 l 184 979 l 92 979 l 92 0 l 674 0 z m 182 1057 l 368 1252 l 266 1252 l 100 1057 z "},"Ḽ":{"ha":713,"x_min":0,"x_max":0,"o":"m 674 84 l 184 84 l 184 979 l 92 979 l 92 0 l 674 0 z m 347 -89 l 159 -289 l 248 -289 l 381 -146 l 384 -146 l 517 -289 l 606 -289 l 418 -89 z "},"Ḷ":{"ha":713,"x_min":0,"x_max":0,"o":"m 674 84 l 184 84 l 184 979 l 92 979 l 92 0 l 674 0 z m 382 -237 b 452 -168 420 -237 452 -205 b 382 -98 452 -130 420 -98 b 313 -168 345 -98 313 -130 b 382 -237 313 -205 345 -237 z "},"Ḹ":{"ha":713,"x_min":0,"x_max":0,"o":"m 674 84 l 184 84 l 184 979 l 92 979 l 92 0 l 674 0 z m 382 -237 b 452 -168 420 -237 452 -205 b 382 -98 452 -130 420 -98 b 313 -168 345 -98 313 -130 b 382 -237 313 -205 345 -237 z m 345 1166 l -69 1166 l -69 1104 l 345 1104 z "},"Ḻ":{"ha":713,"x_min":0,"x_max":0,"o":"m 674 84 l 184 84 l 184 979 l 92 979 l 92 0 l 674 0 z m 589 -143 l 176 -143 l 176 -205 l 589 -205 z "},"Ļ":{"ha":713,"x_min":0,"x_max":0,"o":"m 674 84 l 184 84 l 184 979 l 92 979 l 92 0 l 674 0 z m 354 -327 l 440 -89 l 359 -89 l 287 -327 z "},"Ľ":{"ha":713,"x_min":0,"x_max":0,"o":"m 399 979 l 399 658 l 462 658 l 486 979 z m 674 84 l 184 84 l 184 979 l 92 979 l 92 0 l 674 0 z "},"Ł":{"ha":720,"x_min":0,"x_max":0,"o":"m 190 84 l 190 524 l 434 642 l 434 718 l 190 599 l 190 979 l 98 979 l 98 553 l 14 513 l 14 437 l 98 478 l 98 0 l 680 0 l 680 84 z "},"M":{"ha":1126,"x_min":0,"x_max":0,"o":"m 1034 0 l 1034 979 l 927 979 l 565 122 l 561 122 l 198 979 l 92 979 l 92 0 l 178 0 l 178 803 l 182 803 l 522 5 l 603 5 l 943 803 l 947 803 l 947 0 z "},"Ḿ":{"ha":1126,"x_min":0,"x_max":0,"o":"m 1034 0 l 1034 979 l 927 979 l 565 122 l 561 122 l 198 979 l 92 979 l 92 0 l 178 0 l 178 803 l 182 803 l 522 5 l 603 5 l 943 803 l 947 803 l 947 0 z m 608 1057 l 793 1252 l 691 1252 l 526 1057 z "},"Ṁ":{"ha":1126,"x_min":0,"x_max":0,"o":"m 1034 0 l 1034 979 l 927 979 l 565 122 l 561 122 l 198 979 l 92 979 l 92 0 l 178 0 l 178 803 l 182 803 l 522 5 l 603 5 l 943 803 l 947 803 l 947 0 z m 563 1068 b 632 1137 601 1068 632 1099 b 563 1206 632 1175 601 1206 b 494 1137 525 1206 494 1175 b 563 1068 494 1099 525 1068 z "},"Ṃ":{"ha":1126,"x_min":0,"x_max":0,"o":"m 1034 0 l 1034 979 l 927 979 l 565 122 l 561 122 l 198 979 l 92 979 l 92 0 l 178 0 l 178 803 l 182 803 l 522 5 l 603 5 l 943 803 l 947 803 l 947 0 z m 563 -237 b 632 -168 601 -237 632 -205 b 563 -98 632 -130 601 -98 b 494 -168 525 -98 494 -130 b 563 -237 494 -205 525 -237 z "},"N":{"ha":945,"x_min":0,"x_max":0,"o":"m 183 0 l 183 818 l 188 818 l 764 0 l 853 0 l 853 979 l 762 979 l 762 161 l 757 161 l 183 979 l 92 979 l 92 0 z "},"Ǹ":{"ha":945,"x_min":0,"x_max":0,"o":"m 183 0 l 183 818 l 188 818 l 764 0 l 853 0 l 853 979 l 762 979 l 762 161 l 757 161 l 183 979 l 92 979 l 92 0 z m 427 1057 l 509 1057 l 344 1252 l 241 1252 z "},"Ń":{"ha":945,"x_min":0,"x_max":0,"o":"m 183 0 l 183 818 l 188 818 l 764 0 l 853 0 l 853 979 l 762 979 l 762 161 l 757 161 l 183 979 l 92 979 l 92 0 z m 517 1057 l 703 1252 l 600 1252 l 435 1057 z "},"Ñ":{"ha":945,"x_min":0,"x_max":0,"o":"m 183 0 l 183 818 l 188 818 l 764 0 l 853 0 l 853 979 l 762 979 l 762 161 l 757 161 l 183 979 l 92 979 l 92 0 z m 562 1066 b 680 1227 633 1066 680 1128 l 616 1227 b 563 1127 616 1163 597 1127 b 382 1234 505 1127 476 1234 b 264 1073 309 1234 264 1174 l 328 1073 b 382 1173 326 1136 345 1173 b 562 1066 441 1173 473 1066 z "},"Ṇ":{"ha":945,"x_min":0,"x_max":0,"o":"m 183 0 l 183 818 l 188 818 l 764 0 l 853 0 l 853 979 l 762 979 l 762 161 l 757 161 l 183 979 l 92 979 l 92 0 z m 472 -237 b 541 -168 510 -237 541 -205 b 472 -98 541 -130 510 -98 b 403 -168 434 -98 403 -130 b 472 -237 403 -205 434 -237 z "},"Ṅ":{"ha":945,"x_min":0,"x_max":0,"o":"m 183 0 l 183 818 l 188 818 l 764 0 l 853 0 l 853 979 l 762 979 l 762 161 l 757 161 l 183 979 l 92 979 l 92 0 z m 472 1068 b 541 1137 510 1068 541 1099 b 472 1206 541 1175 510 1206 b 403 1137 434 1206 403 1175 b 472 1068 403 1099 434 1068 z "},"Ň":{"ha":945,"x_min":0,"x_max":0,"o":"m 183 0 l 183 818 l 188 818 l 764 0 l 853 0 l 853 979 l 762 979 l 762 161 l 757 161 l 183 979 l 92 979 l 92 0 z m 437 1052 l 507 1052 l 695 1252 l 607 1252 l 473 1109 l 471 1109 l 337 1252 l 249 1252 z "},"Ṋ":{"ha":945,"x_min":0,"x_max":0,"o":"m 183 0 l 183 818 l 188 818 l 764 0 l 853 0 l 853 979 l 762 979 l 762 161 l 757 161 l 183 979 l 92 979 l 92 0 z m 437 -89 l 249 -289 l 337 -289 l 471 -146 l 473 -146 l 607 -289 l 695 -289 l 507 -89 z "},"Ṉ":{"ha":945,"x_min":0,"x_max":0,"o":"m 183 0 l 183 818 l 188 818 l 764 0 l 853 0 l 853 979 l 762 979 l 762 161 l 757 161 l 183 979 l 92 979 l 92 0 z m 679 -143 l 265 -143 l 265 -205 l 679 -205 z "},"Ņ":{"ha":945,"x_min":0,"x_max":0,"o":"m 183 0 l 183 818 l 188 818 l 764 0 l 853 0 l 853 979 l 762 979 l 762 161 l 757 161 l 183 979 l 92 979 l 92 0 z m 444 -327 l 530 -89 l 448 -89 l 376 -327 z "},"O":{"ha":994,"x_min":0,"x_max":0,"o":"m 496 994 b 52 489 224 994 52 799 b 496 -16 52 179 224 -16 b 941 489 770 -16 941 179 b 496 994 941 799 769 994 z m 496 908 b 846 489 711 908 846 746 b 496 71 846 233 711 71 b 147 489 282 71 147 233 b 496 908 147 746 282 908 z "},"Ö":{"ha":994,"x_min":0,"x_max":0,"o":"m 496 994 b 52 489 224 994 52 799 b 496 -16 52 179 224 -16 b 941 489 770 -16 941 179 b 496 994 941 799 769 994 z m 496 908 b 846 489 711 908 846 746 b 496 71 846 233 711 71 b 147 489 282 71 147 233 b 496 908 147 746 282 908 z m 381 1077 b 443 1139 415 1077 443 1105 b 381 1201 443 1173 415 1201 b 319 1139 347 1201 319 1173 b 381 1077 319 1105 347 1077 z m 612 1077 b 674 1139 646 1077 674 1105 b 612 1201 674 1173 646 1201 b 550 1139 578 1201 550 1173 b 612 1077 550 1105 578 1077 z "},"Ø":{"ha":994,"x_min":0,"x_max":0,"o":"m 770 771 b 846 489 819 700 846 604 b 496 71 846 233 711 71 b 284 141 412 71 340 96 z m 237 189 b 147 489 179 261 147 363 b 496 908 147 746 282 908 b 728 821 590 908 669 877 z m 924 971 l 872 1008 l 784 895 b 496 994 710 959 612 994 b 52 489 224 994 52 799 b 178 113 52 330 98 201 l 89 -3 l 142 -43 l 228 68 b 496 -16 299 14 390 -16 b 941 489 770 -16 941 179 b 829 848 941 638 901 761 z "},"Õ":{"ha":994,"x_min":0,"x_max":0,"o":"m 496 994 b 52 489 224 994 52 799 b 496 -16 52 179 224 -16 b 941 489 770 -16 941 179 b 496 994 941 799 769 994 z m 496 908 b 846 489 711 908 846 746 b 496 71 846 233 711 71 b 147 489 282 71 147 233 b 496 908 147 746 282 908 z m 587 1066 b 704 1227 658 1066 704 1128 l 640 1227 b 587 1127 640 1163 622 1127 b 407 1234 530 1127 500 1234 b 289 1073 334 1234 289 1174 l 353 1073 b 406 1173 351 1136 370 1173 b 587 1066 466 1173 497 1066 z "},"Ó":{"ha":994,"x_min":0,"x_max":0,"o":"m 496 994 b 52 489 224 994 52 799 b 496 -16 52 179 224 -16 b 941 489 770 -16 941 179 b 496 994 941 799 769 994 z m 496 908 b 846 489 711 908 846 746 b 496 71 846 233 711 71 b 147 489 282 71 147 233 b 496 908 147 746 282 908 z m 541 1057 l 727 1252 l 625 1252 l 459 1057 z "},"Ô":{"ha":994,"x_min":0,"x_max":0,"o":"m 496 994 b 52 489 224 994 52 799 b 496 -16 52 179 224 -16 b 941 489 770 -16 941 179 b 496 994 941 799 769 994 z m 496 908 b 846 489 711 908 846 746 b 496 71 846 233 711 71 b 147 489 282 71 147 233 b 496 908 147 746 282 908 z m 461 1247 l 273 1047 l 361 1047 l 495 1190 l 498 1190 l 631 1047 l 720 1047 l 532 1247 z "},"Ò":{"ha":994,"x_min":0,"x_max":0,"o":"m 496 994 b 52 489 224 994 52 799 b 496 -16 52 179 224 -16 b 941 489 770 -16 941 179 b 496 994 941 799 769 994 z m 496 908 b 846 489 711 908 846 746 b 496 71 846 233 711 71 b 147 489 282 71 147 233 b 496 908 147 746 282 908 z m 452 1057 l 534 1057 l 368 1252 l 266 1252 z "},"Ổ":{"ha":994,"x_min":0,"x_max":0,"o":"m 496 994 b 52 489 224 994 52 799 b 496 -16 52 179 224 -16 b 941 489 770 -16 941 179 b 496 994 941 799 769 994 z m 496 908 b 846 489 711 908 846 746 b 496 71 846 233 711 71 b 147 489 282 71 147 233 b 496 908 147 746 282 908 z m 457 1211 l 269 1047 l 363 1047 l 495 1162 l 498 1162 l 630 1047 l 724 1047 l 536 1211 z m 581 1307 b 640 1320 594 1315 618 1320 b 696 1274 673 1320 696 1301 b 644 1213 696 1248 675 1225 l 685 1178 b 757 1278 729 1194 757 1234 b 650 1371 757 1333 713 1371 b 581 1355 625 1371 598 1364 z "},"Ồ":{"ha":994,"x_min":0,"x_max":0,"o":"m 496 994 b 52 489 224 994 52 799 b 496 -16 52 179 224 -16 b 941 489 770 -16 941 179 b 496 994 941 799 769 994 z m 496 908 b 846 489 711 908 846 746 b 496 71 846 233 711 71 b 147 489 282 71 147 233 b 496 908 147 746 282 908 z m 457 1211 l 269 1047 l 363 1047 l 495 1162 l 498 1162 l 630 1047 l 724 1047 l 536 1211 z m 739 1224 l 615 1367 l 524 1367 l 661 1224 z "},"Ọ":{"ha":994,"x_min":0,"x_max":0,"o":"m 496 994 b 52 489 224 994 52 799 b 496 -16 52 179 224 -16 b 941 489 770 -16 941 179 b 496 994 941 799 769 994 z m 496 908 b 846 489 711 908 846 746 b 496 71 846 233 711 71 b 147 489 282 71 147 233 b 496 908 147 746 282 908 z m 496 -237 b 566 -168 534 -237 566 -205 b 496 -98 566 -130 534 -98 b 427 -168 458 -98 427 -130 b 496 -237 427 -205 458 -237 z "},"Ȍ":{"ha":994,"x_min":0,"x_max":0,"o":"m 496 994 b 52 489 224 994 52 799 b 496 -16 52 179 224 -16 b 941 489 770 -16 941 179 b 496 994 941 799 769 994 z m 496 908 b 846 489 711 908 846 746 b 496 71 846 233 711 71 b 147 489 282 71 147 233 b 496 908 147 746 282 908 z m 548 1057 l 631 1057 l 465 1252 l 363 1252 z m 346 1057 l 429 1057 l 262 1252 l 160 1252 z "},"Ṍ":{"ha":994,"x_min":0,"x_max":0,"o":"m 496 994 b 52 489 224 994 52 799 b 496 -16 52 179 224 -16 b 941 489 770 -16 941 179 b 496 994 941 799 769 994 z m 496 908 b 846 489 711 908 846 746 b 496 71 846 233 711 71 b 147 489 282 71 147 233 b 496 908 147 746 282 908 z m 581 1048 b 692 1195 648 1048 692 1107 l 632 1195 b 581 1107 632 1141 614 1107 b 414 1208 524 1107 498 1208 b 300 1061 344 1208 300 1152 l 361 1061 b 413 1149 359 1114 378 1149 b 581 1048 469 1149 495 1048 z m 469 1242 l 548 1242 l 671 1367 l 581 1367 z "},"Ṓ":{"ha":994,"x_min":0,"x_max":0,"o":"m 496 994 b 52 489 224 994 52 799 b 496 -16 52 179 224 -16 b 941 489 770 -16 941 179 b 496 994 941 799 769 994 z m 496 908 b 846 489 711 908 846 746 b 496 71 846 233 711 71 b 147 489 282 71 147 233 b 496 908 147 746 282 908 z m 703 1084 l 703 1147 l 290 1147 l 290 1084 z m 456 1224 l 536 1224 l 671 1367 l 581 1367 z "},"Ỗ":{"ha":994,"x_min":0,"x_max":0,"o":"m 496 994 b 52 489 224 994 52 799 b 496 -16 52 179 224 -16 b 941 489 770 -16 941 179 b 496 994 941 799 769 994 z m 496 908 b 846 489 711 908 846 746 b 496 71 846 233 711 71 b 147 489 282 71 147 233 b 496 908 147 746 282 908 z m 577 1242 b 695 1374 648 1242 695 1299 l 632 1374 b 576 1299 629 1328 608 1299 b 416 1389 523 1299 505 1389 b 298 1257 341 1389 298 1333 l 361 1257 b 417 1334 363 1303 382 1334 b 577 1242 470 1334 488 1242 z m 457 1206 l 269 1047 l 363 1047 l 495 1158 l 498 1158 l 630 1047 l 724 1047 l 536 1206 z "},"Ȱ":{"ha":994,"x_min":0,"x_max":0,"o":"m 496 994 b 52 489 224 994 52 799 b 496 -16 52 179 224 -16 b 941 489 770 -16 941 179 b 496 994 941 799 769 994 z m 496 908 b 846 489 711 908 846 746 b 496 71 846 233 711 71 b 147 489 282 71 147 233 b 496 908 147 746 282 908 z m 496 1063 b 564 1131 534 1063 564 1093 b 496 1196 564 1166 534 1196 b 429 1131 459 1196 429 1166 b 496 1063 429 1093 459 1063 z m 703 1342 l 290 1342 l 290 1280 l 703 1280 z "},"Ṑ":{"ha":994,"x_min":0,"x_max":0,"o":"m 496 994 b 52 489 224 994 52 799 b 496 -16 52 179 224 -16 b 941 489 770 -16 941 179 b 496 994 941 799 769 994 z m 496 908 b 846 489 711 908 846 746 b 496 71 846 233 711 71 b 147 489 282 71 147 233 b 496 908 147 746 282 908 z m 290 1084 l 703 1084 l 703 1147 l 290 1147 z m 539 1224 l 415 1367 l 324 1367 l 460 1224 z "},"Ǒ":{"ha":994,"x_min":0,"x_max":0,"o":"m 496 994 b 52 489 224 994 52 799 b 496 -16 52 179 224 -16 b 941 489 770 -16 941 179 b 496 994 941 799 769 994 z m 496 908 b 846 489 711 908 846 746 b 496 71 846 233 711 71 b 147 489 282 71 147 233 b 496 908 147 746 282 908 z m 461 1052 l 532 1052 l 720 1252 l 631 1252 l 498 1109 l 495 1109 l 361 1252 l 273 1252 z "},"Ǿ":{"ha":994,"x_min":0,"x_max":0,"o":"m 749 1252 l 647 1252 l 481 1057 l 564 1057 z m 770 771 b 846 489 819 700 846 604 b 496 71 846 233 711 71 b 284 141 412 71 340 96 z m 237 189 b 147 489 179 261 147 363 b 496 908 147 746 282 908 b 728 821 590 908 669 877 z m 924 971 l 872 1008 l 784 895 b 496 994 710 959 612 994 b 52 489 224 994 52 799 b 178 113 52 330 98 201 l 89 -3 l 142 -43 l 228 68 b 496 -16 299 14 390 -16 b 941 489 770 -16 941 179 b 829 848 941 638 901 761 z "},"Ő":{"ha":994,"x_min":0,"x_max":0,"o":"m 496 994 b 52 489 224 994 52 799 b 496 -16 52 179 224 -16 b 941 489 770 -16 941 179 b 496 994 941 799 769 994 z m 496 908 b 846 489 711 908 846 746 b 496 71 846 233 711 71 b 147 489 282 71 147 233 b 496 908 147 746 282 908 z m 647 1057 l 833 1252 l 730 1252 l 564 1057 z m 445 1057 l 630 1252 l 528 1252 l 362 1057 z "},"Ŏ":{"ha":994,"x_min":0,"x_max":0,"o":"m 496 994 b 52 489 224 994 52 799 b 496 -16 52 179 224 -16 b 941 489 770 -16 941 179 b 496 994 941 799 769 994 z m 496 908 b 846 489 711 908 846 746 b 496 71 846 233 711 71 b 147 489 282 71 147 233 b 496 908 147 746 282 908 z m 293 1236 b 496 1048 299 1132 376 1048 b 700 1236 617 1048 694 1132 l 632 1236 b 496 1109 627 1158 573 1109 b 361 1236 420 1109 366 1158 z "},"Ȏ":{"ha":994,"x_min":0,"x_max":0,"o":"m 496 994 b 52 489 224 994 52 799 b 496 -16 52 179 224 -16 b 941 489 770 -16 941 179 b 496 994 941 799 769 994 z m 496 908 b 846 489 711 908 846 746 b 496 71 846 233 711 71 b 147 489 282 71 147 233 b 496 908 147 746 282 908 z m 293 1048 l 361 1048 b 496 1175 366 1126 420 1175 b 632 1048 573 1175 627 1126 l 700 1048 b 496 1236 694 1152 617 1236 b 293 1048 376 1236 299 1152 z "},"Ỏ":{"ha":994,"x_min":0,"x_max":0,"o":"m 496 994 b 52 489 224 994 52 799 b 496 -16 52 179 224 -16 b 941 489 770 -16 941 179 b 496 994 941 799 769 994 z m 496 908 b 846 489 711 908 846 746 b 496 71 846 233 711 71 b 147 489 282 71 147 233 b 496 908 147 746 282 908 z m 393 1186 b 463 1201 411 1196 439 1201 b 526 1150 500 1201 526 1180 b 467 1082 526 1121 503 1095 l 501 1039 b 595 1154 558 1060 595 1104 b 473 1255 595 1216 545 1255 b 393 1239 444 1255 414 1249 z "},"Ȫ":{"ha":994,"x_min":0,"x_max":0,"o":"m 496 994 b 52 489 224 994 52 799 b 496 -16 52 179 224 -16 b 941 489 770 -16 941 179 b 496 994 941 799 769 994 z m 496 908 b 846 489 711 908 846 746 b 496 71 846 233 711 71 b 147 489 282 71 147 233 b 496 908 147 746 282 908 z m 385 1174 b 326 1114 353 1174 326 1147 b 385 1054 326 1080 353 1054 b 444 1114 418 1054 444 1080 b 385 1174 444 1147 418 1174 z m 290 1342 l 290 1280 l 703 1280 l 703 1342 z m 608 1174 b 549 1114 575 1174 549 1147 b 608 1054 549 1080 575 1054 b 667 1114 640 1054 667 1080 b 608 1174 667 1147 640 1174 z "},"Ȭ":{"ha":994,"x_min":0,"x_max":0,"o":"m 496 994 b 52 489 224 994 52 799 b 496 -16 52 179 224 -16 b 941 489 770 -16 941 179 b 496 994 941 799 769 994 z m 496 908 b 846 489 711 908 846 746 b 496 71 846 233 711 71 b 147 489 282 71 147 233 b 496 908 147 746 282 908 z m 581 1048 b 692 1195 648 1048 692 1107 l 632 1195 b 581 1107 632 1141 614 1107 b 414 1208 524 1107 498 1208 b 300 1061 344 1208 300 1152 l 361 1061 b 413 1149 359 1114 378 1149 b 581 1048 469 1149 495 1048 z m 703 1342 l 290 1342 l 290 1280 l 703 1280 z "},"Ȯ":{"ha":994,"x_min":0,"x_max":0,"o":"m 496 994 b 52 489 224 994 52 799 b 496 -16 52 179 224 -16 b 941 489 770 -16 941 179 b 496 994 941 799 769 994 z m 496 908 b 846 489 711 908 846 746 b 496 71 846 233 711 71 b 147 489 282 71 147 233 b 496 908 147 746 282 908 z m 496 1068 b 566 1137 534 1068 566 1099 b 496 1206 566 1175 534 1206 b 427 1137 458 1206 427 1175 b 496 1068 427 1099 458 1068 z "},"Ộ":{"ha":994,"x_min":0,"x_max":0,"o":"m 496 994 b 52 489 224 994 52 799 b 496 -16 52 179 224 -16 b 941 489 770 -16 941 179 b 496 994 941 799 769 994 z m 496 908 b 846 489 711 908 846 746 b 496 71 846 233 711 71 b 147 489 282 71 147 233 b 496 908 147 746 282 908 z m 461 1247 l 273 1047 l 361 1047 l 495 1190 l 498 1190 l 631 1047 l 720 1047 l 532 1247 z m 496 -237 b 566 -168 534 -237 566 -205 b 496 -98 566 -130 534 -98 b 427 -168 458 -98 427 -130 b 496 -237 427 -205 458 -237 z "},"Ố":{"ha":994,"x_min":0,"x_max":0,"o":"m 496 994 b 52 489 224 994 52 799 b 496 -16 52 179 224 -16 b 941 489 770 -16 941 179 b 496 994 941 799 769 994 z m 496 908 b 846 489 711 908 846 746 b 496 71 846 233 711 71 b 147 489 282 71 147 233 b 496 908 147 746 282 908 z m 457 1211 l 269 1047 l 363 1047 l 495 1162 l 498 1162 l 630 1047 l 724 1047 l 536 1211 z m 616 1224 l 694 1224 l 831 1367 l 740 1367 z "},"Ṏ":{"ha":994,"x_min":0,"x_max":0,"o":"m 496 994 b 52 489 224 994 52 799 b 496 -16 52 179 224 -16 b 941 489 770 -16 941 179 b 496 994 941 799 769 994 z m 496 908 b 846 489 711 908 846 746 b 496 71 846 233 711 71 b 147 489 282 71 147 233 b 496 908 147 746 282 908 z m 581 1049 b 692 1194 648 1049 692 1107 l 632 1194 b 581 1107 632 1140 614 1107 b 414 1206 524 1107 498 1206 b 300 1062 344 1206 300 1151 l 361 1062 b 413 1149 359 1115 378 1149 b 581 1049 469 1149 495 1049 z m 385 1379 b 326 1319 353 1379 326 1352 b 385 1259 326 1286 353 1259 b 444 1319 418 1259 444 1286 b 385 1379 444 1352 418 1379 z m 608 1379 b 549 1319 575 1379 549 1352 b 608 1259 549 1286 575 1259 b 667 1319 640 1259 667 1286 b 608 1379 667 1352 640 1379 z "},"Ō":{"ha":994,"x_min":0,"x_max":0,"o":"m 496 994 b 52 489 224 994 52 799 b 496 -16 52 179 224 -16 b 941 489 770 -16 941 179 b 496 994 941 799 769 994 z m 496 908 b 846 489 711 908 846 746 b 496 71 846 233 711 71 b 147 489 282 71 147 233 b 496 908 147 746 282 908 z m 703 1166 l 290 1166 l 290 1104 l 703 1104 z "},"Ǫ":{"ha":994,"x_min":0,"x_max":0,"o":"m 653 -281 b 723 -271 684 -281 711 -277 l 723 -207 b 671 -213 709 -210 690 -213 b 583 -141 622 -213 583 -187 b 720 24 583 -89 633 -43 b 941 489 868 142 941 289 b 496 994 941 799 769 994 b 52 489 224 994 52 799 b 496 -16 52 179 224 -16 b 604 1 533 -16 573 -8 l 604 -2 b 507 -158 541 -46 507 -99 b 653 -281 507 -231 569 -281 z m 496 908 b 846 489 711 908 846 746 b 496 71 846 233 711 71 b 147 489 282 71 147 233 b 496 908 147 746 282 908 z "},"Ǭ":{"ha":993,"x_min":0,"x_max":0,"o":"m 653 -281 b 723 -271 684 -281 711 -277 l 723 -207 b 671 -213 709 -210 690 -213 b 583 -141 622 -213 583 -187 b 720 24 583 -89 633 -43 b 941 489 868 142 941 289 b 496 994 941 799 769 994 b 52 489 224 994 52 799 b 496 -16 52 179 224 -16 b 604 1 533 -16 573 -8 l 604 -2 b 507 -158 541 -46 507 -99 b 653 -281 507 -231 569 -281 z m 496 908 b 846 489 711 908 846 746 b 496 71 846 233 711 71 b 147 489 282 71 147 233 b 496 908 147 746 282 908 z m 703 1166 l 290 1166 l 290 1104 l 703 1104 z "},"Ơ":{"ha":994,"x_min":0,"x_max":0,"o":"m 496 -16 b 941 489 770 -16 941 179 b 762 899 941 668 870 833 l 762 902 l 811 902 b 948 1017 899 902 948 944 l 948 1131 l 865 1131 l 865 1044 b 770 971 865 989 842 971 b 496 994 660 971 593 994 b 52 489 224 994 52 799 b 496 -16 52 179 224 -16 z m 496 71 b 147 489 282 71 147 233 b 496 908 147 746 282 908 b 846 489 711 908 846 747 b 496 71 846 233 711 71 z "},"Ợ":{"ha":994,"x_min":0,"x_max":0,"o":"m 496 -16 b 941 489 770 -16 941 179 b 762 899 941 668 870 833 l 762 902 l 811 902 b 948 1017 899 902 948 944 l 948 1131 l 865 1131 l 865 1044 b 770 971 865 989 842 971 b 496 994 660 971 593 994 b 52 489 224 994 52 799 b 496 -16 52 179 224 -16 z m 496 71 b 147 489 282 71 147 233 b 496 908 147 746 282 908 b 846 489 711 908 846 747 b 496 71 846 233 711 71 z m 496 -237 b 566 -168 534 -237 566 -205 b 496 -98 566 -130 534 -98 b 427 -168 458 -98 427 -130 b 496 -237 427 -205 458 -237 z "},"Ở":{"ha":994,"x_min":0,"x_max":0,"o":"m 496 -16 b 941 489 770 -16 941 179 b 762 899 941 668 870 833 l 762 902 l 811 902 b 948 1017 899 902 948 944 l 948 1131 l 865 1131 l 865 1044 b 770 971 865 989 842 971 b 496 994 660 971 593 994 b 52 489 224 994 52 799 b 496 -16 52 179 224 -16 z m 496 71 b 147 489 282 71 147 233 b 496 908 147 746 282 908 b 846 489 711 908 846 747 b 496 71 846 233 711 71 z m 393 1186 b 463 1201 411 1196 439 1201 b 526 1150 500 1201 526 1180 b 467 1082 526 1121 503 1095 l 501 1039 b 595 1154 558 1060 595 1104 b 473 1255 595 1216 545 1255 b 393 1239 444 1255 414 1249 z "},"Ỡ":{"ha":994,"x_min":0,"x_max":0,"o":"m 496 -16 b 941 489 770 -16 941 179 b 762 899 941 668 870 833 l 762 902 l 811 902 b 948 1017 899 902 948 944 l 948 1131 l 865 1131 l 865 1044 b 770 971 865 989 842 971 b 496 994 660 971 593 994 b 52 489 224 994 52 799 b 496 -16 52 179 224 -16 z m 496 71 b 147 489 282 71 147 233 b 496 908 147 746 282 908 b 846 489 711 908 846 747 b 496 71 846 233 711 71 z m 587 1066 b 704 1227 658 1066 704 1128 l 640 1227 b 587 1127 640 1163 622 1127 b 407 1234 530 1127 500 1234 b 289 1073 334 1234 289 1174 l 353 1073 b 406 1173 351 1136 370 1173 b 587 1066 466 1173 497 1066 z "},"Ờ":{"ha":994,"x_min":0,"x_max":0,"o":"m 496 -16 b 941 489 770 -16 941 179 b 762 899 941 668 870 833 l 762 902 l 811 902 b 948 1017 899 902 948 944 l 948 1131 l 865 1131 l 865 1044 b 770 971 865 989 842 971 b 496 994 660 971 593 994 b 52 489 224 994 52 799 b 496 -16 52 179 224 -16 z m 496 71 b 147 489 282 71 147 233 b 496 908 147 746 282 908 b 846 489 711 908 846 747 b 496 71 846 233 711 71 z m 452 1057 l 534 1057 l 368 1252 l 266 1252 z "},"Ớ":{"ha":994,"x_min":0,"x_max":0,"o":"m 496 -16 b 941 489 770 -16 941 179 b 762 899 941 668 870 833 l 762 902 l 811 902 b 948 1017 899 902 948 944 l 948 1131 l 865 1131 l 865 1044 b 770 971 865 989 842 971 b 496 994 660 971 593 994 b 52 489 224 994 52 799 b 496 -16 52 179 224 -16 z m 496 71 b 147 489 282 71 147 233 b 496 908 147 746 282 908 b 846 489 711 908 846 747 b 496 71 846 233 711 71 z m 541 1057 l 727 1252 l 625 1252 l 459 1057 z "},"P":{"ha":780,"x_min":0,"x_max":0,"o":"m 92 979 l 92 0 l 184 0 l 184 369 l 424 369 b 739 674 610 369 739 492 b 425 979 739 856 612 979 z m 184 896 l 403 896 b 644 674 554 896 644 813 b 403 452 644 535 553 452 l 184 452 z "},"Ṗ":{"ha":780,"x_min":0,"x_max":0,"o":"m 92 979 l 92 0 l 184 0 l 184 369 l 424 369 b 739 674 610 369 739 492 b 425 979 739 856 612 979 z m 184 896 l 403 896 b 644 674 554 896 644 813 b 403 452 644 535 553 452 l 184 452 z m 339 1068 b 408 1137 377 1068 408 1099 b 339 1206 408 1175 377 1206 b 270 1137 301 1206 270 1175 b 339 1068 270 1099 301 1068 z "},"Ṕ":{"ha":780,"x_min":0,"x_max":0,"o":"m 92 979 l 92 0 l 184 0 l 184 369 l 424 369 b 739 674 610 369 739 492 b 425 979 739 856 612 979 z m 184 896 l 403 896 b 644 674 554 896 644 813 b 403 452 644 535 553 452 l 184 452 z m 384 1057 l 570 1252 l 467 1252 l 302 1057 z "},"Q":{"ha":994,"x_min":0,"x_max":0,"o":"m 496 -16 b 679 20 564 -16 625 -3 l 777 -115 l 882 -115 l 754 60 b 941 489 873 145 941 295 b 496 994 941 799 769 994 b 52 489 224 994 52 799 b 496 -16 52 179 223 -16 z m 496 71 b 147 489 283 71 147 233 b 496 908 147 746 282 908 b 846 489 711 908 846 746 b 700 135 846 330 793 205 l 603 268 l 498 268 l 625 94 b 496 71 587 79 543 71 z "},"R":{"ha":809,"x_min":0,"x_max":0,"o":"m 184 896 l 426 896 b 654 690 568 896 654 819 b 429 483 654 559 572 483 l 184 483 z m 184 401 l 429 401 b 444 401 434 401 441 401 l 669 0 l 778 0 l 541 416 b 750 692 671 450 750 554 b 437 979 750 867 628 979 l 92 979 l 92 0 l 184 0 z "},"Ř":{"ha":809,"x_min":0,"x_max":0,"o":"m 184 896 l 426 896 b 654 690 568 896 654 819 b 429 483 654 559 572 483 l 184 483 z m 184 401 l 429 401 b 444 401 434 401 441 401 l 669 0 l 778 0 l 541 416 b 750 692 671 450 750 554 b 437 979 750 867 628 979 l 92 979 l 92 0 l 184 0 z m 316 1052 l 387 1052 l 574 1252 l 486 1252 l 353 1109 l 350 1109 l 216 1252 l 128 1252 z "},"Ṟ":{"ha":809,"x_min":0,"x_max":0,"o":"m 184 896 l 426 896 b 654 690 568 896 654 819 b 429 483 654 559 572 483 l 184 483 z m 184 401 l 429 401 b 444 401 434 401 441 401 l 669 0 l 778 0 l 541 416 b 750 692 671 450 750 554 b 437 979 750 867 628 979 l 92 979 l 92 0 l 184 0 z m 558 -143 l 144 -143 l 144 -205 l 558 -205 z "},"Ṝ":{"ha":809,"x_min":0,"x_max":0,"o":"m 184 896 l 426 896 b 654 690 568 896 654 819 b 429 483 654 559 572 483 l 184 483 z m 184 401 l 429 401 b 444 401 434 401 441 401 l 669 0 l 778 0 l 541 416 b 750 692 671 450 750 554 b 437 979 750 867 628 979 l 92 979 l 92 0 l 184 0 z m 351 -237 b 420 -168 389 -237 420 -205 b 351 -98 420 -130 389 -98 b 282 -168 313 -98 282 -130 b 351 -237 282 -205 313 -237 z m 558 1166 l 144 1166 l 144 1104 l 558 1104 z "},"Ȑ":{"ha":809,"x_min":0,"x_max":0,"o":"m 184 896 l 426 896 b 654 690 568 896 654 819 b 429 483 654 559 572 483 l 184 483 z m 184 401 l 429 401 b 444 401 434 401 441 401 l 669 0 l 778 0 l 541 416 b 750 692 671 450 750 554 b 437 979 750 867 628 979 l 92 979 l 92 0 l 184 0 z m 403 1057 l 486 1057 l 320 1252 l 218 1252 z m 201 1057 l 283 1057 l 117 1252 l 15 1252 z "},"Ȓ":{"ha":809,"x_min":0,"x_max":0,"o":"m 184 896 l 426 896 b 654 690 568 896 654 819 b 429 483 654 559 572 483 l 184 483 z m 184 401 l 429 401 b 444 401 434 401 441 401 l 669 0 l 778 0 l 541 416 b 750 692 671 450 750 554 b 437 979 750 867 628 979 l 92 979 l 92 0 l 184 0 z m 148 1048 l 216 1048 b 351 1175 221 1126 275 1175 b 487 1048 428 1175 481 1126 l 555 1048 b 351 1236 549 1152 472 1236 b 148 1048 231 1236 154 1152 z "},"Ŕ":{"ha":809,"x_min":0,"x_max":0,"o":"m 184 896 l 426 896 b 654 690 568 896 654 819 b 429 483 654 559 572 483 l 184 483 z m 184 401 l 429 401 b 444 401 434 401 441 401 l 669 0 l 778 0 l 541 416 b 750 692 671 450 750 554 b 437 979 750 867 628 979 l 92 979 l 92 0 l 184 0 z m 396 1057 l 582 1252 l 479 1252 l 314 1057 z "},"Ṛ":{"ha":809,"x_min":0,"x_max":0,"o":"m 184 896 l 426 896 b 654 690 568 896 654 819 b 429 483 654 559 572 483 l 184 483 z m 184 401 l 429 401 b 444 401 434 401 441 401 l 669 0 l 778 0 l 541 416 b 750 692 671 450 750 554 b 437 979 750 867 628 979 l 92 979 l 92 0 l 184 0 z m 351 -237 b 420 -168 389 -237 420 -205 b 351 -98 420 -130 389 -98 b 282 -168 313 -98 282 -130 b 351 -237 282 -205 313 -237 z "},"Ṙ":{"ha":809,"x_min":0,"x_max":0,"o":"m 184 896 l 426 896 b 654 690 568 896 654 819 b 429 483 654 559 572 483 l 184 483 z m 184 401 l 429 401 b 444 401 434 401 441 401 l 669 0 l 778 0 l 541 416 b 750 692 671 450 750 554 b 437 979 750 867 628 979 l 92 979 l 92 0 l 184 0 z m 351 1068 b 420 1137 389 1068 420 1099 b 351 1206 420 1175 389 1206 b 282 1137 313 1206 282 1175 b 351 1068 282 1099 313 1068 z "},"Ŗ":{"ha":809,"x_min":0,"x_max":0,"o":"m 184 896 l 426 896 b 654 690 568 896 654 819 b 429 483 654 559 572 483 l 184 483 z m 184 401 l 429 401 b 444 401 434 401 441 401 l 669 0 l 778 0 l 541 416 b 750 692 671 450 750 554 b 437 979 750 867 628 979 l 92 979 l 92 0 l 184 0 z m 323 -327 l 409 -89 l 328 -89 l 256 -327 z "},"S":{"ha":802,"x_min":0,"x_max":0,"o":"m 44 266 b 403 -16 54 98 198 -16 b 758 269 619 -16 758 97 b 478 530 758 405 675 480 l 372 557 b 168 727 229 593 168 643 b 404 910 168 835 268 910 b 649 726 543 910 640 837 l 742 726 b 406 994 736 882 597 994 b 71 724 214 994 71 882 b 333 472 71 595 152 518 l 454 441 b 663 258 600 404 663 350 b 411 68 663 149 557 68 b 137 266 258 68 147 149 z "},"Š":{"ha":802,"x_min":0,"x_max":0,"o":"m 44 266 b 403 -16 54 98 198 -16 b 758 269 619 -16 758 97 b 478 530 758 405 675 480 l 372 557 b 168 727 229 593 168 643 b 404 910 168 835 268 910 b 649 726 543 910 640 837 l 742 726 b 406 994 736 882 597 994 b 71 724 214 994 71 882 b 333 472 71 595 152 518 l 454 441 b 663 258 600 404 663 350 b 411 68 663 149 557 68 b 137 266 258 68 147 149 z m 371 1052 l 441 1052 l 629 1252 l 541 1252 l 408 1109 l 405 1109 l 271 1252 l 183 1252 z "},"Ş":{"ha":802,"x_min":0,"x_max":0,"o":"m 372 557 b 168 727 229 593 168 643 b 404 910 168 835 268 910 b 649 726 543 910 640 837 l 742 726 b 406 994 736 882 597 994 b 71 724 214 994 71 882 b 333 472 71 595 152 518 l 454 441 b 663 258 600 404 663 350 b 411 68 663 149 557 68 b 137 266 258 68 147 149 l 44 266 b 370 -15 54 106 183 -3 l 334 -106 l 334 -144 l 376 -144 b 479 -199 446 -144 479 -161 b 382 -259 479 -235 442 -259 b 299 -250 353 -259 315 -255 l 299 -306 b 394 -316 317 -312 358 -317 b 549 -197 482 -315 549 -272 b 406 -90 549 -130 494 -92 l 439 -14 b 758 269 634 -3 758 106 b 478 530 758 405 675 480 z "},"Ṡ":{"ha":802,"x_min":0,"x_max":0,"o":"m 44 266 b 403 -16 54 98 198 -16 b 758 269 619 -16 758 97 b 478 530 758 405 675 480 l 372 557 b 168 727 229 593 168 643 b 404 910 168 835 268 910 b 649 726 543 910 640 837 l 742 726 b 406 994 736 882 597 994 b 71 724 214 994 71 882 b 333 472 71 595 152 518 l 454 441 b 663 258 600 404 663 350 b 411 68 663 149 557 68 b 137 266 258 68 147 149 z m 406 1068 b 475 1137 444 1068 475 1099 b 406 1206 475 1175 444 1206 b 337 1137 368 1206 337 1175 b 406 1068 337 1099 368 1068 z "},"Ṣ":{"ha":802,"x_min":0,"x_max":0,"o":"m 44 266 b 403 -16 54 98 198 -16 b 758 269 619 -16 758 97 b 478 530 758 405 675 480 l 372 557 b 168 727 229 593 168 643 b 404 910 168 835 268 910 b 649 726 543 910 640 837 l 742 726 b 406 994 736 882 597 994 b 71 724 214 994 71 882 b 333 472 71 595 152 518 l 454 441 b 663 258 600 404 663 350 b 411 68 663 149 557 68 b 137 266 258 68 147 149 z m 403 -237 b 472 -168 441 -237 472 -205 b 403 -98 472 -130 441 -98 b 334 -168 365 -98 334 -130 b 403 -237 334 -205 365 -237 z "},"Ș":{"ha":802,"x_min":0,"x_max":0,"o":"m 44 266 b 403 -16 54 98 198 -16 b 758 269 619 -16 758 97 b 478 530 758 405 675 480 l 372 557 b 168 727 229 593 168 643 b 404 910 168 835 268 910 b 649 726 543 910 640 837 l 742 726 b 406 994 736 882 597 994 b 71 724 214 994 71 882 b 333 472 71 595 152 518 l 454 441 b 663 258 600 404 663 350 b 411 68 663 149 557 68 b 137 266 258 68 147 149 z m 374 -327 l 460 -89 l 379 -89 l 307 -327 z "},"Ṩ":{"ha":802,"x_min":0,"x_max":0,"o":"m 44 266 b 403 -16 54 98 198 -16 b 758 269 619 -16 758 97 b 478 530 758 405 675 480 l 372 557 b 168 727 229 593 168 643 b 404 910 168 835 268 910 b 649 726 543 910 640 837 l 742 726 b 406 994 736 882 597 994 b 71 724 214 994 71 882 b 333 472 71 595 152 518 l 454 441 b 663 258 600 404 663 350 b 411 68 663 149 557 68 b 137 266 258 68 147 149 z m 403 -237 b 472 -168 441 -237 472 -205 b 403 -98 472 -130 441 -98 b 334 -168 365 -98 334 -130 b 403 -237 334 -205 365 -237 z m 406 1068 b 475 1137 444 1068 475 1099 b 406 1206 475 1175 444 1206 b 337 1137 368 1206 337 1175 b 406 1068 337 1099 368 1068 z "},"Ṧ":{"ha":802,"x_min":0,"x_max":0,"o":"m 44 266 b 403 -16 54 98 198 -16 b 758 269 619 -16 758 97 b 478 530 758 405 675 480 l 372 557 b 168 727 229 593 168 643 b 404 910 168 835 268 910 b 649 726 543 910 640 837 l 742 726 b 406 994 736 882 597 994 b 71 724 214 994 71 882 b 333 472 71 595 152 518 l 454 441 b 663 258 600 404 663 350 b 411 68 663 149 557 68 b 137 266 258 68 147 149 z m 367 1047 l 446 1047 l 633 1211 l 540 1211 l 408 1096 l 405 1096 l 273 1211 l 179 1211 z m 406 1243 b 470 1308 441 1243 470 1272 b 406 1371 470 1343 441 1371 b 342 1308 371 1371 342 1343 b 406 1243 342 1272 371 1243 z "},"Ŝ":{"ha":802,"x_min":0,"x_max":0,"o":"m 44 266 b 403 -16 54 98 198 -16 b 758 269 619 -16 758 97 b 478 530 758 405 675 480 l 372 557 b 168 727 229 593 168 643 b 404 910 168 835 268 910 b 649 726 543 910 640 837 l 742 726 b 406 994 736 882 597 994 b 71 724 214 994 71 882 b 333 472 71 595 152 518 l 454 441 b 663 258 600 404 663 350 b 411 68 663 149 557 68 b 137 266 258 68 147 149 z m 371 1247 l 183 1047 l 271 1047 l 405 1190 l 408 1190 l 541 1047 l 629 1047 l 441 1247 z "},"Ṥ":{"ha":802,"x_min":0,"x_max":0,"o":"m 44 266 b 403 -16 54 98 198 -16 b 758 269 619 -16 758 97 b 478 530 758 405 675 480 l 372 557 b 168 727 229 593 168 643 b 404 910 168 835 268 910 b 649 726 543 910 640 837 l 742 726 b 406 994 736 882 597 994 b 71 724 214 994 71 882 b 333 472 71 595 152 518 l 454 441 b 663 258 600 404 663 350 b 411 68 663 149 557 68 b 137 266 258 68 147 149 z m 505 1057 l 690 1252 l 588 1252 l 422 1057 z m 298 1091 b 368 1160 336 1091 368 1122 b 298 1230 368 1198 336 1230 b 229 1160 260 1230 229 1198 b 298 1091 229 1122 260 1091 z "},"Ś":{"ha":802,"x_min":0,"x_max":0,"o":"m 44 266 b 403 -16 54 98 198 -16 b 758 269 619 -16 758 97 b 478 530 758 405 675 480 l 372 557 b 168 727 229 593 168 643 b 404 910 168 835 268 910 b 649 726 543 910 640 837 l 742 726 b 406 994 736 882 597 994 b 71 724 214 994 71 882 b 333 472 71 595 152 518 l 454 441 b 663 258 600 404 663 350 b 411 68 663 149 557 68 b 137 266 258 68 147 149 z m 451 1057 l 637 1252 l 534 1252 l 369 1057 z "},"ẞ":{"ha":1603,"x_min":0,"x_max":0,"o":"m 44 266 b 403 -16 54 98 198 -16 b 758 269 619 -16 758 97 b 478 530 758 405 675 480 l 372 557 b 168 727 229 593 168 643 b 404 910 168 835 268 910 b 649 726 543 910 640 837 l 742 726 b 406 994 736 882 597 994 b 71 724 214 994 71 882 b 333 472 71 595 152 518 l 454 441 b 663 258 600 404 663 350 b 411 68 663 149 557 68 b 137 266 258 68 147 149 z m 846 266 b 1204 -16 856 98 1000 -16 b 1559 269 1421 -16 1559 97 b 1280 530 1559 405 1476 480 l 1174 557 b 969 727 1030 593 969 643 b 1205 910 969 835 1069 910 b 1451 726 1344 910 1442 837 l 1544 726 b 1208 994 1538 882 1398 994 b 873 724 1015 994 873 882 b 1135 472 873 595 954 518 l 1256 441 b 1464 258 1401 404 1464 350 b 1213 68 1464 149 1359 68 b 939 266 1059 68 949 149 z "},"T":{"ha":790,"x_min":0,"x_max":0,"o":"m 441 0 l 441 895 l 765 895 l 765 979 l 26 979 l 26 895 l 349 895 l 349 0 z "},"Ṱ":{"ha":790,"x_min":0,"x_max":0,"o":"m 441 0 l 441 895 l 765 895 l 765 979 l 26 979 l 26 895 l 349 895 l 349 0 z m 360 -89 l 172 -289 l 260 -289 l 394 -146 l 397 -146 l 530 -289 l 618 -289 l 431 -89 z "},"Ṭ":{"ha":790,"x_min":0,"x_max":0,"o":"m 441 0 l 441 895 l 765 895 l 765 979 l 26 979 l 26 895 l 349 895 l 349 0 z m 395 -237 b 465 -168 433 -237 465 -205 b 395 -98 465 -130 433 -98 b 326 -168 357 -98 326 -130 b 395 -237 326 -205 357 -237 z "},"Ț":{"ha":790,"x_min":0,"x_max":0,"o":"m 441 0 l 441 895 l 765 895 l 765 979 l 26 979 l 26 895 l 349 895 l 349 0 z m 353 -327 l 439 -89 l 358 -89 l 286 -327 z "},"Ṫ":{"ha":790,"x_min":0,"x_max":0,"o":"m 441 0 l 441 895 l 765 895 l 765 979 l 26 979 l 26 895 l 349 895 l 349 0 z m 395 1068 b 465 1137 433 1068 465 1099 b 395 1206 465 1175 433 1206 b 326 1137 357 1206 326 1175 b 395 1068 326 1099 357 1068 z "},"Ţ":{"ha":790,"x_min":0,"x_max":0,"o":"m 765 895 l 765 979 l 26 979 l 26 895 l 349 895 l 349 0 l 374 0 l 331 -106 l 331 -144 l 373 -144 b 476 -199 443 -144 476 -161 b 380 -259 476 -235 439 -259 b 296 -250 351 -259 313 -255 l 296 -306 b 391 -316 314 -312 355 -317 b 547 -197 479 -315 547 -272 b 403 -90 547 -130 491 -92 l 442 0 l 442 5 l 441 5 l 441 895 z "},"Ṯ":{"ha":790,"x_min":0,"x_max":0,"o":"m 441 0 l 441 895 l 765 895 l 765 979 l 26 979 l 26 895 l 349 895 l 349 0 z m 602 -143 l 189 -143 l 189 -205 l 602 -205 z "},"Ť":{"ha":790,"x_min":0,"x_max":0,"o":"m 441 0 l 441 895 l 765 895 l 765 979 l 26 979 l 26 895 l 349 895 l 349 0 z m 360 1052 l 431 1052 l 618 1252 l 530 1252 l 397 1109 l 394 1109 l 260 1252 l 172 1252 z "},"Ŧ":{"ha":790,"x_min":0,"x_max":0,"o":"m 765 895 l 765 979 l 26 979 l 26 895 l 349 895 l 349 534 l 143 534 l 143 460 l 349 460 l 349 0 l 441 0 l 441 460 l 647 460 l 647 534 l 441 534 l 441 895 z "},"U":{"ha":940,"x_min":0,"x_max":0,"o":"m 184 979 l 92 979 l 92 342 b 470 -16 92 131 235 -16 b 849 342 705 -16 849 131 l 849 979 l 756 979 l 756 347 b 470 71 756 183 650 71 b 184 347 291 71 184 183 z "},"Ù":{"ha":940,"x_min":0,"x_max":0,"o":"m 184 979 l 92 979 l 92 342 b 470 -16 92 131 235 -16 b 849 342 705 -16 849 131 l 849 979 l 756 979 l 756 347 b 470 71 756 183 650 71 b 184 347 291 71 184 183 z m 425 1057 l 507 1057 l 342 1252 l 239 1252 z "},"Ȕ":{"ha":940,"x_min":0,"x_max":0,"o":"m 184 979 l 92 979 l 92 342 b 470 -16 92 131 235 -16 b 849 342 705 -16 849 131 l 849 979 l 756 979 l 756 347 b 470 71 756 183 650 71 b 184 347 291 71 184 183 z m 522 1057 l 604 1057 l 439 1252 l 336 1252 z m 319 1057 l 402 1057 l 236 1252 l 134 1252 z "},"Ú":{"ha":940,"x_min":0,"x_max":0,"o":"m 184 979 l 92 979 l 92 342 b 470 -16 92 131 235 -16 b 849 342 705 -16 849 131 l 849 979 l 756 979 l 756 347 b 470 71 756 183 650 71 b 184 347 291 71 184 183 z m 515 1057 l 701 1252 l 598 1252 l 433 1057 z "},"Ű":{"ha":940,"x_min":0,"x_max":0,"o":"m 184 979 l 92 979 l 92 342 b 470 -16 92 131 235 -16 b 849 342 705 -16 849 131 l 849 979 l 756 979 l 756 347 b 470 71 756 183 650 71 b 184 347 291 71 184 183 z m 621 1057 l 806 1252 l 704 1252 l 538 1057 z m 418 1057 l 604 1252 l 501 1252 l 336 1057 z "},"Û":{"ha":940,"x_min":0,"x_max":0,"o":"m 184 979 l 92 979 l 92 342 b 470 -16 92 131 235 -16 b 849 342 705 -16 849 131 l 849 979 l 756 979 l 756 347 b 470 71 756 183 650 71 b 184 347 291 71 184 183 z m 435 1247 l 247 1047 l 335 1047 l 469 1190 l 471 1190 l 605 1047 l 693 1047 l 505 1247 z "},"Ǔ":{"ha":940,"x_min":0,"x_max":0,"o":"m 184 979 l 92 979 l 92 342 b 470 -16 92 131 235 -16 b 849 342 705 -16 849 131 l 849 979 l 756 979 l 756 347 b 470 71 756 183 650 71 b 184 347 291 71 184 183 z m 435 1052 l 505 1052 l 693 1252 l 605 1252 l 471 1109 l 469 1109 l 335 1252 l 247 1252 z "},"Ṷ":{"ha":940,"x_min":0,"x_max":0,"o":"m 184 979 l 92 979 l 92 342 b 470 -16 92 131 235 -16 b 849 342 705 -16 849 131 l 849 979 l 756 979 l 756 347 b 470 71 756 183 650 71 b 184 347 291 71 184 183 z m 435 -89 l 247 -289 l 335 -289 l 469 -146 l 471 -146 l 605 -289 l 693 -289 l 505 -89 z "},"Ü":{"ha":940,"x_min":0,"x_max":0,"o":"m 184 979 l 92 979 l 92 342 b 470 -16 92 131 235 -16 b 849 342 705 -16 849 131 l 849 979 l 756 979 l 756 347 b 470 71 756 183 650 71 b 184 347 291 71 184 183 z m 355 1077 b 416 1139 389 1077 416 1105 b 355 1201 416 1173 389 1201 b 292 1139 321 1201 292 1173 b 355 1077 292 1105 321 1077 z m 585 1077 b 648 1139 619 1077 648 1105 b 585 1201 648 1173 619 1201 b 524 1139 551 1201 524 1173 b 585 1077 524 1105 551 1077 z "},"Ǜ":{"ha":940,"x_min":0,"x_max":0,"o":"m 184 979 l 92 979 l 92 342 b 470 -16 92 131 235 -16 b 849 342 705 -16 849 131 l 849 979 l 756 979 l 756 347 b 470 71 756 183 650 71 b 184 347 291 71 184 183 z m 513 1224 l 389 1367 l 298 1367 l 433 1224 z m 359 1054 b 418 1114 391 1054 418 1080 b 359 1174 418 1147 391 1174 b 299 1114 326 1174 299 1147 b 359 1054 299 1080 326 1054 z m 581 1054 b 641 1114 614 1054 641 1080 b 581 1174 641 1147 614 1174 b 522 1114 549 1174 522 1147 b 581 1054 522 1080 549 1054 z "},"Ǘ":{"ha":940,"x_min":0,"x_max":0,"o":"m 184 979 l 92 979 l 92 342 b 470 -16 92 131 235 -16 b 849 342 705 -16 849 131 l 849 979 l 756 979 l 756 347 b 470 71 756 183 650 71 b 184 347 291 71 184 183 z m 422 1224 l 502 1224 l 637 1367 l 547 1367 z m 359 1054 b 418 1114 391 1054 418 1080 b 359 1174 418 1147 391 1174 b 299 1114 326 1174 299 1147 b 359 1054 299 1080 326 1054 z m 581 1054 b 641 1114 614 1054 641 1080 b 581 1174 641 1147 614 1174 b 522 1114 549 1174 522 1147 b 581 1054 522 1080 549 1054 z "},"Ǖ":{"ha":940,"x_min":0,"x_max":0,"o":"m 184 979 l 92 979 l 92 342 b 470 -16 92 131 235 -16 b 849 342 705 -16 849 131 l 849 979 l 756 979 l 756 347 b 470 71 756 183 650 71 b 184 347 291 71 184 183 z m 359 1174 b 299 1114 326 1174 299 1147 b 359 1054 299 1080 326 1054 b 418 1114 391 1054 418 1080 b 359 1174 418 1147 391 1174 z m 263 1342 l 263 1280 l 677 1280 l 677 1342 z m 581 1174 b 522 1114 549 1174 522 1147 b 581 1054 522 1080 549 1054 b 641 1114 614 1054 641 1080 b 581 1174 641 1147 614 1174 z "},"Ǚ":{"ha":940,"x_min":0,"x_max":0,"o":"m 184 979 l 92 979 l 92 342 b 470 -16 92 131 235 -16 b 849 342 705 -16 849 131 l 849 979 l 756 979 l 756 347 b 470 71 756 183 650 71 b 184 347 291 71 184 183 z m 431 1217 l 509 1217 l 689 1369 l 595 1369 l 471 1265 l 469 1265 l 345 1369 l 251 1369 z m 359 1174 b 299 1114 326 1174 299 1147 b 359 1054 299 1080 326 1054 b 418 1114 391 1054 418 1080 b 359 1174 418 1147 391 1174 z m 581 1174 b 522 1114 549 1174 522 1147 b 581 1054 522 1080 549 1054 b 641 1114 614 1054 641 1080 b 581 1174 641 1147 614 1174 z "},"Ṳ":{"ha":940,"x_min":0,"x_max":0,"o":"m 184 979 l 92 979 l 92 342 b 470 -16 92 131 235 -16 b 849 342 705 -16 849 131 l 849 979 l 756 979 l 756 347 b 470 71 756 183 650 71 b 184 347 291 71 184 183 z m 355 -209 b 416 -146 389 -209 416 -181 b 355 -85 416 -113 389 -85 b 292 -146 321 -85 292 -113 b 355 -209 292 -181 321 -209 z m 585 -209 b 648 -146 619 -209 648 -181 b 585 -85 648 -113 619 -85 b 524 -146 551 -85 524 -113 b 585 -209 524 -181 551 -209 z "},"Ṵ":{"ha":940,"x_min":0,"x_max":0,"o":"m 184 979 l 92 979 l 92 342 b 470 -16 92 131 235 -16 b 849 342 705 -16 849 131 l 849 979 l 756 979 l 756 347 b 470 71 756 183 650 71 b 184 347 291 71 184 183 z m 560 -234 b 677 -73 631 -234 677 -172 l 614 -73 b 561 -173 614 -137 595 -173 b 380 -66 503 -173 474 -66 b 262 -227 307 -66 262 -126 l 326 -227 b 380 -127 324 -164 343 -127 b 560 -234 439 -127 471 -234 z "},"Ủ":{"ha":940,"x_min":0,"x_max":0,"o":"m 184 979 l 92 979 l 92 342 b 470 -16 92 131 235 -16 b 849 342 705 -16 849 131 l 849 979 l 756 979 l 756 347 b 470 71 756 183 650 71 b 184 347 291 71 184 183 z m 367 1186 b 437 1201 385 1196 412 1201 b 500 1150 473 1201 500 1180 b 441 1082 500 1121 477 1095 l 475 1039 b 568 1154 532 1060 568 1104 b 447 1255 568 1216 519 1255 b 367 1239 417 1255 387 1249 z "},"Ŭ":{"ha":940,"x_min":0,"x_max":0,"o":"m 184 979 l 92 979 l 92 342 b 470 -16 92 131 235 -16 b 849 342 705 -16 849 131 l 849 979 l 756 979 l 756 347 b 470 71 756 183 650 71 b 184 347 291 71 184 183 z m 267 1236 b 470 1048 273 1132 349 1048 b 673 1236 591 1048 667 1132 l 606 1236 b 470 1109 600 1158 547 1109 b 334 1236 393 1109 340 1158 z "},"Ȗ":{"ha":940,"x_min":0,"x_max":0,"o":"m 184 979 l 92 979 l 92 342 b 470 -16 92 131 235 -16 b 849 342 705 -16 849 131 l 849 979 l 756 979 l 756 347 b 470 71 756 183 650 71 b 184 347 291 71 184 183 z m 267 1048 l 334 1048 b 470 1175 340 1126 393 1175 b 606 1048 547 1175 600 1126 l 673 1048 b 470 1236 667 1152 591 1236 b 267 1048 349 1236 273 1152 z "},"Ṹ":{"ha":940,"x_min":0,"x_max":0,"o":"m 184 979 l 92 979 l 92 342 b 470 -16 92 131 235 -16 b 849 342 705 -16 849 131 l 849 979 l 756 979 l 756 347 b 470 71 756 183 650 71 b 184 347 291 71 184 183 z m 554 1048 b 666 1195 621 1048 666 1107 l 606 1195 b 554 1107 606 1141 588 1107 b 387 1208 497 1107 471 1208 b 274 1061 317 1208 274 1152 l 334 1061 b 387 1149 332 1114 352 1149 b 554 1048 443 1149 469 1048 z m 443 1242 l 522 1242 l 645 1367 l 554 1367 z "},"Ụ":{"ha":940,"x_min":0,"x_max":0,"o":"m 184 979 l 92 979 l 92 342 b 470 -16 92 131 235 -16 b 849 342 705 -16 849 131 l 849 979 l 756 979 l 756 347 b 470 71 756 183 650 71 b 184 347 291 71 184 183 z m 470 -237 b 539 -168 508 -237 539 -205 b 470 -98 539 -130 508 -98 b 401 -168 432 -98 401 -130 b 470 -237 401 -205 432 -237 z "},"Ũ":{"ha":940,"x_min":0,"x_max":0,"o":"m 184 979 l 92 979 l 92 342 b 470 -16 92 131 235 -16 b 849 342 705 -16 849 131 l 849 979 l 756 979 l 756 347 b 470 71 756 183 650 71 b 184 347 291 71 184 183 z m 560 1066 b 677 1227 631 1066 677 1128 l 614 1227 b 561 1127 614 1163 595 1127 b 380 1234 503 1127 474 1234 b 262 1073 307 1234 262 1174 l 326 1073 b 380 1173 324 1136 343 1173 b 560 1066 439 1173 471 1066 z "},"Ū":{"ha":940,"x_min":0,"x_max":0,"o":"m 184 979 l 92 979 l 92 342 b 470 -16 92 131 235 -16 b 849 342 705 -16 849 131 l 849 979 l 756 979 l 756 347 b 470 71 756 183 650 71 b 184 347 291 71 184 183 z m 677 1166 l 263 1166 l 263 1104 l 677 1104 z "},"Ṻ":{"ha":940,"x_min":0,"x_max":0,"o":"m 184 979 l 92 979 l 92 342 b 470 -16 92 131 235 -16 b 849 342 705 -16 849 131 l 849 979 l 756 979 l 756 347 b 470 71 756 183 650 71 b 184 347 291 71 184 183 z m 677 1084 l 677 1147 l 263 1147 l 263 1084 z m 359 1236 b 418 1297 391 1236 418 1263 b 359 1356 418 1330 391 1356 b 299 1297 326 1356 299 1330 b 359 1236 299 1263 326 1236 z m 581 1236 b 641 1297 614 1236 641 1263 b 581 1356 641 1330 614 1356 b 522 1297 549 1356 522 1330 b 581 1236 522 1263 549 1236 z "},"Ů":{"ha":940,"x_min":0,"x_max":0,"o":"m 184 979 l 92 979 l 92 342 b 470 -16 92 131 235 -16 b 849 342 705 -16 849 131 l 849 979 l 756 979 l 756 347 b 470 71 756 183 650 71 b 184 347 291 71 184 183 z m 470 1026 b 593 1149 538 1026 593 1082 b 470 1274 593 1217 538 1274 b 347 1149 402 1274 347 1217 b 470 1026 347 1082 402 1026 z m 470 1074 b 395 1149 428 1074 395 1108 b 470 1225 395 1192 428 1225 b 545 1149 512 1225 545 1192 b 470 1074 545 1108 512 1074 z "},"Ų":{"ha":940,"x_min":0,"x_max":0,"o":"m 625 -281 b 694 -271 656 -281 683 -277 l 694 -207 b 642 -213 681 -210 661 -213 b 555 -140 593 -213 555 -186 b 680 22 555 -89 603 -37 b 849 342 792 113 849 208 l 849 979 l 756 979 l 756 347 b 470 71 756 178 644 71 b 184 347 296 71 184 178 l 184 979 l 92 979 l 92 342 b 470 -16 92 125 241 -16 b 576 3 505 -16 542 -8 l 576 1 b 478 -158 513 -46 478 -99 b 625 -281 478 -231 541 -281 z "},"Ư":{"ha":1038,"x_min":0,"x_max":0,"o":"m 470 -16 b 849 342 699 -16 849 125 l 849 911 l 890 911 b 1018 1026 970 911 1018 954 l 1018 1149 l 935 1149 l 935 1042 b 867 979 935 999 913 979 l 756 979 l 756 347 b 470 71 756 180 644 71 b 184 347 297 71 184 180 l 184 979 l 92 979 l 92 342 b 470 -16 92 125 241 -16 z "},"Ừ":{"ha":1038,"x_min":0,"x_max":0,"o":"m 470 -16 b 849 342 699 -16 849 125 l 849 911 l 890 911 b 1018 1026 970 911 1018 954 l 1018 1149 l 935 1149 l 935 1042 b 867 979 935 999 913 979 l 756 979 l 756 347 b 470 71 756 180 644 71 b 184 347 297 71 184 180 l 184 979 l 92 979 l 92 342 b 470 -16 92 125 241 -16 z m 425 1057 l 507 1057 l 342 1252 l 239 1252 z "},"Ứ":{"ha":1038,"x_min":0,"x_max":0,"o":"m 470 -16 b 849 342 699 -16 849 125 l 849 911 l 890 911 b 1018 1026 970 911 1018 954 l 1018 1149 l 935 1149 l 935 1042 b 867 979 935 999 913 979 l 756 979 l 756 347 b 470 71 756 180 644 71 b 184 347 297 71 184 180 l 184 979 l 92 979 l 92 342 b 470 -16 92 125 241 -16 z m 515 1057 l 701 1252 l 598 1252 l 433 1057 z "},"Ự":{"ha":1038,"x_min":0,"x_max":0,"o":"m 470 -16 b 849 342 699 -16 849 125 l 849 911 l 890 911 b 1018 1026 970 911 1018 954 l 1018 1149 l 935 1149 l 935 1042 b 867 979 935 999 913 979 l 756 979 l 756 347 b 470 71 756 180 644 71 b 184 347 297 71 184 180 l 184 979 l 92 979 l 92 342 b 470 -16 92 125 241 -16 z m 470 -237 b 539 -168 508 -237 539 -205 b 470 -98 539 -130 508 -98 b 401 -168 432 -98 401 -130 b 470 -237 401 -205 432 -237 z "},"Ử":{"ha":1038,"x_min":0,"x_max":0,"o":"m 470 -16 b 849 342 699 -16 849 125 l 849 911 l 890 911 b 1018 1026 970 911 1018 954 l 1018 1149 l 935 1149 l 935 1042 b 867 979 935 999 913 979 l 756 979 l 756 347 b 470 71 756 180 644 71 b 184 347 297 71 184 180 l 184 979 l 92 979 l 92 342 b 470 -16 92 125 241 -16 z m 367 1186 b 437 1201 385 1196 412 1201 b 500 1150 473 1201 500 1180 b 441 1082 500 1121 477 1095 l 475 1039 b 568 1154 532 1060 568 1104 b 447 1255 568 1216 519 1255 b 367 1239 417 1255 387 1249 z "},"Ữ":{"ha":1038,"x_min":0,"x_max":0,"o":"m 470 -16 b 849 342 699 -16 849 125 l 849 911 l 890 911 b 1018 1026 970 911 1018 954 l 1018 1149 l 935 1149 l 935 1042 b 867 979 935 999 913 979 l 756 979 l 756 347 b 470 71 756 180 644 71 b 184 347 297 71 184 180 l 184 979 l 92 979 l 92 342 b 470 -16 92 125 241 -16 z m 560 1066 b 677 1227 631 1066 677 1128 l 614 1227 b 561 1127 614 1163 595 1127 b 380 1234 503 1127 474 1234 b 262 1073 307 1234 262 1174 l 326 1073 b 380 1173 324 1136 343 1173 b 560 1066 439 1173 471 1066 z "},"V":{"ha":856,"x_min":0,"x_max":0,"o":"m 474 0 l 840 979 l 743 979 l 430 115 l 426 115 l 114 979 l 16 979 l 382 0 z "},"Ṽ":{"ha":856,"x_min":0,"x_max":0,"o":"m 474 0 l 840 979 l 743 979 l 430 115 l 426 115 l 114 979 l 16 979 l 382 0 z m 518 1066 b 635 1227 589 1066 635 1128 l 572 1227 b 519 1127 572 1163 553 1127 b 338 1234 461 1127 432 1234 b 220 1073 265 1234 220 1174 l 284 1073 b 338 1173 282 1136 301 1173 b 518 1066 397 1173 429 1066 z "},"Ṿ":{"ha":856,"x_min":0,"x_max":0,"o":"m 474 0 l 840 979 l 743 979 l 430 115 l 426 115 l 114 979 l 16 979 l 382 0 z m 428 -237 b 497 -168 466 -237 497 -205 b 428 -98 497 -130 466 -98 b 359 -168 390 -98 359 -130 b 428 -237 359 -205 390 -237 z "},"W":{"ha":1257,"x_min":0,"x_max":0,"o":"m 626 820 l 631 820 l 872 0 l 958 0 l 1227 979 l 1131 979 l 916 142 l 911 142 l 675 979 l 583 979 l 346 142 l 342 142 l 126 979 l 30 979 l 299 0 l 385 0 z "},"Ẁ":{"ha":1257,"x_min":0,"x_max":0,"o":"m 626 820 l 631 820 l 872 0 l 958 0 l 1227 979 l 1131 979 l 916 142 l 911 142 l 675 979 l 583 979 l 346 142 l 342 142 l 126 979 l 30 979 l 299 0 l 385 0 z m 584 1057 l 666 1057 l 500 1252 l 398 1252 z "},"Ẃ":{"ha":1257,"x_min":0,"x_max":0,"o":"m 626 820 l 631 820 l 872 0 l 958 0 l 1227 979 l 1131 979 l 916 142 l 911 142 l 675 979 l 583 979 l 346 142 l 342 142 l 126 979 l 30 979 l 299 0 l 385 0 z m 673 1057 l 859 1252 l 757 1252 l 591 1057 z "},"Ẇ":{"ha":1257,"x_min":0,"x_max":0,"o":"m 626 820 l 631 820 l 872 0 l 958 0 l 1227 979 l 1131 979 l 916 142 l 911 142 l 675 979 l 583 979 l 346 142 l 342 142 l 126 979 l 30 979 l 299 0 l 385 0 z m 629 1068 b 698 1137 667 1068 698 1099 b 629 1206 698 1175 667 1206 b 559 1137 591 1206 559 1175 b 629 1068 559 1099 591 1068 z "},"Ẉ":{"ha":1257,"x_min":0,"x_max":0,"o":"m 626 820 l 631 820 l 872 0 l 958 0 l 1227 979 l 1131 979 l 916 142 l 911 142 l 675 979 l 583 979 l 346 142 l 342 142 l 126 979 l 30 979 l 299 0 l 385 0 z m 629 -237 b 698 -168 667 -237 698 -205 b 629 -98 698 -130 667 -98 b 559 -168 591 -98 559 -130 b 629 -237 559 -205 591 -237 z "},"Ẅ":{"ha":1257,"x_min":0,"x_max":0,"o":"m 626 820 l 631 820 l 872 0 l 958 0 l 1227 979 l 1131 979 l 916 142 l 911 142 l 675 979 l 583 979 l 346 142 l 342 142 l 126 979 l 30 979 l 299 0 l 385 0 z m 513 1077 b 575 1139 547 1077 575 1105 b 513 1201 575 1173 547 1201 b 451 1139 479 1201 451 1173 b 513 1077 451 1105 479 1077 z m 744 1077 b 806 1139 778 1077 806 1105 b 744 1201 806 1173 778 1201 b 682 1139 710 1201 682 1173 b 744 1077 682 1105 710 1077 z "},"Ŵ":{"ha":1257,"x_min":0,"x_max":0,"o":"m 626 820 l 631 820 l 872 0 l 958 0 l 1227 979 l 1131 979 l 916 142 l 911 142 l 675 979 l 583 979 l 346 142 l 342 142 l 126 979 l 30 979 l 299 0 l 385 0 z m 593 1247 l 406 1047 l 494 1047 l 627 1190 l 630 1190 l 764 1047 l 852 1047 l 664 1247 z "},"X":{"ha":857,"x_min":0,"x_max":0,"o":"m 30 0 l 135 0 l 423 414 l 427 414 l 711 0 l 822 0 l 484 486 l 484 489 l 827 979 l 721 979 l 433 563 l 430 563 l 144 979 l 33 979 l 370 493 l 370 490 z "},"Ẋ":{"ha":857,"x_min":0,"x_max":0,"o":"m 30 0 l 135 0 l 423 414 l 427 414 l 711 0 l 822 0 l 484 486 l 484 489 l 827 979 l 721 979 l 433 563 l 430 563 l 144 979 l 33 979 l 370 493 l 370 490 z m 429 1068 b 498 1137 467 1068 498 1099 b 429 1206 498 1175 467 1206 b 359 1137 391 1206 359 1175 b 429 1068 359 1099 391 1068 z "},"Ẍ":{"ha":857,"x_min":0,"x_max":0,"o":"m 30 0 l 135 0 l 423 414 l 427 414 l 711 0 l 822 0 l 484 486 l 484 489 l 827 979 l 721 979 l 433 563 l 430 563 l 144 979 l 33 979 l 370 493 l 370 490 z m 313 1077 b 375 1139 347 1077 375 1105 b 313 1201 375 1173 347 1201 b 251 1139 279 1201 251 1173 b 313 1077 251 1105 279 1077 z m 544 1077 b 606 1139 578 1077 606 1105 b 544 1201 606 1173 578 1201 b 482 1139 510 1201 482 1173 b 544 1077 482 1105 510 1077 z "},"Y":{"ha":827,"x_min":0,"x_max":0,"o":"m 460 0 l 460 423 l 810 979 l 705 979 l 415 514 l 412 514 l 122 979 l 16 979 l 367 423 l 367 0 z "},"Ỳ":{"ha":827,"x_min":0,"x_max":0,"o":"m 460 0 l 460 423 l 810 979 l 705 979 l 415 514 l 412 514 l 122 979 l 16 979 l 367 423 l 367 0 z m 368 1057 l 450 1057 l 285 1252 l 182 1252 z "},"Ý":{"ha":827,"x_min":0,"x_max":0,"o":"m 460 0 l 460 423 l 810 979 l 705 979 l 415 514 l 412 514 l 122 979 l 16 979 l 367 423 l 367 0 z m 458 1057 l 644 1252 l 541 1252 l 376 1057 z "},"Ẏ":{"ha":827,"x_min":0,"x_max":0,"o":"m 460 0 l 460 423 l 810 979 l 705 979 l 415 514 l 412 514 l 122 979 l 16 979 l 367 423 l 367 0 z m 413 1068 b 482 1137 451 1068 482 1099 b 413 1206 482 1175 451 1206 b 344 1137 375 1206 344 1175 b 413 1068 344 1099 375 1068 z "},"Ỵ":{"ha":827,"x_min":0,"x_max":0,"o":"m 460 0 l 460 423 l 810 979 l 705 979 l 415 514 l 412 514 l 122 979 l 16 979 l 367 423 l 367 0 z m 413 -237 b 482 -168 451 -237 482 -205 b 413 -98 482 -130 451 -98 b 344 -168 375 -98 344 -130 b 413 -237 344 -205 375 -237 z "},"Ÿ":{"ha":827,"x_min":0,"x_max":0,"o":"m 460 0 l 460 423 l 810 979 l 705 979 l 415 514 l 412 514 l 122 979 l 16 979 l 367 423 l 367 0 z m 298 1077 b 359 1139 332 1077 359 1105 b 298 1201 359 1173 332 1201 b 235 1139 264 1201 235 1173 b 298 1077 235 1105 264 1077 z m 528 1077 b 591 1139 562 1077 591 1105 b 528 1201 591 1173 562 1201 b 467 1139 494 1201 467 1173 b 528 1077 467 1105 494 1077 z "},"Ỹ":{"ha":827,"x_min":0,"x_max":0,"o":"m 460 0 l 460 423 l 810 979 l 705 979 l 415 514 l 412 514 l 122 979 l 16 979 l 367 423 l 367 0 z m 503 1066 b 621 1227 574 1066 621 1128 l 557 1227 b 504 1127 557 1163 538 1127 b 323 1234 446 1127 417 1234 b 205 1073 250 1234 205 1174 l 269 1073 b 323 1173 267 1136 286 1173 b 503 1066 382 1173 414 1066 z "},"Ŷ":{"ha":827,"x_min":0,"x_max":0,"o":"m 460 0 l 460 423 l 810 979 l 705 979 l 415 514 l 412 514 l 122 979 l 16 979 l 367 423 l 367 0 z m 378 1247 l 190 1047 l 278 1047 l 412 1190 l 414 1190 l 548 1047 l 636 1047 l 448 1247 z "},"Ȳ":{"ha":827,"x_min":0,"x_max":0,"o":"m 460 0 l 460 423 l 810 979 l 705 979 l 415 514 l 412 514 l 122 979 l 16 979 l 367 423 l 367 0 z m 620 1166 l 206 1166 l 206 1104 l 620 1104 z "},"Ỷ":{"ha":827,"x_min":0,"x_max":0,"o":"m 460 0 l 460 423 l 810 979 l 705 979 l 415 514 l 412 514 l 122 979 l 16 979 l 367 423 l 367 0 z m 310 1186 b 380 1201 328 1196 355 1201 b 443 1150 416 1201 443 1180 b 384 1082 443 1121 420 1095 l 418 1039 b 511 1154 475 1060 511 1104 b 390 1255 511 1216 462 1255 b 310 1239 360 1255 330 1249 z "},"Z":{"ha":830,"x_min":0,"x_max":0,"o":"m 59 0 l 772 0 l 772 84 l 178 84 l 178 88 l 764 911 l 764 979 l 78 979 l 78 895 l 646 895 l 646 890 l 59 67 z "},"Ź":{"ha":830,"x_min":0,"x_max":0,"o":"m 59 0 l 772 0 l 772 84 l 178 84 l 178 88 l 764 911 l 764 979 l 78 979 l 78 895 l 646 895 l 646 890 l 59 67 z m 460 1057 l 646 1252 l 543 1252 l 378 1057 z "},"Ž":{"ha":830,"x_min":0,"x_max":0,"o":"m 59 0 l 772 0 l 772 84 l 178 84 l 178 88 l 764 911 l 764 979 l 78 979 l 78 895 l 646 895 l 646 890 l 59 67 z m 380 1052 l 450 1052 l 638 1252 l 550 1252 l 416 1109 l 414 1109 l 280 1252 l 192 1252 z "},"Ẑ":{"ha":830,"x_min":0,"x_max":0,"o":"m 59 0 l 772 0 l 772 84 l 178 84 l 178 88 l 764 911 l 764 979 l 78 979 l 78 895 l 646 895 l 646 890 l 59 67 z m 380 1247 l 192 1047 l 280 1047 l 414 1190 l 416 1190 l 550 1047 l 638 1047 l 450 1247 z "},"Ẕ":{"ha":830,"x_min":0,"x_max":0,"o":"m 59 0 l 772 0 l 772 84 l 178 84 l 178 88 l 764 911 l 764 979 l 78 979 l 78 895 l 646 895 l 646 890 l 59 67 z m 622 -143 l 208 -143 l 208 -205 l 622 -205 z "},"Ẓ":{"ha":830,"x_min":0,"x_max":0,"o":"m 59 0 l 772 0 l 772 84 l 178 84 l 178 88 l 764 911 l 764 979 l 78 979 l 78 895 l 646 895 l 646 890 l 59 67 z m 415 -237 b 484 -168 453 -237 484 -205 b 415 -98 484 -130 453 -98 b 346 -168 377 -98 346 -130 b 415 -237 346 -205 377 -237 z "},"Ż":{"ha":830,"x_min":0,"x_max":0,"o":"m 59 0 l 772 0 l 772 84 l 178 84 l 178 88 l 764 911 l 764 979 l 78 979 l 78 895 l 646 895 l 646 890 l 59 67 z m 415 1068 b 484 1137 453 1068 484 1099 b 415 1206 484 1175 453 1206 b 346 1137 377 1206 346 1175 b 415 1068 346 1099 377 1068 z "},"Æ":{"ha":1316,"x_min":0,"x_max":0,"o":"m 548 900 l 663 900 l 663 380 l 294 380 z m 663 0 l 1232 0 l 1232 84 l 755 84 l 755 455 l 1206 455 l 1206 538 l 755 538 l 755 895 l 1232 895 l 1232 979 l 492 979 l 16 0 l 111 0 l 256 300 l 663 300 z "},"Ǣ":{"ha":1319,"x_min":0,"x_max":0,"o":"m 548 900 l 663 900 l 663 380 l 294 380 z m 663 0 l 1232 0 l 1232 84 l 755 84 l 755 455 l 1206 455 l 1206 538 l 755 538 l 755 895 l 1232 895 l 1232 979 l 492 979 l 16 0 l 111 0 l 256 300 l 663 300 z m 1136 1166 l 722 1166 l 722 1104 l 1136 1104 z "},"Ǽ":{"ha":1319,"x_min":0,"x_max":0,"o":"m 548 900 l 663 900 l 663 380 l 294 380 z m 663 0 l 1232 0 l 1232 84 l 755 84 l 755 455 l 1206 455 l 1206 538 l 755 538 l 755 895 l 1232 895 l 1232 979 l 492 979 l 16 0 l 111 0 l 256 300 l 663 300 z m 855 1057 l 1041 1252 l 939 1252 l 773 1057 z "},"Œ":{"ha":1492,"x_min":0,"x_max":0,"o":"m 501 908 b 854 489 717 908 854 745 b 501 71 854 233 718 71 b 147 489 284 71 147 233 b 501 908 147 746 284 908 z m 856 0 l 1432 0 l 1432 84 l 949 84 l 949 460 l 1406 460 l 1406 543 l 949 543 l 949 895 l 1432 895 l 1432 979 l 856 979 l 856 784 l 856 784 b 501 994 791 918 664 994 b 52 489 225 994 52 800 b 501 -16 52 178 225 -16 b 856 197 663 -16 791 62 l 856 197 z "},"Ð":{"ha":939,"x_min":0,"x_max":0,"o":"m 195 84 l 195 462 l 406 462 l 406 546 l 195 546 l 195 895 l 414 895 b 789 489 654 895 789 749 b 414 84 789 229 654 84 z m 102 979 l 102 546 l 16 546 l 16 462 l 102 462 l 102 0 l 419 0 b 883 490 713 0 883 180 b 419 979 883 799 712 979 z "},"Þ":{"ha":829,"x_min":0,"x_max":0,"o":"m 109 979 l 109 0 l 202 0 l 202 236 l 463 236 b 756 515 625 236 756 339 b 464 793 756 690 625 793 l 202 793 l 202 979 z m 202 709 l 441 709 b 661 515 572 709 661 641 b 441 319 661 388 572 319 l 202 319 z "},"Α":{"ha":856,"x_min":0,"x_max":0,"o":"m 742 0 l 840 0 l 474 979 l 382 979 l 16 0 l 114 0 l 222 300 l 633 300 z m 426 864 l 430 864 l 606 380 l 250 380 z "},"Β":{"ha":817,"x_min":0,"x_max":0,"o":"m 446 0 b 777 269 652 0 777 102 b 547 512 777 404 682 496 l 547 517 b 726 737 651 536 726 629 b 444 979 726 882 612 979 l 92 979 l 92 0 z m 184 897 l 424 897 b 632 727 554 897 632 833 b 397 544 632 612 545 544 l 184 544 z m 184 82 l 184 464 l 420 464 b 682 273 589 464 682 395 b 433 82 682 152 593 82 z "},"Γ":{"ha":706,"x_min":0,"x_max":0,"o":"m 184 0 l 184 895 l 659 895 l 659 979 l 92 979 l 92 0 z "},"Δ":{"ha":870,"x_min":0,"x_max":0,"o":"m 836 0 l 836 66 l 481 979 l 389 979 l 34 66 l 34 0 z m 139 88 l 433 869 l 437 869 l 732 88 l 732 84 l 139 84 z "},"Ε":{"ha":743,"x_min":0,"x_max":0,"o":"m 682 84 l 184 84 l 184 460 l 657 460 l 657 543 l 184 543 l 184 895 l 682 895 l 682 979 l 92 979 l 92 0 l 682 0 z "},"Ζ":{"ha":830,"x_min":0,"x_max":0,"o":"m 59 0 l 772 0 l 772 84 l 178 84 l 178 88 l 764 911 l 764 979 l 78 979 l 78 895 l 646 895 l 646 890 l 59 67 z "},"Η":{"ha":941,"x_min":0,"x_max":0,"o":"m 849 0 l 849 979 l 756 979 l 756 543 l 184 543 l 184 979 l 92 979 l 92 0 l 184 0 l 184 459 l 756 459 l 756 0 z "},"Θ":{"ha":998,"x_min":0,"x_max":0,"o":"m 715 448 l 715 532 l 283 532 l 283 448 z m 499 994 b 52 489 223 994 52 799 b 499 -16 52 179 222 -16 b 946 489 776 -16 946 179 b 499 994 946 799 776 994 z m 499 908 b 851 489 717 908 851 746 b 499 71 851 233 717 71 b 147 489 282 71 147 233 b 499 908 147 746 282 908 z "},"Ι":{"ha":275,"x_min":0,"x_max":0,"o":"m 184 0 l 184 979 l 92 979 l 92 0 z "},"Κ":{"ha":820,"x_min":0,"x_max":0,"o":"m 184 0 l 184 349 l 304 480 l 693 0 l 812 0 l 370 546 l 772 979 l 654 979 l 189 471 l 184 471 l 184 979 l 92 979 l 92 0 z "},"Λ":{"ha":829,"x_min":0,"x_max":0,"o":"m 715 0 l 812 0 l 460 979 l 368 979 l 16 0 l 114 0 l 412 859 l 416 859 z "},"Μ":{"ha":1126,"x_min":0,"x_max":0,"o":"m 1034 0 l 1034 979 l 927 979 l 565 122 l 561 122 l 198 979 l 92 979 l 92 0 l 178 0 l 178 803 l 182 803 l 522 5 l 603 5 l 943 803 l 947 803 l 947 0 z "},"Ν":{"ha":945,"x_min":0,"x_max":0,"o":"m 183 0 l 183 818 l 188 818 l 764 0 l 853 0 l 853 979 l 762 979 l 762 161 l 757 161 l 183 979 l 92 979 l 92 0 z "},"Ξ":{"ha":827,"x_min":0,"x_max":0,"o":"m 60 979 l 60 893 l 767 893 l 767 979 z m 715 458 l 715 543 l 113 543 l 113 458 z m 60 85 l 60 0 l 767 0 l 767 85 z "},"Ο":{"ha":994,"x_min":0,"x_max":0,"o":"m 496 994 b 52 489 224 994 52 799 b 496 -16 52 179 224 -16 b 941 489 770 -16 941 179 b 496 994 941 799 769 994 z m 496 908 b 846 489 711 908 846 746 b 496 71 846 233 711 71 b 147 489 282 71 147 233 b 496 908 147 746 282 908 z "},"Π":{"ha":927,"x_min":0,"x_max":0,"o":"m 836 0 l 836 979 l 92 979 l 92 0 l 184 0 l 184 895 l 743 895 l 743 0 z "},"Ρ":{"ha":780,"x_min":0,"x_max":0,"o":"m 92 979 l 92 0 l 184 0 l 184 369 l 424 369 b 739 674 610 369 739 492 b 425 979 739 856 612 979 z m 184 896 l 403 896 b 644 674 554 896 644 813 b 403 452 644 535 553 452 l 184 452 z "},"Σ":{"ha":812,"x_min":0,"x_max":0,"o":"m 172 88 l 458 499 l 458 503 l 186 890 l 186 895 l 741 895 l 741 979 l 71 979 l 71 905 l 357 495 l 59 67 l 59 0 l 753 0 l 753 84 l 172 84 z "},"Τ":{"ha":790,"x_min":0,"x_max":0,"o":"m 441 0 l 441 895 l 765 895 l 765 979 l 26 979 l 26 895 l 349 895 l 349 0 z "},"Υ":{"ha":827,"x_min":0,"x_max":0,"o":"m 460 0 l 460 423 l 810 979 l 705 979 l 415 514 l 412 514 l 122 979 l 16 979 l 367 423 l 367 0 z "},"Φ":{"ha":1082,"x_min":0,"x_max":0,"o":"m 942 488 b 587 136 942 273 809 141 l 587 840 b 942 488 809 835 942 703 z m 140 488 b 494 840 140 703 273 835 l 494 136 b 140 488 273 141 140 273 z m 587 -39 l 587 53 b 1037 488 865 61 1037 228 b 587 924 1037 749 865 915 l 587 1014 l 494 1014 l 494 924 b 45 488 217 915 45 749 b 494 53 45 228 217 61 l 494 -39 z "},"Χ":{"ha":857,"x_min":0,"x_max":0,"o":"m 30 0 l 135 0 l 423 414 l 427 414 l 711 0 l 822 0 l 484 486 l 484 489 l 827 979 l 721 979 l 433 563 l 430 563 l 144 979 l 33 979 l 370 493 l 370 490 z "},"Ψ":{"ha":1030,"x_min":0,"x_max":0,"o":"m 562 0 l 562 234 b 952 613 803 234 952 378 l 952 979 l 860 979 l 860 616 b 562 319 860 427 754 322 l 562 979 l 469 979 l 469 319 b 170 616 276 322 170 427 l 170 979 l 78 979 l 78 613 b 469 234 78 378 227 235 l 469 0 z "},"Ω":{"ha":1029,"x_min":0,"x_max":0,"o":"m 865 532 b 603 104 865 343 782 209 l 603 0 l 958 0 l 958 84 l 712 84 l 712 88 b 960 534 872 184 960 339 b 515 994 960 804 781 994 b 70 534 250 994 70 806 b 317 88 70 339 158 184 l 317 84 l 71 84 l 71 0 l 427 0 l 427 104 b 165 532 248 209 165 343 b 515 908 165 759 302 908 b 865 532 728 908 865 758 z "},"Ά":{"ha":855,"x_min":0,"x_max":0,"o":"m 742 0 l 840 0 l 474 979 l 382 979 l 16 0 l 114 0 l 222 300 l 633 300 z m 426 864 l 430 864 l 606 380 l 250 380 z m 73 774 l 147 774 l 239 979 l 126 979 z "},"Έ":{"ha":943,"x_min":0,"x_max":0,"o":"m 30 774 l 104 774 l 196 979 l 83 979 z m 882 84 l 384 84 l 384 460 l 857 460 l 857 543 l 384 543 l 384 895 l 882 895 l 882 979 l 292 979 l 292 0 l 882 0 z "},"Ή":{"ha":1141,"x_min":0,"x_max":0,"o":"m 30 752 l 104 752 l 196 957 l 83 957 z m 1049 0 l 1049 979 l 956 979 l 956 543 l 384 543 l 384 979 l 292 979 l 292 0 l 384 0 l 384 459 l 956 459 l 956 0 z "},"Ί":{"ha":475,"x_min":0,"x_max":0,"o":"m 30 752 l 104 752 l 196 957 l 83 957 z m 384 0 l 384 979 l 292 979 l 292 0 z "},"Ϊ":{"ha":286,"x_min":0,"x_max":0,"o":"m 195 0 l 195 979 l 102 979 l 102 0 z m 33 1077 b 95 1139 67 1077 95 1105 b 33 1201 95 1173 67 1201 b -29 1139 -1 1201 -29 1173 b 33 1077 -29 1105 -1 1077 z m 264 1077 b 326 1139 298 1077 326 1105 b 264 1201 326 1173 298 1201 b 202 1139 230 1201 202 1173 b 264 1077 202 1105 230 1077 z "},"Ό":{"ha":1102,"x_min":0,"x_max":0,"o":"m 19 752 l 94 752 l 185 957 l 73 957 z m 605 994 b 161 489 332 994 161 799 b 605 -16 161 179 332 -16 b 1050 489 878 -16 1050 179 b 605 994 1050 799 878 994 z m 605 908 b 955 489 819 908 955 746 b 605 71 955 233 819 71 b 256 489 391 71 256 233 b 605 908 256 746 391 908 z "},"Ύ":{"ha":1059,"x_min":0,"x_max":0,"o":"m 21 752 l 96 752 l 187 957 l 75 957 z m 692 0 l 692 423 l 1043 979 l 937 979 l 648 514 l 644 514 l 355 979 l 249 979 l 600 423 l 600 0 z "},"Ϋ":{"ha":840,"x_min":0,"x_max":0,"o":"m 473 0 l 473 423 l 824 979 l 718 979 l 429 514 l 425 514 l 136 979 l 30 979 l 380 423 l 380 0 z m 311 1077 b 373 1139 345 1077 373 1105 b 311 1201 373 1173 345 1201 b 249 1139 277 1201 249 1173 b 311 1077 249 1105 277 1077 z m 542 1077 b 604 1139 576 1077 604 1105 b 542 1201 604 1173 576 1201 b 480 1139 508 1201 480 1173 b 542 1077 480 1105 508 1077 z "},"Ώ":{"ha":1131,"x_min":0,"x_max":0,"o":"m 33 752 l 107 752 l 199 957 l 86 957 z m 966 532 b 705 104 966 343 884 209 l 705 0 l 1060 0 l 1060 84 l 814 84 l 814 88 b 1061 534 974 184 1061 339 b 616 994 1061 804 882 994 b 172 534 351 994 172 806 b 419 88 172 339 260 184 l 419 84 l 173 84 l 173 0 l 528 0 l 528 104 b 267 532 349 209 267 343 b 616 908 267 759 404 908 b 966 532 830 908 966 758 z "},"А":{"ha":869,"x_min":0,"x_max":0,"o":"m 749 0 l 846 0 l 481 979 l 389 979 l 22 0 l 121 0 l 229 300 l 640 300 z m 433 864 l 437 864 l 612 380 l 257 380 z "},"Ӑ":{"ha":869,"x_min":0,"x_max":0,"o":"m 749 0 l 846 0 l 481 979 l 389 979 l 22 0 l 121 0 l 229 300 l 640 300 z m 433 864 l 437 864 l 612 380 l 257 380 z m 233 1236 b 432 1052 233 1125 315 1052 b 631 1236 549 1052 631 1125 l 564 1236 b 432 1106 564 1160 509 1106 b 300 1236 355 1106 300 1160 z "},"Ӓ":{"ha":869,"x_min":0,"x_max":0,"o":"m 749 0 l 846 0 l 481 979 l 389 979 l 22 0 l 121 0 l 229 300 l 640 300 z m 433 864 l 437 864 l 612 380 l 257 380 z m 319 1077 b 381 1139 353 1077 381 1105 b 319 1201 381 1173 353 1201 b 257 1139 286 1201 257 1173 b 319 1077 257 1105 286 1077 z m 550 1077 b 612 1139 584 1077 612 1105 b 550 1201 612 1173 584 1201 b 488 1139 516 1201 488 1173 b 550 1077 488 1105 516 1077 z "},"Б":{"ha":821,"x_min":0,"x_max":0,"o":"m 752 288 b 437 578 752 460 624 578 l 191 578 l 191 895 l 661 895 l 661 979 l 98 979 l 98 0 l 438 0 b 752 288 625 0 752 117 z m 191 84 l 191 494 l 416 494 b 657 288 567 494 657 417 b 416 84 657 159 568 84 z "},"В":{"ha":831,"x_min":0,"x_max":0,"o":"m 452 0 b 783 269 659 0 783 102 b 553 512 783 404 689 496 l 553 517 b 732 737 658 536 732 629 b 450 979 732 882 618 979 l 98 979 l 98 0 z m 191 897 l 431 897 b 639 727 561 897 639 833 b 404 544 639 612 552 544 l 191 544 z m 191 82 l 191 464 l 427 464 b 688 273 596 464 688 395 b 439 82 688 152 600 82 z "},"Г":{"ha":713,"x_min":0,"x_max":0,"o":"m 191 0 l 191 894 l 669 894 l 669 979 l 98 979 l 98 0 z "},"Ѓ":{"ha":713,"x_min":0,"x_max":0,"o":"m 191 0 l 191 894 l 669 894 l 669 979 l 98 979 l 98 0 z m 423 1057 l 609 1252 l 507 1252 l 341 1057 z "},"Ґ":{"ha":713,"x_min":0,"x_max":0,"o":"m 191 894 l 669 894 l 669 1164 l 583 1164 l 583 979 l 98 979 l 98 0 l 191 0 z "},"Ӷ":{"ha":713,"x_min":0,"x_max":0,"o":"m 669 894 l 669 979 l 98 979 l 98 0 l 119 0 l 191 0 l 250 0 l 250 -193 l 336 -193 l 336 84 l 191 84 l 191 894 z "},"Ғ":{"ha":728,"x_min":0,"x_max":0,"o":"m 685 894 l 685 979 l 114 979 l 114 522 l 28 522 l 28 449 l 114 449 l 114 0 l 207 0 l 207 449 l 595 449 l 595 522 l 207 522 l 207 894 z "},"Ӻ":{"ha":728,"x_min":0,"x_max":0,"o":"m 685 894 l 685 979 l 114 979 l 114 522 l 28 522 l 28 449 l 114 449 l 114 201 l 113 201 l 113 -49 b -5 -172 113 -136 81 -172 l -20 -172 l -20 -251 l -3 -251 b 207 -46 139 -251 207 -191 l 207 0 l 207 201 l 207 449 l 587 449 l 587 522 l 207 522 l 207 894 z "},"Д":{"ha":972,"x_min":0,"x_max":0,"o":"m 279 341 l 313 895 l 725 895 l 725 84 l 205 84 l 205 89 b 279 341 257 144 272 228 z m 102 0 l 855 0 l 855 -193 l 942 -193 l 942 84 l 818 84 l 818 979 l 230 979 l 191 345 b 85 84 184 214 156 121 l 16 84 l 16 -193 l 102 -193 z "},"Е":{"ha":756,"x_min":0,"x_max":0,"o":"m 689 84 l 191 84 l 191 460 l 664 460 l 664 543 l 191 543 l 191 895 l 689 895 l 689 979 l 98 979 l 98 0 l 689 0 z "},"Ё":{"ha":756,"x_min":0,"x_max":0,"o":"m 689 84 l 191 84 l 191 460 l 664 460 l 664 543 l 191 543 l 191 895 l 689 895 l 689 979 l 98 979 l 98 0 l 689 0 z m 278 1077 b 340 1139 312 1077 340 1105 b 278 1201 340 1173 312 1201 b 216 1139 244 1201 216 1173 b 278 1077 216 1105 244 1077 z m 509 1077 b 571 1139 543 1077 571 1105 b 509 1201 571 1173 543 1201 b 447 1139 475 1201 447 1173 b 509 1077 447 1105 475 1077 z "},"Ӗ":{"ha":756,"x_min":0,"x_max":0,"o":"m 689 84 l 191 84 l 191 460 l 664 460 l 664 543 l 191 543 l 191 895 l 689 895 l 689 979 l 98 979 l 98 0 l 689 0 z m 199 1236 b 397 1052 199 1125 280 1052 b 596 1236 515 1052 596 1125 l 530 1236 b 397 1106 530 1160 475 1106 b 265 1236 320 1106 265 1160 z "},"Ѐ":{"ha":756,"x_min":0,"x_max":0,"o":"m 689 84 l 191 84 l 191 460 l 664 460 l 664 543 l 191 543 l 191 895 l 689 895 l 689 979 l 98 979 l 98 0 l 689 0 z m 349 1057 l 431 1057 l 265 1252 l 163 1252 z "},"Ж":{"ha":1286,"x_min":0,"x_max":0,"o":"m 788 509 l 1231 979 l 1115 979 l 693 524 l 688 524 l 688 979 l 595 979 l 595 524 l 591 524 l 170 979 l 51 979 l 494 507 l 14 0 l 135 0 l 591 480 l 595 480 l 595 0 l 688 0 l 688 480 l 693 480 l 1147 0 l 1273 0 z "},"Ӂ":{"ha":1286,"x_min":0,"x_max":0,"o":"m 778 1236 b 642 1109 772 1158 719 1109 b 507 1236 566 1109 512 1158 l 439 1236 b 642 1048 445 1132 522 1048 b 846 1236 763 1048 840 1132 z m 788 509 l 1231 979 l 1115 979 l 693 524 l 688 524 l 688 979 l 595 979 l 595 524 l 591 524 l 170 979 l 51 979 l 494 507 l 14 0 l 135 0 l 591 480 l 595 480 l 595 0 l 688 0 l 688 480 l 693 480 l 1147 0 l 1273 0 z "},"Ӝ":{"ha":1286,"x_min":0,"x_max":0,"o":"m 760 1077 b 823 1139 794 1077 823 1105 b 760 1201 823 1173 794 1201 b 699 1139 726 1201 699 1173 b 760 1077 699 1105 726 1077 z m 530 1077 b 591 1139 564 1077 591 1105 b 530 1201 591 1173 564 1201 b 467 1139 496 1201 467 1173 b 530 1077 467 1105 496 1077 z m 788 509 l 1231 979 l 1115 979 l 693 524 l 688 524 l 688 979 l 595 979 l 595 524 l 591 524 l 170 979 l 51 979 l 494 507 l 14 0 l 135 0 l 591 480 l 595 480 l 595 0 l 688 0 l 688 480 l 693 480 l 1147 0 l 1273 0 z "},"Җ":{"ha":1312,"x_min":0,"x_max":0,"o":"m 1193 84 l 788 509 l 1231 979 l 1115 979 l 693 524 l 688 524 l 688 979 l 595 979 l 595 524 l 591 524 l 170 979 l 51 979 l 494 507 l 14 0 l 135 0 l 591 480 l 595 480 l 595 0 l 688 0 l 688 480 l 693 480 l 1147 0 l 1221 0 l 1221 -193 l 1308 -193 l 1308 84 z "},"З":{"ha":785,"x_min":0,"x_max":0,"o":"m 258 462 l 387 462 b 643 267 552 462 643 389 b 395 63 643 148 544 63 b 138 250 251 63 148 142 l 48 250 b 395 -20 57 93 197 -20 b 738 264 594 -20 738 104 b 513 508 738 399 654 493 l 513 513 b 706 742 631 539 706 630 b 399 999 706 889 581 999 b 76 734 212 999 90 895 l 166 734 b 395 916 178 844 265 916 b 612 734 529 916 612 841 b 383 545 612 623 522 545 l 258 545 z "},"Ӟ":{"ha":785,"x_min":0,"x_max":0,"o":"m 258 462 l 387 462 b 643 267 552 462 643 389 b 395 63 643 148 544 63 b 138 250 251 63 148 142 l 48 250 b 395 -20 57 93 197 -20 b 738 264 594 -20 738 104 b 513 508 738 399 654 493 l 513 513 b 706 742 631 539 706 630 b 399 999 706 889 581 999 b 76 734 212 999 90 895 l 166 734 b 395 916 178 844 265 916 b 612 734 529 916 612 841 b 383 545 612 623 522 545 l 258 545 z m 277 1077 b 338 1139 311 1077 338 1105 b 277 1201 338 1173 311 1201 b 214 1139 243 1201 214 1173 b 277 1077 214 1105 243 1077 z m 507 1077 b 570 1139 541 1077 570 1105 b 507 1201 570 1173 541 1201 b 446 1139 473 1201 446 1173 b 507 1077 446 1105 473 1077 z "},"Ҙ":{"ha":785,"x_min":0,"x_max":0,"o":"m 513 513 b 706 742 631 539 706 630 b 399 999 706 889 581 999 b 76 734 212 999 90 895 l 166 734 b 395 916 178 844 265 916 b 612 734 529 916 612 841 b 383 545 612 623 522 545 l 258 545 l 258 462 l 387 462 b 643 267 552 462 643 389 b 395 63 643 148 544 63 b 138 250 251 63 148 142 l 48 250 b 353 -18 56 104 177 -4 l 353 -193 l 440 -193 l 440 -18 b 738 264 615 -1 738 116 b 513 508 738 399 654 493 z "},"И":{"ha":958,"x_min":0,"x_max":0,"o":"m 768 0 l 860 0 l 860 979 l 768 979 l 198 151 l 190 151 l 190 979 l 98 979 l 98 0 l 190 0 l 760 826 l 768 826 z "},"Й":{"ha":958,"x_min":0,"x_max":0,"o":"m 768 0 l 860 0 l 860 979 l 768 979 l 198 151 l 190 151 l 190 979 l 98 979 l 98 0 l 190 0 l 760 826 l 768 826 z m 280 1236 b 479 1052 280 1125 361 1052 b 677 1236 596 1052 677 1125 l 611 1236 b 479 1106 611 1160 556 1106 b 347 1236 401 1106 347 1160 z "},"Ѝ":{"ha":958,"x_min":0,"x_max":0,"o":"m 768 0 l 860 0 l 860 979 l 768 979 l 198 151 l 190 151 l 190 979 l 98 979 l 98 0 l 190 0 l 760 826 l 768 826 z m 449 1057 l 531 1057 l 366 1252 l 263 1252 z "},"Ӣ":{"ha":958,"x_min":0,"x_max":0,"o":"m 768 0 l 860 0 l 860 979 l 768 979 l 198 151 l 190 151 l 190 979 l 98 979 l 98 0 l 190 0 l 760 826 l 768 826 z m 690 1166 l 276 1166 l 276 1104 l 690 1104 z "},"Ӥ":{"ha":958,"x_min":0,"x_max":0,"o":"m 768 0 l 860 0 l 860 979 l 768 979 l 198 151 l 190 151 l 190 979 l 98 979 l 98 0 l 190 0 l 760 826 l 768 826 z m 361 1077 b 423 1139 395 1077 423 1105 b 361 1201 423 1173 395 1201 b 299 1139 328 1201 299 1173 b 361 1077 299 1105 328 1077 z m 592 1077 b 654 1139 626 1077 654 1105 b 592 1201 654 1173 626 1201 b 530 1139 558 1201 530 1173 b 592 1077 530 1105 558 1077 z "},"Ҋ":{"ha":998,"x_min":0,"x_max":0,"o":"m 611 1236 b 479 1106 611 1160 556 1106 b 347 1236 401 1106 347 1160 l 280 1236 b 479 1052 280 1125 361 1052 b 677 1236 596 1052 677 1125 z m 860 84 l 860 979 l 768 979 l 198 151 l 190 151 l 190 979 l 98 979 l 98 0 l 190 0 l 760 826 l 768 826 l 768 84 l 768 0 l 860 0 l 880 0 l 824 -193 l 911 -193 l 982 58 l 982 84 z "},"К":{"ha":833,"x_min":0,"x_max":0,"o":"m 293 509 l 773 979 l 654 979 l 195 524 l 191 524 l 191 979 l 98 979 l 98 0 l 191 0 l 191 480 l 195 480 l 687 0 l 816 0 z "},"Ќ":{"ha":833,"x_min":0,"x_max":0,"o":"m 625 1252 l 522 1252 l 357 1057 l 439 1057 z m 293 509 l 773 979 l 654 979 l 195 524 l 191 524 l 191 979 l 98 979 l 98 0 l 191 0 l 191 480 l 195 480 l 687 0 l 816 0 z "},"Қ":{"ha":852,"x_min":0,"x_max":0,"o":"m 729 84 l 293 509 l 773 979 l 654 979 l 195 524 l 191 524 l 191 979 l 98 979 l 98 0 l 191 0 l 191 480 l 195 480 l 687 0 l 762 0 l 762 -193 l 849 -193 l 849 84 z "},"Ҝ":{"ha":890,"x_min":0,"x_max":0,"o":"m 488 507 l 829 979 l 717 979 l 399 538 l 356 538 l 356 758 l 279 758 l 279 538 l 191 538 l 191 979 l 98 979 l 98 0 l 191 0 l 191 464 l 279 464 l 279 230 l 356 230 l 356 464 l 399 464 l 753 0 l 876 0 z "},"Ҟ":{"ha":873,"x_min":0,"x_max":0,"o":"m 326 507 l 818 979 l 699 979 l 246 538 l 226 538 l 226 803 l 415 803 l 415 882 l 226 882 l 226 979 l 133 979 l 133 882 l 10 882 l 10 803 l 133 803 l 133 0 l 226 0 l 226 464 l 246 464 l 731 0 l 856 0 z "},"Ҡ":{"ha":1232,"x_min":0,"x_max":0,"o":"m 692 509 l 1172 979 l 1053 979 l 594 524 l 589 524 l 589 895 l 590 895 l 590 979 l 589 979 l 497 979 l 33 979 l 33 895 l 497 895 l 497 0 l 589 0 l 589 480 l 594 480 l 1086 0 l 1215 0 z "},"Ӄ":{"ha":829,"x_min":0,"x_max":0,"o":"m 780 979 l 662 979 l 205 538 l 191 538 l 191 979 l 98 979 l 98 0 l 191 0 l 191 456 l 213 456 b 643 106 476 456 643 317 b 383 -188 643 -72 538 -188 b 340 -186 366 -188 354 -187 l 340 -268 b 385 -271 352 -270 368 -271 b 738 109 595 -271 738 -118 b 309 530 738 335 572 501 z "},"Л":{"ha":913,"x_min":0,"x_max":0,"o":"m 815 0 l 815 979 l 245 979 l 209 351 b 63 79 198 171 159 79 b 26 84 49 79 32 82 l 26 1 b 71 -6 35 -2 52 -6 b 297 346 220 -6 283 116 l 331 895 l 722 895 l 722 0 z "},"Ӆ":{"ha":952,"x_min":0,"x_max":0,"o":"m 815 84 l 815 979 l 245 979 l 209 351 b 63 79 198 171 159 79 b 26 84 49 79 32 82 l 26 1 b 71 -6 35 -2 52 -6 b 297 346 220 -6 283 116 l 331 895 l 722 895 l 722 84 l 722 0 l 815 0 l 834 0 l 779 -193 l 865 -193 l 936 58 l 936 84 z "},"Ԯ":{"ha":970,"x_min":0,"x_max":0,"o":"m 815 84 l 815 979 l 245 979 l 209 351 b 63 79 198 171 159 79 b 26 84 49 79 32 82 l 26 1 b 71 -6 35 -2 52 -6 b 297 346 220 -6 283 116 l 331 895 l 722 895 l 722 84 l 722 0 l 815 0 l 852 0 l 852 -193 l 939 -193 l 939 84 z "},"Ԓ":{"ha":913,"x_min":0,"x_max":0,"o":"m 245 979 l 209 351 b 63 79 198 171 159 79 b 26 84 49 79 32 82 l 26 1 b 71 -6 35 -2 52 -6 b 297 346 220 -6 283 116 l 331 895 l 722 895 l 722 201 l 722 0 l 722 -49 b 604 -172 722 -136 690 -172 l 589 -172 l 589 -251 l 606 -251 b 815 -46 747 -251 815 -191 l 815 0 l 815 201 l 815 979 z "},"М":{"ha":1139,"x_min":0,"x_max":0,"o":"m 1041 0 l 1041 979 l 934 979 l 572 122 l 568 122 l 205 979 l 98 979 l 98 0 l 185 0 l 185 803 l 189 803 l 529 5 l 610 5 l 950 803 l 954 803 l 954 0 z "},"Ӎ":{"ha":1184,"x_min":0,"x_max":0,"o":"m 1041 84 l 1041 979 l 934 979 l 572 122 l 568 122 l 205 979 l 98 979 l 98 0 l 185 0 l 185 803 l 189 803 l 529 5 l 610 5 l 950 803 l 954 803 l 954 84 l 954 0 l 1041 0 l 1066 0 l 1010 -193 l 1097 -193 l 1168 58 l 1168 84 z "},"Н":{"ha":954,"x_min":0,"x_max":0,"o":"m 856 0 l 856 979 l 763 979 l 763 543 l 191 543 l 191 979 l 98 979 l 98 0 l 191 0 l 191 459 l 763 459 l 763 0 z "},"Ӈ":{"ha":954,"x_min":0,"x_max":0,"o":"m 763 979 l 763 543 l 191 543 l 191 979 l 98 979 l 98 0 l 191 0 l 191 459 l 763 459 l 763 201 l 763 0 l 763 -49 b 645 -172 763 -136 730 -172 l 630 -172 l 630 -251 l 647 -251 b 856 -46 788 -251 856 -191 l 856 0 l 856 201 l 856 979 z "},"Ң":{"ha":1010,"x_min":0,"x_max":0,"o":"m 856 84 l 856 979 l 763 979 l 763 543 l 191 543 l 191 979 l 98 979 l 98 0 l 191 0 l 191 459 l 763 459 l 763 84 l 763 0 l 856 0 l 893 0 l 893 -193 l 980 -193 l 980 84 z "},"Ӊ":{"ha":993,"x_min":0,"x_max":0,"o":"m 856 84 l 856 979 l 763 979 l 763 543 l 191 543 l 191 979 l 98 979 l 98 0 l 191 0 l 191 459 l 763 459 l 763 84 l 763 0 l 856 0 l 875 0 l 819 -193 l 905 -193 l 977 58 l 977 84 z "},"Ҥ":{"ha":1378,"x_min":0,"x_max":0,"o":"m 1335 979 l 856 979 l 763 979 l 763 895 l 763 543 l 191 543 l 191 979 l 98 979 l 98 0 l 191 0 l 191 459 l 763 459 l 763 0 l 856 0 l 856 895 l 1335 895 z "},"О":{"ha":1007,"x_min":0,"x_max":0,"o":"m 503 994 b 59 489 231 994 59 799 b 503 -16 59 179 231 -16 b 948 489 777 -16 948 179 b 503 994 948 799 776 994 z m 503 908 b 853 489 718 908 853 746 b 503 71 853 233 718 71 b 154 489 289 71 154 233 b 503 908 154 746 289 908 z "},"Ӧ":{"ha":1007,"x_min":0,"x_max":0,"o":"m 503 994 b 59 489 231 994 59 799 b 503 -16 59 179 231 -16 b 948 489 777 -16 948 179 b 503 994 948 799 776 994 z m 503 908 b 853 489 718 908 853 746 b 503 71 853 233 718 71 b 154 489 289 71 154 233 b 503 908 154 746 289 908 z m 388 1077 b 450 1139 422 1077 450 1105 b 388 1201 450 1173 422 1201 b 326 1139 354 1201 326 1173 b 388 1077 326 1105 354 1077 z m 618 1077 b 681 1139 652 1077 681 1105 b 618 1201 681 1173 652 1201 b 557 1139 585 1201 557 1173 b 618 1077 557 1105 585 1077 z "},"Ө":{"ha":1004,"x_min":0,"x_max":0,"o":"m 849 464 b 503 66 841 221 709 66 b 155 464 294 66 163 221 z m 156 539 b 503 913 172 770 303 913 b 848 539 702 913 832 770 z m 503 999 b 59 490 229 999 59 803 b 503 -20 59 177 227 -20 b 945 490 778 -20 945 178 b 503 999 945 802 777 999 z "},"Ӫ":{"ha":1004,"x_min":0,"x_max":0,"o":"m 619 1077 b 682 1139 653 1077 682 1105 b 619 1201 682 1173 653 1201 b 557 1139 585 1201 557 1173 b 619 1077 557 1105 585 1077 z m 389 1077 b 450 1139 422 1077 450 1105 b 389 1201 450 1173 422 1201 b 326 1139 355 1201 326 1173 b 389 1077 326 1105 355 1077 z m 849 464 b 503 66 841 221 709 66 b 155 464 294 66 163 221 z m 156 539 b 503 913 172 770 303 913 b 848 539 702 913 832 770 z m 503 999 b 59 490 229 999 59 803 b 503 -20 59 177 227 -20 b 945 490 778 -20 945 178 b 503 999 945 802 777 999 z "},"Ѳ":{"ha":1004,"x_min":0,"x_max":0,"o":"m 503 66 b 155 440 300 66 172 211 b 312 501 188 475 235 501 b 688 409 441 501 526 409 b 849 467 757 408 811 431 b 503 66 842 222 710 66 z m 503 913 b 848 548 700 913 829 773 b 690 486 817 513 766 486 b 315 578 557 486 469 578 b 155 522 245 578 193 557 b 503 913 165 762 298 913 z m 503 999 b 59 490 229 999 59 803 b 503 -20 59 177 227 -20 b 945 490 778 -20 945 178 b 503 999 945 802 777 999 z "},"П":{"ha":942,"x_min":0,"x_max":0,"o":"m 844 0 l 844 979 l 98 979 l 98 0 l 191 0 l 191 894 l 752 894 l 752 0 z "},"Ԥ":{"ha":998,"x_min":0,"x_max":0,"o":"m 844 84 l 844 979 l 98 979 l 98 0 l 191 0 l 191 894 l 752 894 l 752 84 l 752 0 l 844 0 l 882 0 l 882 -193 l 968 -193 l 968 84 z "},"Џ":{"ha":942,"x_min":0,"x_max":0,"o":"m 428 0 l 428 -193 l 514 -193 l 514 0 l 844 0 l 844 979 l 751 979 l 751 84 l 191 84 l 191 979 l 98 979 l 98 0 z "},"Р":{"ha":793,"x_min":0,"x_max":0,"o":"m 98 979 l 98 0 l 191 0 l 191 369 l 431 369 b 745 674 617 369 745 492 b 431 979 745 856 618 979 z m 191 896 l 410 896 b 650 674 561 896 650 813 b 410 452 650 535 560 452 l 191 452 z "},"Ҏ":{"ha":789,"x_min":0,"x_max":0,"o":"m 186 451 l 186 896 l 405 896 b 646 672 557 896 646 814 b 547 484 646 585 611 520 l 433 658 l 370 616 l 469 456 b 405 451 450 453 428 451 z m 94 979 l 94 0 l 186 0 l 186 369 l 403 369 b 513 382 442 369 479 374 l 632 192 l 706 243 l 594 414 b 741 672 686 465 741 557 b 427 979 741 854 614 979 z "},"С":{"ha":941,"x_min":0,"x_max":0,"o":"m 495 -16 b 890 279 704 -16 852 95 l 795 279 b 496 71 764 150 648 71 b 154 492 288 71 154 234 b 495 908 154 746 288 908 b 796 680 644 908 766 814 l 890 680 b 495 994 861 865 699 994 b 59 492 229 994 59 798 b 495 -16 59 182 229 -16 z "},"Ҫ":{"ha":943,"x_min":0,"x_max":0,"o":"m 892 668 b 495 994 865 859 702 994 b 59 492 229 994 59 798 b 463 -15 59 195 215 1 l 426 -106 l 426 -144 l 468 -144 b 571 -199 538 -144 571 -161 b 475 -259 571 -235 534 -259 b 391 -250 446 -259 408 -255 l 391 -306 b 486 -316 409 -312 450 -317 b 642 -197 574 -315 642 -272 b 498 -90 642 -130 586 -92 l 531 -14 b 892 290 724 -2 859 110 l 799 290 b 496 71 770 154 652 71 b 154 492 288 71 154 234 b 495 908 154 746 288 908 b 799 668 647 908 772 809 z "},"Т":{"ha":804,"x_min":0,"x_max":0,"o":"m 448 0 l 448 895 l 772 895 l 772 979 l 33 979 l 33 895 l 355 895 l 355 0 z "},"Ҭ":{"ha":804,"x_min":0,"x_max":0,"o":"m 772 895 l 772 979 l 33 979 l 33 895 l 355 895 l 355 0 l 360 0 l 448 0 l 490 0 l 490 -193 l 577 -193 l 577 84 l 448 84 l 448 895 z "},"У":{"ha":804,"x_min":0,"x_max":0,"o":"m 190 -7 b 478 271 326 -7 395 77 l 785 979 l 688 979 l 415 324 l 407 324 l 123 979 l 23 979 l 363 220 b 190 79 319 132 270 79 b 139 85 167 79 149 83 l 139 1 b 190 -7 146 -2 165 -7 z "},"Ў":{"ha":804,"x_min":0,"x_max":0,"o":"m 190 -7 b 478 271 326 -7 395 77 l 785 979 l 688 979 l 415 324 l 407 324 l 123 979 l 23 979 l 363 220 b 190 79 319 132 270 79 b 139 85 167 79 149 83 l 139 1 b 190 -7 146 -2 165 -7 z m 213 1236 b 412 1052 213 1125 294 1052 b 610 1236 529 1052 610 1125 l 544 1236 b 412 1106 544 1160 489 1106 b 279 1236 334 1106 279 1160 z "},"Ӯ":{"ha":804,"x_min":0,"x_max":0,"o":"m 190 -7 b 478 271 326 -7 395 77 l 785 979 l 688 979 l 415 324 l 407 324 l 123 979 l 23 979 l 363 220 b 190 79 319 132 270 79 b 139 85 167 79 149 83 l 139 1 b 190 -7 146 -2 165 -7 z m 621 1166 l 207 1166 l 207 1104 l 621 1104 z "},"Ӱ":{"ha":804,"x_min":0,"x_max":0,"o":"m 190 -7 b 478 271 326 -7 395 77 l 785 979 l 688 979 l 415 324 l 407 324 l 123 979 l 23 979 l 363 220 b 190 79 319 132 270 79 b 139 85 167 79 149 83 l 139 1 b 190 -7 146 -2 165 -7 z m 297 1077 b 359 1139 331 1077 359 1105 b 297 1201 359 1173 331 1201 b 235 1139 263 1201 235 1173 b 297 1077 235 1105 263 1077 z m 528 1077 b 590 1139 562 1077 590 1105 b 528 1201 590 1173 562 1201 b 466 1139 494 1201 466 1173 b 528 1077 466 1105 494 1077 z "},"Ӳ":{"ha":804,"x_min":0,"x_max":0,"o":"m 190 -7 b 478 271 326 -7 395 77 l 785 979 l 688 979 l 415 324 l 407 324 l 123 979 l 23 979 l 363 220 b 190 79 319 132 270 79 b 139 85 167 79 149 83 l 139 1 b 190 -7 146 -2 165 -7 z m 564 1057 l 749 1252 l 647 1252 l 481 1057 z m 361 1057 l 547 1252 l 444 1252 l 279 1057 z "},"Ф":{"ha":1072,"x_min":0,"x_max":0,"o":"m 491 176 b 146 492 279 180 146 302 b 491 807 146 680 279 802 z m 926 492 b 583 176 926 303 793 181 l 583 807 b 926 492 793 803 926 681 z m 491 93 l 491 -12 l 583 -12 l 583 93 b 1020 492 851 98 1020 252 b 583 890 1020 732 851 886 l 583 990 l 491 990 l 491 890 b 53 492 221 885 53 732 b 491 93 53 251 222 97 z "},"Х":{"ha":870,"x_min":0,"x_max":0,"o":"m 37 0 l 142 0 l 430 414 l 433 414 l 718 0 l 829 0 l 490 486 l 490 489 l 834 979 l 728 979 l 440 563 l 437 563 l 151 979 l 39 979 l 377 493 l 377 490 z "},"Ҳ":{"ha":902,"x_min":0,"x_max":0,"o":"m 770 84 l 490 486 l 490 489 l 834 979 l 728 979 l 440 563 l 437 563 l 151 979 l 39 979 l 377 493 l 377 490 l 37 0 l 142 0 l 430 414 l 433 414 l 718 0 l 812 0 l 812 -193 l 899 -193 l 899 84 z "},"Ӿ":{"ha":870,"x_min":0,"x_max":0,"o":"m 764 455 l 764 529 l 518 529 l 834 979 l 728 979 l 440 563 l 437 563 l 151 979 l 39 979 l 352 529 l 104 529 l 104 455 l 353 455 l 37 0 l 142 0 l 430 414 l 433 414 l 718 0 l 829 0 l 512 455 z "},"Ӽ":{"ha":870,"x_min":0,"x_max":0,"o":"m 39 979 l 378 491 l 37 0 l 142 0 l 428 411 l 435 411 l 612 153 b 691 25 643 109 669 66 b 726 -89 716 -19 726 -54 b 621 -179 726 -145 684 -179 b 579 -175 603 -179 588 -177 l 579 -253 b 628 -258 591 -256 606 -258 b 819 -85 742 -258 819 -187 b 773 69 819 -35 806 11 b 688 203 749 112 723 154 l 490 488 l 834 979 l 728 979 l 441 566 l 434 566 l 151 979 z "},"Ц":{"ha":997,"x_min":0,"x_max":0,"o":"m 966 -193 l 966 84 l 842 84 l 842 979 l 749 979 l 749 84 l 191 84 l 191 979 l 98 979 l 98 0 l 880 0 l 880 -193 z "},"Ҵ":{"ha":1251,"x_min":0,"x_max":0,"o":"m 1096 84 l 1096 979 l 1003 979 l 1003 84 l 444 84 l 444 895 l 764 895 l 764 979 l 444 979 l 352 979 l 33 979 l 33 895 l 352 895 l 352 0 l 1134 0 l 1134 -193 l 1220 -193 l 1220 84 z "},"Ч":{"ha":886,"x_min":0,"x_max":0,"o":"m 788 0 l 788 979 l 695 979 l 695 558 b 439 461 653 515 563 461 b 173 721 273 461 173 559 l 173 979 l 80 979 l 80 720 b 439 375 80 522 208 375 b 687 458 551 375 637 416 l 695 458 l 695 0 z "},"Ӵ":{"ha":886,"x_min":0,"x_max":0,"o":"m 788 0 l 788 979 l 695 979 l 695 558 b 439 461 653 515 563 461 b 173 721 273 461 173 559 l 173 979 l 80 979 l 80 720 b 439 375 80 522 208 375 b 687 458 551 375 637 416 l 695 458 l 695 0 z m 326 1077 b 388 1139 360 1077 388 1105 b 326 1201 388 1173 360 1201 b 264 1139 292 1201 264 1173 b 326 1077 264 1105 292 1077 z m 557 1077 b 619 1139 591 1077 619 1105 b 557 1201 619 1173 591 1201 b 495 1139 523 1201 495 1173 b 557 1077 495 1105 523 1077 z "},"Ҷ":{"ha":942,"x_min":0,"x_max":0,"o":"m 788 84 l 788 979 l 695 979 l 695 558 b 439 461 653 515 563 461 b 173 721 273 461 173 559 l 173 979 l 80 979 l 80 720 b 439 375 80 522 208 375 b 687 458 551 375 637 416 l 695 458 l 695 84 l 695 0 l 788 0 l 825 0 l 825 -193 l 912 -193 l 912 84 z "},"Ӌ":{"ha":886,"x_min":0,"x_max":0,"o":"m 695 979 l 695 558 b 439 461 653 515 563 461 b 173 721 273 461 173 559 l 173 979 l 80 979 l 80 720 b 439 375 80 522 208 375 b 687 458 551 375 637 416 l 695 458 l 695 84 l 571 84 l 571 -193 l 657 -193 l 657 0 l 695 0 l 788 0 l 788 84 l 788 979 z "},"Ҹ":{"ha":886,"x_min":0,"x_max":0,"o":"m 695 979 l 695 558 b 479 463 658 520 582 473 l 479 704 l 403 704 l 403 463 b 173 721 258 476 173 571 l 173 979 l 80 979 l 80 720 b 403 376 80 533 194 391 l 403 170 l 479 170 l 479 376 b 691 458 572 385 646 421 l 695 458 l 695 0 l 788 0 l 788 979 z "},"Һ":{"ha":897,"x_min":0,"x_max":0,"o":"m 98 979 l 98 0 l 191 0 l 191 436 b 451 538 233 479 323 538 b 713 278 614 538 713 440 l 713 0 l 806 0 l 806 279 b 451 624 806 476 678 624 b 199 536 336 624 249 578 l 191 536 l 191 979 z "},"Ԧ":{"ha":960,"x_min":0,"x_max":0,"o":"m 806 84 l 806 279 b 451 624 806 476 678 624 b 199 536 336 624 249 578 l 191 536 l 191 979 l 98 979 l 98 0 l 191 0 l 191 436 b 451 538 233 479 323 538 b 713 278 614 538 713 440 l 713 84 l 713 0 l 806 0 l 844 0 l 844 -193 l 930 -193 l 930 84 z "},"Ћ":{"ha":1116,"x_min":0,"x_max":0,"o":"m 701 519 b 932 266 846 519 932 424 l 932 0 l 1025 0 l 1025 273 b 710 604 1025 474 901 604 b 457 504 610 604 519 568 l 452 504 l 452 895 l 781 895 l 781 979 l 33 979 l 33 895 l 360 895 l 360 0 l 452 0 l 452 385 b 701 519 498 464 600 519 z "},"Ш":{"ha":1244,"x_min":0,"x_max":0,"o":"m 98 0 l 1146 0 l 1146 979 l 1054 979 l 1054 84 l 669 84 l 669 979 l 576 979 l 576 84 l 191 84 l 191 979 l 98 979 z "},"Щ":{"ha":1301,"x_min":0,"x_max":0,"o":"m 1270 -193 l 1270 84 l 1146 84 l 1146 979 l 1054 979 l 1054 84 l 669 84 l 669 979 l 576 979 l 576 84 l 191 84 l 191 979 l 98 979 l 98 0 l 1184 0 l 1184 -193 z "},"Ъ":{"ha":967,"x_min":0,"x_max":0,"o":"m 605 0 b 919 300 791 0 919 121 b 604 600 919 479 791 600 l 355 600 l 355 979 l 33 979 l 33 895 l 262 895 l 262 0 z m 355 84 l 355 517 l 583 517 b 824 300 734 517 824 435 b 583 84 824 164 734 84 z "},"Ы":{"ha":1086,"x_min":0,"x_max":0,"o":"m 98 0 l 441 0 b 755 300 628 0 755 121 b 440 600 755 479 627 600 l 191 600 l 191 979 l 98 979 z m 191 84 l 191 517 l 419 517 b 660 300 570 517 660 435 b 419 84 660 164 570 84 z m 987 0 l 987 979 l 895 979 l 895 0 z "},"Ӹ":{"ha":1086,"x_min":0,"x_max":0,"o":"m 98 0 l 441 0 b 755 300 628 0 755 121 b 440 600 755 479 627 600 l 191 600 l 191 979 l 98 979 z m 191 84 l 191 517 l 419 517 b 660 300 570 517 660 435 b 419 84 660 164 570 84 z m 987 0 l 987 979 l 895 979 l 895 0 z m 427 1077 b 489 1139 461 1077 489 1105 b 427 1201 489 1173 461 1201 b 365 1139 393 1201 365 1173 b 427 1077 365 1105 393 1077 z m 658 1077 b 720 1139 692 1077 720 1105 b 658 1201 720 1173 692 1201 b 596 1139 624 1201 596 1173 b 658 1077 596 1105 624 1077 z "},"Ҍ":{"ha":935,"x_min":0,"x_max":0,"o":"m 323 84 l 323 517 l 551 517 b 792 300 702 517 792 435 b 551 84 792 164 703 84 z m 323 600 l 323 799 l 604 799 l 604 878 l 323 878 l 323 1021 l 230 1021 l 230 878 l 10 878 l 10 799 l 230 799 l 230 0 l 573 0 b 887 300 760 0 887 121 b 572 600 887 479 759 600 z "},"Ѣ":{"ha":935,"x_min":0,"x_max":0,"o":"m 323 84 l 323 517 l 551 517 b 792 300 702 517 792 435 b 551 84 792 164 703 84 z m 323 600 l 323 799 l 604 799 l 604 878 l 323 878 l 323 1021 l 230 1021 l 230 878 l 10 878 l 10 799 l 230 799 l 230 0 l 573 0 b 887 300 760 0 887 121 b 572 600 887 479 759 600 z "},"Ь":{"ha":803,"x_min":0,"x_max":0,"o":"m 98 0 l 441 0 b 755 300 628 0 755 121 b 440 600 755 479 627 600 l 191 600 l 191 979 l 98 979 z m 191 84 l 191 517 l 419 517 b 660 300 570 517 660 435 b 419 84 660 164 570 84 z "},"Љ":{"ha":1425,"x_min":0,"x_max":0,"o":"m 297 346 l 331 895 l 720 895 l 720 0 l 1063 0 b 1377 300 1250 0 1377 121 b 1062 600 1377 479 1249 600 l 813 600 l 813 979 l 245 979 l 209 351 b 63 79 199 195 171 79 b 26 84 49 79 32 82 l 26 1 b 71 -6 35 -2 52 -6 b 297 346 230 -6 284 133 z m 813 84 l 813 517 l 1041 517 b 1282 300 1192 517 1282 435 b 1041 84 1282 164 1192 84 z "},"Њ":{"ha":1444,"x_min":0,"x_max":0,"o":"m 191 459 l 741 459 l 741 0 l 1083 0 b 1397 277 1270 0 1397 112 b 1082 543 1397 436 1269 543 l 833 543 l 833 979 l 741 979 l 741 543 l 191 543 l 191 979 l 98 979 l 98 0 l 191 0 z m 833 84 l 833 459 l 1061 459 b 1302 277 1212 459 1302 392 b 1061 84 1302 157 1213 84 z "},"Э":{"ha":944,"x_min":0,"x_max":0,"o":"m 453 -16 b 885 490 720 -16 885 179 b 453 994 885 798 718 994 b 51 680 248 994 82 865 l 146 680 b 453 908 176 814 304 908 b 787 543 644 908 774 766 l 326 543 l 326 459 l 789 459 b 452 71 783 222 652 71 b 146 279 298 71 178 151 l 51 279 b 453 -16 90 94 241 -16 z "},"Ӭ":{"ha":944,"x_min":0,"x_max":0,"o":"m 453 -16 b 885 490 720 -16 885 179 b 453 994 885 798 718 994 b 51 680 248 994 82 865 l 146 680 b 453 908 176 814 304 908 b 787 543 644 908 774 766 l 326 543 l 326 459 l 789 459 b 452 71 783 222 652 71 b 146 279 298 71 178 151 l 51 279 b 453 -16 90 94 241 -16 z m 338 1077 b 400 1139 372 1077 400 1105 b 338 1201 400 1173 372 1201 b 276 1139 304 1201 276 1173 b 338 1077 276 1105 304 1077 z m 569 1077 b 631 1139 603 1077 631 1105 b 569 1201 631 1173 603 1201 b 507 1139 535 1201 507 1173 b 569 1077 507 1105 535 1077 z "},"Ю":{"ha":1310,"x_min":0,"x_max":0,"o":"m 818 -20 b 1251 490 1088 -20 1251 178 b 818 999 1251 802 1086 999 b 385 543 566 999 404 825 l 191 543 l 191 979 l 98 979 l 98 0 l 191 0 l 191 459 l 385 459 b 818 -20 395 164 556 -20 z m 818 913 b 1156 490 1027 913 1156 749 b 818 66 1156 232 1027 66 b 478 490 607 66 478 232 b 818 913 478 749 610 913 z "},"Я":{"ha":835,"x_min":0,"x_max":0,"o":"m 644 477 l 412 477 b 171 686 260 477 171 554 b 412 895 171 818 260 895 l 644 895 z m 417 393 l 644 393 l 644 0 l 736 0 l 736 979 l 390 979 b 77 686 203 979 77 861 b 315 404 77 536 174 432 l 32 0 l 142 0 z "},"Ҕ":{"ha":841,"x_min":0,"x_max":0,"o":"m 623 979 l 98 979 l 98 0 l 191 0 l 191 385 b 444 519 224 450 325 519 b 673 293 584 519 673 430 b 479 75 673 159 596 75 b 399 84 442 75 410 80 l 399 1 b 481 -9 410 -4 442 -9 b 766 294 655 -9 766 113 b 450 604 766 479 643 604 b 200 503 340 604 251 557 l 191 503 l 191 895 l 623 895 z "},"Ҧ":{"ha":1449,"x_min":0,"x_max":0,"o":"m 98 979 l 98 0 l 191 0 l 191 894 l 707 894 l 707 0 l 799 0 l 799 385 b 1053 519 833 450 933 519 b 1281 293 1192 519 1281 430 b 1088 75 1281 159 1204 75 b 1007 84 1050 75 1019 80 l 1007 1 b 1089 -9 1018 -4 1050 -9 b 1374 294 1263 -9 1374 113 b 1058 604 1374 479 1251 604 b 808 503 949 604 859 557 l 799 503 l 799 979 z "},"Є":{"ha":941,"x_min":0,"x_max":0,"o":"m 890 279 l 795 279 b 496 71 764 150 648 71 b 155 459 296 71 161 220 l 620 459 l 620 543 l 156 543 b 495 908 169 768 302 908 b 796 680 644 908 766 814 l 890 680 b 495 994 861 865 699 994 b 59 492 229 994 59 798 b 495 -16 59 182 229 -16 b 890 279 704 -16 852 95 z "},"Ӏ":{"ha":289,"x_min":0,"x_max":0,"o":"m 191 0 l 191 979 l 98 979 l 98 0 z "},"І":{"ha":289,"x_min":0,"x_max":0,"o":"m 191 0 l 191 979 l 98 979 l 98 0 z "},"Ї":{"ha":289,"x_min":0,"x_max":0,"o":"m 191 0 l 191 979 l 98 979 l 98 0 z m 29 1077 b 91 1139 63 1077 91 1105 b 29 1201 91 1173 63 1201 b -33 1139 -5 1201 -33 1173 b 29 1077 -33 1105 -5 1077 z m 260 1077 b 322 1139 294 1077 322 1105 b 260 1201 322 1173 294 1201 b 198 1139 226 1201 198 1173 b 260 1077 198 1105 226 1077 z "},"Ҩ":{"ha":1301,"x_min":0,"x_max":0,"o":"m 637 524 b 859 797 637 679 719 797 b 1082 535 991 797 1082 684 b 849 127 1082 366 989 208 b 637 524 716 213 637 368 z m 1249 106 b 1078 60 1200 76 1138 60 b 934 84 1026 60 978 68 b 1177 535 1074 174 1177 343 b 859 882 1177 743 1049 882 b 543 522 670 882 543 728 b 763 90 543 342 629 184 b 600 66 713 74 660 66 b 154 508 343 66 154 239 b 484 916 154 711 279 878 l 484 1004 b 57 508 231 974 57 762 b 601 -20 57 195 273 -20 b 848 36 689 -20 772 0 b 1076 -21 916 -1 990 -21 b 1280 34 1152 -21 1219 -3 z "},"Ү":{"ha":827,"x_min":0,"x_max":0,"o":"m 460 0 l 460 423 l 810 979 l 705 979 l 415 514 l 412 514 l 122 979 l 16 979 l 367 423 l 367 0 z "},"Ұ":{"ha":827,"x_min":0,"x_max":0,"o":"m 810 979 l 705 979 l 415 514 l 412 514 l 122 979 l 16 979 l 338 468 l 107 468 l 107 394 l 367 394 l 367 0 l 460 0 l 460 394 l 720 394 l 720 468 l 488 468 z "},"Ҽ":{"ha":1124,"x_min":0,"x_max":0,"o":"m 333 572 b 652 913 355 781 479 913 b 966 572 838 913 958 783 z m 330 489 l 1067 489 l 1067 534 b 654 999 1067 818 907 999 b 236 572 425 999 264 832 b 104 686 147 572 104 612 b 127 795 104 742 129 795 l 44 795 b 18 679 44 795 18 747 b 231 489 18 568 93 490 b 231 485 231 488 231 486 b 673 -20 231 174 400 -20 b 1050 237 861 -20 1008 80 l 956 237 b 675 66 913 128 811 66 b 330 458 467 66 329 222 z "},"Ҿ":{"ha":1124,"x_min":0,"x_max":0,"o":"m 333 572 b 652 913 355 781 479 913 b 966 572 838 913 958 783 z m 330 489 l 1067 489 l 1067 534 b 654 999 1067 818 907 999 b 236 572 425 999 264 832 b 104 686 147 572 104 612 b 127 795 104 742 129 795 l 44 795 b 18 679 44 795 18 747 b 231 489 18 568 93 490 b 231 485 231 488 231 486 b 615 -18 231 196 376 8 l 615 -193 l 703 -193 l 703 -20 b 1050 237 877 -9 1010 89 l 956 237 b 675 66 913 128 811 66 b 330 458 467 66 329 222 z "},"Ӕ":{"ha":1297,"x_min":0,"x_max":0,"o":"m 546 900 l 661 900 l 661 380 l 292 380 z m 661 0 l 1230 0 l 1230 84 l 753 84 l 753 455 l 1204 455 l 1204 538 l 753 538 l 753 895 l 1230 895 l 1230 979 l 490 979 l 14 0 l 109 0 l 254 300 l 661 300 z "},"Ə":{"ha":957,"x_min":0,"x_max":0,"o":"m 473 -20 b 898 490 729 -20 898 183 b 458 999 898 802 728 999 b 74 739 276 999 130 901 l 169 739 b 457 913 218 854 320 913 b 799 521 664 913 800 753 l 799 505 l 57 505 l 57 460 b 473 -20 59 163 218 -20 z m 475 66 b 158 422 289 66 169 201 l 797 422 b 475 66 779 206 652 66 z "},"Ӛ":{"ha":957,"x_min":0,"x_max":0,"o":"m 473 -20 b 898 490 729 -20 898 183 b 458 999 898 802 728 999 b 74 739 276 999 130 901 l 169 739 b 457 913 218 854 320 913 b 799 521 664 913 800 753 l 799 505 l 57 505 l 57 460 b 473 -20 59 163 218 -20 z m 475 66 b 158 422 289 66 169 201 l 797 422 b 475 66 779 206 652 66 z m 342 1077 b 404 1139 376 1077 404 1105 b 342 1201 404 1173 376 1201 b 279 1139 308 1201 279 1173 b 342 1077 279 1105 308 1077 z m 572 1077 b 635 1139 606 1077 635 1105 b 572 1201 635 1173 606 1201 b 511 1139 538 1201 511 1173 b 572 1077 511 1105 538 1077 z "},"Ӡ":{"ha":778,"x_min":0,"x_max":0,"o":"m 387 -20 b 723 277 583 -20 723 102 b 376 577 723 467 595 572 l 376 585 l 695 911 l 695 979 l 87 979 l 87 895 l 559 895 l 559 886 l 260 581 l 260 501 l 328 501 b 628 276 524 501 628 427 b 386 61 628 146 530 61 b 138 250 248 61 146 140 l 48 250 b 387 -20 54 92 193 -20 z "},"Ԑ":{"ha":784,"x_min":0,"x_max":0,"o":"m 529 462 l 529 545 l 405 545 b 177 734 271 545 177 618 b 391 916 177 844 262 916 b 616 734 518 916 607 844 l 707 734 b 388 999 696 895 571 999 b 83 742 213 999 83 894 b 276 514 83 624 161 540 l 276 506 b 47 260 142 493 47 404 b 392 -20 47 100 199 -20 b 736 250 587 -20 730 93 l 647 250 b 393 63 639 142 534 63 b 142 262 244 63 142 146 b 401 462 142 387 238 462 z "},"Ѵ":{"ha":983,"x_min":0,"x_max":0,"o":"m 481 0 l 774 782 b 825 878 793 834 808 863 b 879 899 840 892 857 899 b 947 885 901 899 923 895 l 974 961 b 872 987 945 977 905 987 b 779 961 833 987 804 979 b 689 811 744 935 719 892 l 439 121 l 431 121 l 121 979 l 22 979 l 389 0 z "},"Ԝ":{"ha":1243,"x_min":0,"x_max":0,"o":"m 619 820 l 625 820 l 865 0 l 951 0 l 1221 979 l 1124 979 l 909 142 l 904 142 l 668 979 l 576 979 l 339 142 l 335 142 l 119 979 l 23 979 l 292 0 l 378 0 z "},"Ђ":{"ha":1103,"x_min":0,"x_max":0,"o":"m 743 -9 b 1027 294 914 -9 1027 111 b 711 604 1027 480 902 604 b 457 503 610 604 518 567 l 452 503 l 452 895 l 781 895 l 781 979 l 33 979 l 33 895 l 360 895 l 360 0 l 452 0 l 452 385 b 706 519 497 463 601 519 b 935 293 845 519 935 431 b 741 75 935 160 861 75 b 661 84 710 75 676 79 l 661 1 b 743 -9 676 -5 711 -9 z "},"Ѕ":{"ha":814,"x_min":0,"x_max":0,"o":"m 50 266 b 409 -16 60 98 204 -16 b 764 269 625 -16 764 97 b 484 530 764 405 681 480 l 378 557 b 174 727 235 593 174 643 b 410 910 174 835 274 910 b 655 726 549 910 646 837 l 748 726 b 412 994 743 882 603 994 b 77 724 220 994 77 882 b 339 472 77 595 158 518 l 460 441 b 669 258 606 404 669 350 b 417 68 669 149 564 68 b 143 266 264 68 153 149 z "},"Ј":{"ha":683,"x_min":0,"x_max":0,"o":"m 35 224 b 304 -20 37 81 148 -20 b 585 268 480 -20 585 88 l 585 979 l 492 979 l 492 269 b 304 66 492 138 424 66 b 127 224 203 66 131 131 z "},"a":{"ha":688,"x_min":0,"x_max":0,"o":"m 304 66 b 143 195 209 66 143 119 b 316 329 143 273 205 321 l 525 343 l 525 265 b 304 66 525 153 428 66 z m 286 -12 b 527 134 391 -12 488 47 l 529 134 l 529 0 l 614 0 l 614 483 b 353 717 614 627 513 717 b 78 501 192 717 88 627 l 165 501 b 351 637 180 587 247 637 b 525 475 460 637 525 576 l 525 414 l 305 400 b 52 195 142 389 52 316 b 286 -12 52 72 147 -12 z "},"à":{"ha":688,"x_min":0,"x_max":0,"o":"m 304 66 b 143 195 209 66 143 119 b 316 329 143 273 205 321 l 525 343 l 525 265 b 304 66 525 153 428 66 z m 286 -12 b 527 134 391 -12 488 47 l 529 134 l 529 0 l 614 0 l 614 483 b 353 717 614 627 513 717 b 78 501 192 717 88 627 l 165 501 b 351 637 180 587 247 637 b 525 475 460 637 525 576 l 525 414 l 305 400 b 52 195 142 389 52 316 b 286 -12 52 72 147 -12 z m 387 813 l 239 1018 l 140 1018 l 307 813 z "},"á":{"ha":688,"x_min":0,"x_max":0,"o":"m 304 66 b 143 195 209 66 143 119 b 316 329 143 273 205 321 l 525 343 l 525 265 b 304 66 525 153 428 66 z m 286 -12 b 527 134 391 -12 488 47 l 529 134 l 529 0 l 614 0 l 614 483 b 353 717 614 627 513 717 b 78 501 192 717 88 627 l 165 501 b 351 637 180 587 247 637 b 525 475 460 637 525 576 l 525 414 l 305 400 b 52 195 142 389 52 316 b 286 -12 52 72 147 -12 z m 384 813 l 551 1018 l 452 1018 l 303 813 z "},"ä":{"ha":688,"x_min":0,"x_max":0,"o":"m 304 66 b 143 195 209 66 143 119 b 316 329 143 273 205 321 l 525 343 l 525 265 b 304 66 525 153 428 66 z m 286 -12 b 527 134 391 -12 488 47 l 529 134 l 529 0 l 614 0 l 614 483 b 353 717 614 627 513 717 b 78 501 192 717 88 627 l 165 501 b 351 637 180 587 247 637 b 525 475 460 637 525 576 l 525 414 l 305 400 b 52 195 142 389 52 316 b 286 -12 52 72 147 -12 z m 232 819 b 294 882 266 819 294 847 b 232 943 294 916 266 943 b 170 882 198 943 170 916 b 232 819 170 847 198 819 z m 463 819 b 525 882 496 819 525 847 b 463 943 525 916 496 943 b 401 882 429 943 401 916 b 463 819 401 847 429 819 z "},"ǟ":{"ha":688,"x_min":0,"x_max":0,"o":"m 304 66 b 143 195 209 66 143 119 b 316 329 143 273 205 321 l 525 343 l 525 265 b 304 66 525 153 428 66 z m 286 -12 b 527 134 391 -12 488 47 l 529 134 l 529 0 l 614 0 l 614 483 b 353 717 614 627 513 717 b 78 501 192 717 88 627 l 165 501 b 351 637 180 587 247 637 b 525 475 460 637 525 576 l 525 414 l 305 400 b 52 195 142 389 52 316 b 286 -12 52 72 147 -12 z m 230 795 b 293 858 264 795 293 823 b 230 921 293 892 264 921 b 167 858 196 921 167 892 b 230 795 167 823 196 795 z m 465 795 b 528 858 498 795 528 823 b 465 921 528 892 498 921 b 401 858 430 921 401 892 b 465 795 401 823 430 795 z m 528 1099 l 163 1099 l 163 1037 l 528 1037 z "},"å":{"ha":688,"x_min":0,"x_max":0,"o":"m 304 66 b 143 195 209 66 143 119 b 316 329 143 273 205 321 l 525 343 l 525 265 b 304 66 525 153 428 66 z m 286 -12 b 527 134 391 -12 488 47 l 529 134 l 529 0 l 614 0 l 614 483 b 353 717 614 627 513 717 b 78 501 192 717 88 627 l 165 501 b 351 637 180 587 247 637 b 525 475 460 637 525 576 l 525 414 l 305 400 b 52 195 142 389 52 316 b 286 -12 52 72 147 -12 z m 347 786 b 471 909 415 786 471 842 b 347 1033 471 977 415 1033 b 224 909 279 1033 224 977 b 347 786 224 842 279 786 z m 347 834 b 273 909 306 834 273 868 b 347 985 273 951 306 985 b 422 909 389 985 422 951 b 347 834 422 868 389 834 z "},"ǻ":{"ha":688,"x_min":0,"x_max":0,"o":"m 304 66 b 143 195 209 66 143 119 b 316 329 143 273 205 321 l 525 343 l 525 265 b 304 66 525 153 428 66 z m 286 -12 b 527 134 391 -12 488 47 l 529 134 l 529 0 l 614 0 l 614 483 b 353 717 614 627 513 717 b 78 501 192 717 88 627 l 165 501 b 351 637 180 587 247 637 b 525 475 460 637 525 576 l 525 414 l 305 400 b 52 195 142 389 52 316 b 286 -12 52 72 147 -12 z m 347 782 b 471 905 415 782 471 838 b 347 1029 471 973 415 1029 b 224 905 279 1029 224 973 b 347 782 224 838 279 782 z m 273 905 b 347 981 273 947 305 981 b 422 905 389 981 422 947 b 347 830 422 864 389 830 b 273 905 305 830 273 864 z m 308 1084 l 382 1084 l 482 1210 l 398 1210 z "},"ã":{"ha":688,"x_min":0,"x_max":0,"o":"m 304 66 b 143 195 209 66 143 119 b 316 329 143 273 205 321 l 525 343 l 525 265 b 304 66 525 153 428 66 z m 286 -12 b 527 134 391 -12 488 47 l 529 134 l 529 0 l 614 0 l 614 483 b 353 717 614 627 513 717 b 78 501 192 717 88 627 l 165 501 b 351 637 180 587 247 637 b 525 475 460 637 525 576 l 525 414 l 305 400 b 52 195 142 389 52 316 b 286 -12 52 72 147 -12 z m 439 817 b 557 979 511 817 557 880 l 493 979 b 440 878 493 914 475 878 b 260 985 382 878 353 985 b 142 824 186 985 142 925 l 205 824 b 259 924 203 887 222 924 b 439 817 319 924 350 817 z "},"ằ":{"ha":688,"x_min":0,"x_max":0,"o":"m 304 66 b 143 195 209 66 143 119 b 316 329 143 273 205 321 l 525 343 l 525 265 b 304 66 525 153 428 66 z m 286 -12 b 527 134 391 -12 488 47 l 529 134 l 529 0 l 614 0 l 614 483 b 353 717 614 627 513 717 b 78 501 192 717 88 627 l 165 501 b 351 637 180 587 247 637 b 525 475 460 637 525 576 l 525 414 l 305 400 b 52 195 142 389 52 316 b 286 -12 52 72 147 -12 z m 400 1006 l 248 1210 l 161 1210 l 324 1006 z m 551 1002 l 484 1002 b 347 867 484 920 428 867 b 210 1002 267 867 210 920 l 143 1002 b 347 808 143 886 224 808 b 551 1002 471 808 551 886 z "},"ǡ":{"ha":688,"x_min":0,"x_max":0,"o":"m 304 66 b 143 195 209 66 143 119 b 316 329 143 273 205 321 l 525 343 l 525 265 b 304 66 525 153 428 66 z m 286 -12 b 527 134 391 -12 488 47 l 529 134 l 529 0 l 614 0 l 614 483 b 353 717 614 627 513 717 b 78 501 192 717 88 627 l 165 501 b 351 637 180 587 247 637 b 525 475 460 637 525 576 l 525 414 l 305 400 b 52 195 142 389 52 316 b 286 -12 52 72 147 -12 z m 347 804 b 417 873 385 804 417 836 b 347 943 417 911 385 943 b 277 873 310 943 277 911 b 347 804 277 836 310 804 z m 528 1099 l 163 1099 l 163 1037 l 528 1037 z "},"ḁ":{"ha":688,"x_min":0,"x_max":0,"o":"m 304 66 b 143 195 209 66 143 119 b 316 329 143 273 205 321 l 525 343 l 525 265 b 304 66 525 153 428 66 z m 286 -12 b 527 134 391 -12 488 47 l 529 134 l 529 0 l 614 0 l 614 483 b 353 717 614 627 513 717 b 78 501 192 717 88 627 l 165 501 b 351 637 180 587 247 637 b 525 475 460 637 525 576 l 525 414 l 305 400 b 52 195 142 389 52 316 b 286 -12 52 72 147 -12 z m 338 -318 b 461 -195 406 -318 461 -262 b 338 -71 461 -127 406 -71 b 214 -195 270 -71 214 -127 b 338 -318 214 -262 270 -318 z m 338 -270 b 263 -195 296 -270 263 -236 b 338 -119 263 -153 296 -119 b 413 -195 380 -119 413 -153 b 338 -270 413 -236 380 -270 z "},"â":{"ha":688,"x_min":0,"x_max":0,"o":"m 304 66 b 143 195 209 66 143 119 b 316 329 143 273 205 321 l 525 343 l 525 265 b 304 66 525 153 428 66 z m 286 -12 b 527 134 391 -12 488 47 l 529 134 l 529 0 l 614 0 l 614 483 b 353 717 614 627 513 717 b 78 501 192 717 88 627 l 165 501 b 351 637 180 587 247 637 b 525 475 460 637 525 576 l 525 414 l 305 400 b 52 195 142 389 52 316 b 286 -12 52 72 147 -12 z m 382 1018 l 312 1018 l 129 813 l 215 813 l 345 960 l 349 960 l 479 813 l 565 813 z "},"ậ":{"ha":688,"x_min":0,"x_max":0,"o":"m 304 66 b 143 195 209 66 143 119 b 316 329 143 273 205 321 l 525 343 l 525 265 b 304 66 525 153 428 66 z m 286 -12 b 527 134 391 -12 488 47 l 529 134 l 529 0 l 614 0 l 614 483 b 353 717 614 627 513 717 b 78 501 192 717 88 627 l 165 501 b 351 637 180 587 247 637 b 525 475 460 637 525 576 l 525 414 l 305 400 b 52 195 142 389 52 316 b 286 -12 52 72 147 -12 z m 382 1018 l 312 1018 l 129 813 l 215 813 l 345 960 l 349 960 l 479 813 l 565 813 z m 338 -237 b 407 -168 376 -237 407 -205 b 338 -98 407 -130 376 -98 b 269 -168 300 -98 269 -130 b 338 -237 269 -205 300 -237 z "},"ấ":{"ha":688,"x_min":0,"x_max":0,"o":"m 304 66 b 143 195 209 66 143 119 b 316 329 143 273 205 321 l 525 343 l 525 265 b 304 66 525 153 428 66 z m 286 -12 b 527 134 391 -12 488 47 l 529 134 l 529 0 l 614 0 l 614 483 b 353 717 614 627 513 717 b 78 501 192 717 88 627 l 165 501 b 351 637 180 587 247 637 b 525 475 460 637 525 576 l 525 414 l 305 400 b 52 195 142 389 52 316 b 286 -12 52 72 147 -12 z m 383 1006 l 311 1006 l 129 813 l 216 813 l 346 951 l 349 951 l 479 813 l 566 813 z m 475 1006 l 551 1006 l 715 1210 l 627 1210 z "},"ẫ":{"ha":688,"x_min":0,"x_max":0,"o":"m 304 66 b 143 195 209 66 143 119 b 316 329 143 273 205 321 l 525 343 l 525 265 b 304 66 525 153 428 66 z m 286 -12 b 527 134 391 -12 488 47 l 529 134 l 529 0 l 614 0 l 614 483 b 353 717 614 627 513 717 b 78 501 192 717 88 627 l 165 501 b 351 637 180 587 247 637 b 525 475 460 637 525 576 l 525 414 l 305 400 b 52 195 142 389 52 316 b 286 -12 52 72 147 -12 z m 383 1006 l 311 1006 l 129 813 l 216 813 l 346 951 l 349 951 l 479 813 l 566 813 z m 433 1053 b 549 1201 503 1053 549 1112 l 486 1201 b 434 1112 486 1145 468 1112 b 262 1213 375 1112 349 1213 b 145 1066 190 1213 145 1156 l 208 1066 b 262 1154 206 1120 227 1154 b 433 1053 319 1154 346 1053 z "},"ầ":{"ha":688,"x_min":0,"x_max":0,"o":"m 304 66 b 143 195 209 66 143 119 b 316 329 143 273 205 321 l 525 343 l 525 265 b 304 66 525 153 428 66 z m 286 -12 b 527 134 391 -12 488 47 l 529 134 l 529 0 l 614 0 l 614 483 b 353 717 614 627 513 717 b 78 501 192 717 88 627 l 165 501 b 351 637 180 587 247 637 b 525 475 460 637 525 576 l 525 414 l 305 400 b 52 195 142 389 52 316 b 286 -12 52 72 147 -12 z m 383 1006 l 311 1006 l 129 813 l 216 813 l 346 951 l 349 951 l 479 813 l 566 813 z m 610 1006 l 458 1210 l 371 1210 l 534 1006 z "},"ẩ":{"ha":688,"x_min":0,"x_max":0,"o":"m 304 66 b 143 195 209 66 143 119 b 316 329 143 273 205 321 l 525 343 l 525 265 b 304 66 525 153 428 66 z m 286 -12 b 527 134 391 -12 488 47 l 529 134 l 529 0 l 614 0 l 614 483 b 353 717 614 627 513 717 b 78 501 192 717 88 627 l 165 501 b 351 637 180 587 247 637 b 525 475 460 637 525 576 l 525 414 l 305 400 b 52 195 142 389 52 316 b 286 -12 52 72 147 -12 z m 410 1132 b 479 1147 429 1141 454 1147 b 541 1095 515 1147 541 1125 b 484 1025 541 1065 519 1039 l 521 987 b 605 1099 574 1006 605 1046 b 485 1202 605 1161 558 1202 b 410 1185 457 1202 425 1194 z m 383 1006 l 311 1006 l 129 813 l 216 813 l 346 951 l 349 951 l 479 813 l 566 813 z "},"ă":{"ha":688,"x_min":0,"x_max":0,"o":"m 304 66 b 143 195 209 66 143 119 b 316 329 143 273 205 321 l 525 343 l 525 265 b 304 66 525 153 428 66 z m 286 -12 b 527 134 391 -12 488 47 l 529 134 l 529 0 l 614 0 l 614 483 b 353 717 614 627 513 717 b 78 501 192 717 88 627 l 165 501 b 351 637 180 587 247 637 b 525 475 460 637 525 576 l 525 414 l 305 400 b 52 195 142 389 52 316 b 286 -12 52 72 147 -12 z m 142 1002 b 347 809 142 886 223 809 b 551 1002 470 809 551 886 l 484 1002 b 347 867 484 920 427 867 b 210 1002 266 867 210 920 z "},"ắ":{"ha":688,"x_min":0,"x_max":0,"o":"m 304 66 b 143 195 209 66 143 119 b 316 329 143 273 205 321 l 525 343 l 525 265 b 304 66 525 153 428 66 z m 286 -12 b 527 134 391 -12 488 47 l 529 134 l 529 0 l 614 0 l 614 483 b 353 717 614 627 513 717 b 78 501 192 717 88 627 l 165 501 b 351 637 180 587 247 637 b 525 475 460 637 525 576 l 525 414 l 305 400 b 52 195 142 389 52 316 b 286 -12 52 72 147 -12 z m 294 1006 l 370 1006 l 534 1210 l 446 1210 z m 551 1002 l 484 1002 b 347 867 484 920 428 867 b 210 1002 267 867 210 920 l 143 1002 b 347 808 143 886 224 808 b 551 1002 471 808 551 886 z "},"ẵ":{"ha":688,"x_min":0,"x_max":0,"o":"m 304 66 b 143 195 209 66 143 119 b 316 329 143 273 205 321 l 525 343 l 525 265 b 304 66 525 153 428 66 z m 286 -12 b 527 134 391 -12 488 47 l 529 134 l 529 0 l 614 0 l 614 483 b 353 717 614 627 513 717 b 78 501 192 717 88 627 l 165 501 b 351 637 180 587 247 637 b 525 475 460 637 525 576 l 525 414 l 305 400 b 52 195 142 389 52 316 b 286 -12 52 72 147 -12 z m 551 1002 l 484 1002 b 347 867 484 920 428 867 b 210 1002 267 867 210 920 l 143 1002 b 347 808 143 886 224 808 b 551 1002 471 808 551 886 z m 433 1053 b 549 1201 503 1053 549 1112 l 486 1201 b 434 1112 486 1145 467 1112 b 262 1213 378 1112 354 1213 b 145 1066 190 1213 145 1156 l 208 1066 b 262 1154 206 1120 227 1154 b 433 1053 319 1154 346 1053 z "},"ẳ":{"ha":688,"x_min":0,"x_max":0,"o":"m 304 66 b 143 195 209 66 143 119 b 316 329 143 273 205 321 l 525 343 l 525 265 b 304 66 525 153 428 66 z m 286 -12 b 527 134 391 -12 488 47 l 529 134 l 529 0 l 614 0 l 614 483 b 353 717 614 627 513 717 b 78 501 192 717 88 627 l 165 501 b 351 637 180 587 247 637 b 525 475 460 637 525 576 l 525 414 l 305 400 b 52 195 142 389 52 316 b 286 -12 52 72 147 -12 z m 551 1002 l 484 1002 b 347 867 484 920 428 867 b 210 1002 267 867 210 920 l 143 1002 b 347 808 143 886 224 808 b 551 1002 471 808 551 886 z m 240 1132 b 309 1147 260 1141 284 1147 b 372 1095 345 1147 372 1125 b 314 1025 372 1065 349 1039 l 351 987 b 435 1099 405 1006 435 1046 b 315 1202 435 1161 388 1202 b 240 1185 287 1202 255 1194 z "},"ặ":{"ha":688,"x_min":0,"x_max":0,"o":"m 304 66 b 143 195 209 66 143 119 b 316 329 143 273 205 321 l 525 343 l 525 265 b 304 66 525 153 428 66 z m 286 -12 b 527 134 391 -12 488 47 l 529 134 l 529 0 l 614 0 l 614 483 b 353 717 614 627 513 717 b 78 501 192 717 88 627 l 165 501 b 351 637 180 587 247 637 b 525 475 460 637 525 576 l 525 414 l 305 400 b 52 195 142 389 52 316 b 286 -12 52 72 147 -12 z m 142 1002 b 347 809 142 886 223 809 b 551 1002 470 809 551 886 l 484 1002 b 347 867 484 920 427 867 b 210 1002 266 867 210 920 z m 338 -237 b 407 -168 376 -237 407 -205 b 338 -98 407 -130 376 -98 b 269 -168 300 -98 269 -130 b 338 -237 269 -205 300 -237 z "},"ȃ":{"ha":688,"x_min":0,"x_max":0,"o":"m 304 66 b 143 195 209 66 143 119 b 316 329 143 273 205 321 l 525 343 l 525 265 b 304 66 525 153 428 66 z m 286 -12 b 527 134 391 -12 488 47 l 529 134 l 529 0 l 614 0 l 614 483 b 353 717 614 627 513 717 b 78 501 192 717 88 627 l 165 501 b 351 637 180 587 247 637 b 525 475 460 637 525 576 l 525 414 l 305 400 b 52 195 142 389 52 316 b 286 -12 52 72 147 -12 z m 143 813 l 210 813 b 347 947 210 895 267 947 b 484 813 428 947 484 895 l 551 813 b 347 1007 551 931 471 1007 b 143 813 224 1007 143 931 z "},"ǎ":{"ha":688,"x_min":0,"x_max":0,"o":"m 304 66 b 143 195 209 66 143 119 b 316 329 143 273 205 321 l 525 343 l 525 265 b 304 66 525 153 428 66 z m 286 -12 b 527 134 391 -12 488 47 l 529 134 l 529 0 l 614 0 l 614 483 b 353 717 614 627 513 717 b 78 501 192 717 88 627 l 165 501 b 351 637 180 587 247 637 b 525 475 460 637 525 576 l 525 414 l 305 400 b 52 195 142 389 52 316 b 286 -12 52 72 147 -12 z m 382 813 l 565 1018 l 479 1018 l 349 869 l 345 869 l 215 1018 l 129 1018 l 312 813 z "},"ȧ":{"ha":688,"x_min":0,"x_max":0,"o":"m 304 66 b 143 195 209 66 143 119 b 316 329 143 273 205 321 l 525 343 l 525 265 b 304 66 525 153 428 66 z m 286 -12 b 527 134 391 -12 488 47 l 529 134 l 529 0 l 614 0 l 614 483 b 353 717 614 627 513 717 b 78 501 192 717 88 627 l 165 501 b 351 637 180 587 247 637 b 525 475 460 637 525 576 l 525 414 l 305 400 b 52 195 142 389 52 316 b 286 -12 52 72 147 -12 z m 347 819 b 418 889 386 819 418 850 b 347 960 418 928 386 960 b 277 889 309 960 277 928 b 347 819 277 850 309 819 z "},"ạ":{"ha":688,"x_min":0,"x_max":0,"o":"m 304 66 b 143 195 209 66 143 119 b 316 329 143 273 205 321 l 525 343 l 525 265 b 304 66 525 153 428 66 z m 286 -12 b 527 134 391 -12 488 47 l 529 134 l 529 0 l 614 0 l 614 483 b 353 717 614 627 513 717 b 78 501 192 717 88 627 l 165 501 b 351 637 180 587 247 637 b 525 475 460 637 525 576 l 525 414 l 305 400 b 52 195 142 389 52 316 b 286 -12 52 72 147 -12 z m 338 -237 b 407 -168 376 -237 407 -205 b 338 -98 407 -130 376 -98 b 269 -168 300 -98 269 -130 b 338 -237 269 -205 300 -237 z "},"ả":{"ha":688,"x_min":0,"x_max":0,"o":"m 304 66 b 143 195 209 66 143 119 b 316 329 143 273 205 321 l 525 343 l 525 265 b 304 66 525 153 428 66 z m 286 -12 b 527 134 391 -12 488 47 l 529 134 l 529 0 l 614 0 l 614 483 b 353 717 614 627 513 717 b 78 501 192 717 88 627 l 165 501 b 351 637 180 587 247 637 b 525 475 460 637 525 576 l 525 414 l 305 400 b 52 195 142 389 52 316 b 286 -12 52 72 147 -12 z m 268 946 b 336 964 293 959 313 964 b 401 909 374 964 401 941 b 341 838 401 875 380 852 l 375 792 b 471 913 432 814 471 861 b 352 1021 471 978 424 1021 b 268 1004 319 1021 293 1016 z "},"ȁ":{"ha":688,"x_min":0,"x_max":0,"o":"m 304 66 b 143 195 209 66 143 119 b 316 329 143 273 205 321 l 525 343 l 525 265 b 304 66 525 153 428 66 z m 286 -12 b 527 134 391 -12 488 47 l 529 134 l 529 0 l 614 0 l 614 483 b 353 717 614 627 513 717 b 78 501 192 717 88 627 l 165 501 b 351 637 180 587 247 637 b 525 475 460 637 525 576 l 525 414 l 305 400 b 52 195 142 389 52 316 b 286 -12 52 72 147 -12 z m 288 813 l 146 1018 l 48 1018 l 213 813 z m 481 813 l 339 1018 l 241 1018 l 406 813 z "},"ā":{"ha":688,"x_min":0,"x_max":0,"o":"m 304 66 b 143 195 209 66 143 119 b 316 329 143 273 205 321 l 525 343 l 525 265 b 304 66 525 153 428 66 z m 286 -12 b 527 134 391 -12 488 47 l 529 134 l 529 0 l 614 0 l 614 483 b 353 717 614 627 513 717 b 78 501 192 717 88 627 l 165 501 b 351 637 180 587 247 637 b 525 475 460 637 525 576 l 525 414 l 305 400 b 52 195 142 389 52 316 b 286 -12 52 72 147 -12 z m 528 916 l 163 916 l 163 854 l 528 854 z "},"ą":{"ha":688,"x_min":0,"x_max":0,"o":"m 304 66 b 143 195 209 66 143 119 b 316 328 143 273 205 320 l 525 342 l 525 265 b 304 66 525 153 428 66 z m 612 -260 l 612 -197 b 560 -203 598 -201 579 -203 b 477 -132 513 -203 477 -177 b 609 -3 477 -76 537 -32 l 614 -1 l 614 481 b 354 713 614 622 512 713 b 81 500 201 713 88 626 l 167 500 b 352 634 182 584 251 634 b 525 473 461 634 525 574 l 525 413 l 305 399 b 52 195 142 388 52 316 b 286 -12 52 72 147 -12 b 527 134 391 -12 488 47 l 529 134 l 529 14 b 401 -151 461 -20 401 -75 b 543 -270 401 -222 461 -270 b 612 -260 574 -270 601 -266 z "},"b":{"ha":758,"x_min":0,"x_max":0,"o":"m 416 -12 b 715 353 594 -12 715 133 b 417 717 715 572 594 717 b 176 558 307 717 216 655 l 174 558 l 174 979 l 83 979 l 83 0 l 170 0 l 170 149 l 172 149 b 416 -12 214 50 304 -12 z m 399 637 b 623 353 535 637 623 525 b 399 68 623 180 535 68 b 173 353 267 68 173 183 b 399 637 173 522 267 637 z "},"ḇ":{"ha":757,"x_min":0,"x_max":0,"o":"m 416 -12 b 715 353 594 -12 715 133 b 417 717 715 572 594 717 b 176 558 307 717 216 655 l 174 558 l 174 979 l 83 979 l 83 0 l 170 0 l 170 149 l 172 149 b 416 -12 214 50 304 -12 z m 399 637 b 623 353 535 637 623 525 b 399 68 623 180 535 68 b 173 353 267 68 173 183 b 399 637 173 522 267 637 z m 603 -143 l 189 -143 l 189 -205 l 603 -205 z "},"ḅ":{"ha":757,"x_min":0,"x_max":0,"o":"m 416 -12 b 715 353 594 -12 715 133 b 417 717 715 572 594 717 b 176 558 307 717 216 655 l 174 558 l 174 979 l 83 979 l 83 0 l 170 0 l 170 149 l 172 149 b 416 -12 214 50 304 -12 z m 399 637 b 623 353 535 637 623 525 b 399 68 623 180 535 68 b 173 353 267 68 173 183 b 399 637 173 522 267 637 z m 396 -237 b 465 -168 434 -237 465 -205 b 396 -98 465 -130 434 -98 b 327 -168 358 -98 327 -130 b 396 -237 327 -205 358 -237 z "},"ḃ":{"ha":757,"x_min":0,"x_max":0,"o":"m 416 -12 b 715 353 594 -12 715 133 b 417 717 715 572 594 717 b 176 558 307 717 216 655 l 174 558 l 174 979 l 83 979 l 83 0 l 170 0 l 170 149 l 172 149 b 416 -12 214 50 304 -12 z m 399 637 b 623 353 535 637 623 525 b 399 68 623 180 535 68 b 173 353 267 68 173 183 b 399 637 173 522 267 637 z m 128 1068 b 197 1137 166 1068 197 1099 b 128 1206 197 1175 166 1206 b 59 1137 90 1206 59 1175 b 128 1068 59 1099 90 1068 z "},"c":{"ha":686,"x_min":0,"x_max":0,"o":"m 651 482 b 361 717 633 608 527 717 b 42 353 169 717 42 575 b 361 -12 42 127 169 -12 b 652 218 517 -12 632 83 l 563 218 b 362 68 543 127 469 68 b 134 353 224 68 134 176 b 361 637 134 527 224 637 b 563 482 473 637 544 569 z "},"ć":{"ha":686,"x_min":0,"x_max":0,"o":"m 651 482 b 361 717 633 608 527 717 b 42 353 169 717 42 575 b 361 -12 42 127 169 -12 b 652 218 517 -12 632 83 l 563 218 b 362 68 543 127 469 68 b 134 353 224 68 134 176 b 361 637 134 527 224 637 b 563 482 473 637 544 569 z m 397 813 l 564 1018 l 465 1018 l 316 813 z "},"č":{"ha":686,"x_min":0,"x_max":0,"o":"m 651 482 b 361 717 633 608 527 717 b 42 353 169 717 42 575 b 361 -12 42 127 169 -12 b 652 218 517 -12 632 83 l 563 218 b 362 68 543 127 469 68 b 134 353 224 68 134 176 b 361 637 134 527 224 637 b 563 482 473 637 544 569 z m 395 813 l 578 1018 l 492 1018 l 361 869 l 358 869 l 228 1018 l 142 1018 l 325 813 z "},"ĉ":{"ha":686,"x_min":0,"x_max":0,"o":"m 651 482 b 361 717 633 608 527 717 b 42 353 169 717 42 575 b 361 -12 42 127 169 -12 b 652 218 517 -12 632 83 l 563 218 b 362 68 543 127 469 68 b 134 353 224 68 134 176 b 361 637 134 527 224 637 b 563 482 473 637 544 569 z m 395 1018 l 325 1018 l 142 813 l 228 813 l 358 960 l 361 960 l 492 813 l 578 813 z "},"ċ":{"ha":686,"x_min":0,"x_max":0,"o":"m 651 482 b 361 717 633 608 527 717 b 42 353 169 717 42 575 b 361 -12 42 127 169 -12 b 652 218 517 -12 632 83 l 563 218 b 362 68 543 127 469 68 b 134 353 224 68 134 176 b 361 637 134 527 224 637 b 563 482 473 637 544 569 z m 360 819 b 431 889 399 819 431 850 b 360 960 431 928 399 960 b 290 889 321 960 290 928 b 360 819 290 850 321 819 z "},"ç":{"ha":686,"x_min":0,"x_max":0,"o":"m 563 218 b 362 68 543 127 469 68 b 134 353 224 68 134 176 b 361 637 134 527 224 637 b 563 482 473 637 544 569 l 651 482 b 361 717 633 608 527 717 b 42 353 169 717 42 575 b 330 -10 42 139 155 4 l 292 -106 l 292 -144 l 334 -144 b 437 -199 404 -144 437 -161 b 340 -259 437 -235 400 -259 b 257 -250 311 -259 273 -255 l 257 -306 b 352 -316 275 -312 316 -317 b 507 -197 440 -315 507 -272 b 363 -90 507 -130 452 -92 l 399 -9 b 652 218 536 4 633 94 z "},"ḉ":{"ha":686,"x_min":0,"x_max":0,"o":"m 564 1018 l 465 1018 l 316 813 l 397 813 z m 563 218 b 362 68 543 127 469 68 b 134 353 224 68 134 176 b 361 637 134 527 224 637 b 563 482 473 637 544 569 l 651 482 b 361 717 633 608 527 717 b 42 353 169 717 42 575 b 330 -10 42 139 155 4 l 292 -106 l 292 -144 l 334 -144 b 437 -199 404 -144 437 -161 b 340 -259 437 -235 400 -259 b 257 -250 311 -259 273 -255 l 257 -306 b 352 -316 275 -312 316 -317 b 507 -197 440 -315 507 -272 b 363 -90 507 -130 452 -92 l 399 -9 b 652 218 536 4 633 94 z "},"d":{"ha":759,"x_min":0,"x_max":0,"o":"m 344 -12 b 588 149 458 -12 548 54 l 590 149 l 590 0 l 675 0 l 675 979 l 585 979 l 585 560 l 583 560 b 342 717 546 652 456 717 b 42 353 165 717 42 572 b 344 -12 42 134 165 -12 z m 359 637 b 586 353 494 637 586 523 b 359 68 586 182 494 68 b 134 353 224 68 134 180 b 359 637 134 525 224 637 z "},"ḋ":{"ha":759,"x_min":0,"x_max":0,"o":"m 344 -12 b 588 149 458 -12 548 54 l 590 149 l 590 0 l 675 0 l 675 979 l 585 979 l 585 560 l 583 560 b 342 717 546 652 456 717 b 42 353 165 717 42 572 b 344 -12 42 134 165 -12 z m 359 637 b 586 353 494 637 586 523 b 359 68 586 182 494 68 b 134 353 224 68 134 180 b 359 637 134 525 224 637 z m 631 1068 b 700 1137 669 1068 700 1099 b 631 1206 700 1175 669 1206 b 562 1137 593 1206 562 1175 b 631 1068 562 1099 593 1068 z "},"ḓ":{"ha":759,"x_min":0,"x_max":0,"o":"m 344 -12 b 588 149 458 -12 548 54 l 590 149 l 590 0 l 675 0 l 675 979 l 585 979 l 585 560 l 583 560 b 342 717 546 652 456 717 b 42 353 165 717 42 572 b 344 -12 42 134 165 -12 z m 359 637 b 586 353 494 637 586 523 b 359 68 586 182 494 68 b 134 353 224 68 134 180 b 359 637 134 525 224 637 z m 316 -89 l 128 -289 l 216 -289 l 350 -146 l 353 -146 l 486 -289 l 574 -289 l 387 -89 z "},"ḑ":{"ha":759,"x_min":0,"x_max":0,"o":"m 344 -12 b 588 149 458 -12 548 54 l 590 149 l 590 0 l 675 0 l 675 979 l 585 979 l 585 560 l 583 560 b 342 717 546 652 456 717 b 42 353 165 717 42 572 b 344 -12 42 134 165 -12 z m 359 637 b 586 353 494 637 586 523 b 359 68 586 182 494 68 b 134 353 224 68 134 180 b 359 637 134 525 224 637 z m 323 -327 l 409 -89 l 328 -89 l 256 -327 z "},"ḏ":{"ha":759,"x_min":0,"x_max":0,"o":"m 344 -12 b 588 149 458 -12 548 54 l 590 149 l 590 0 l 675 0 l 675 979 l 585 979 l 585 560 l 583 560 b 342 717 546 652 456 717 b 42 353 165 717 42 572 b 344 -12 42 134 165 -12 z m 359 637 b 586 353 494 637 586 523 b 359 68 586 182 494 68 b 134 353 224 68 134 180 b 359 637 134 525 224 637 z m 558 -143 l 144 -143 l 144 -205 l 558 -205 z "},"ď":{"ha":847,"x_min":0,"x_max":0,"o":"m 784 979 l 784 688 l 842 688 l 857 979 z m 344 -12 b 588 149 458 -12 548 54 l 590 149 l 590 0 l 675 0 l 675 979 l 585 979 l 585 560 l 583 560 b 342 717 546 652 456 717 b 42 353 165 717 42 572 b 344 -12 42 134 165 -12 z m 359 637 b 586 353 494 637 586 523 b 359 68 586 182 494 68 b 134 353 224 68 134 180 b 359 637 134 525 224 637 z "},"ḍ":{"ha":759,"x_min":0,"x_max":0,"o":"m 344 -12 b 588 149 458 -12 548 54 l 590 149 l 590 0 l 675 0 l 675 979 l 585 979 l 585 560 l 583 560 b 342 717 546 652 456 717 b 42 353 165 717 42 572 b 344 -12 42 134 165 -12 z m 359 637 b 586 353 494 637 586 523 b 359 68 586 182 494 68 b 134 353 224 68 134 180 b 359 637 134 525 224 637 z m 351 -237 b 420 -168 389 -237 420 -205 b 351 -98 420 -130 389 -98 b 282 -168 313 -98 282 -130 b 351 -237 282 -205 313 -237 z "},"đ":{"ha":772,"x_min":0,"x_max":0,"o":"m 359 72 b 134 353 225 72 134 184 b 359 633 134 521 225 633 b 586 353 494 633 586 519 b 359 72 586 186 494 72 z m 763 896 l 675 896 l 675 979 l 585 979 l 585 896 l 414 896 l 414 831 l 585 831 l 585 560 l 583 560 b 342 713 545 652 456 713 b 42 353 166 713 42 568 b 344 -8 42 137 167 -8 b 588 149 458 -8 548 54 l 590 149 l 590 0 l 675 0 l 675 831 l 763 831 z "},"e":{"ha":705,"x_min":0,"x_max":0,"o":"m 356 638 b 570 402 484 638 568 541 l 135 402 b 356 638 142 541 230 638 z m 565 200 b 365 67 545 123 471 67 b 134 326 224 67 134 166 l 134 331 l 663 331 l 663 369 b 357 717 663 579 545 717 b 42 351 166 717 42 570 b 363 -12 42 127 165 -12 b 654 200 518 -12 633 78 z "},"è":{"ha":705,"x_min":0,"x_max":0,"o":"m 356 638 b 570 402 484 638 568 541 l 135 402 b 356 638 142 541 230 638 z m 565 200 b 365 67 545 123 471 67 b 134 326 224 67 134 166 l 134 331 l 663 331 l 663 369 b 357 717 663 579 545 717 b 42 351 166 717 42 570 b 363 -12 42 127 165 -12 b 654 200 518 -12 633 78 z m 397 813 l 249 1018 l 150 1018 l 317 813 z "},"ȅ":{"ha":705,"x_min":0,"x_max":0,"o":"m 356 638 b 570 402 484 638 568 541 l 135 402 b 356 638 142 541 230 638 z m 565 200 b 365 67 545 123 471 67 b 134 326 224 67 134 166 l 134 331 l 663 331 l 663 369 b 357 717 663 579 545 717 b 42 351 166 717 42 570 b 363 -12 42 127 165 -12 b 654 200 518 -12 633 78 z m 298 813 l 156 1018 l 58 1018 l 223 813 z m 491 813 l 349 1018 l 252 1018 l 416 813 z "},"é":{"ha":705,"x_min":0,"x_max":0,"o":"m 356 638 b 570 402 484 638 568 541 l 135 402 b 356 638 142 541 230 638 z m 565 200 b 365 67 545 123 471 67 b 134 326 224 67 134 166 l 134 331 l 663 331 l 663 369 b 357 717 663 579 545 717 b 42 351 166 717 42 570 b 363 -12 42 127 165 -12 b 654 200 518 -12 633 78 z m 394 813 l 561 1018 l 462 1018 l 313 813 z "},"ê":{"ha":705,"x_min":0,"x_max":0,"o":"m 356 638 b 570 402 484 638 568 541 l 135 402 b 356 638 142 541 230 638 z m 565 200 b 365 67 545 123 471 67 b 134 326 224 67 134 166 l 134 331 l 663 331 l 663 369 b 357 717 663 579 545 717 b 42 351 166 717 42 570 b 363 -12 42 127 165 -12 b 654 200 518 -12 633 78 z m 393 1018 l 322 1018 l 139 813 l 225 813 l 355 960 l 359 960 l 489 813 l 575 813 z "},"ể":{"ha":705,"x_min":0,"x_max":0,"o":"m 356 638 b 570 402 484 638 568 541 l 135 402 b 356 638 142 541 230 638 z m 565 200 b 365 67 545 123 471 67 b 134 326 224 67 134 166 l 134 331 l 663 331 l 663 369 b 357 717 663 579 545 717 b 42 351 166 717 42 570 b 363 -12 42 127 165 -12 b 654 200 518 -12 633 78 z m 420 1132 b 489 1147 439 1141 464 1147 b 551 1095 525 1147 551 1125 b 494 1025 551 1065 530 1039 l 531 987 b 615 1099 585 1006 615 1046 b 495 1202 615 1161 568 1202 b 420 1185 467 1202 435 1194 z m 393 1006 l 321 1006 l 139 813 l 226 813 l 356 951 l 359 951 l 489 813 l 576 813 z "},"ề":{"ha":705,"x_min":0,"x_max":0,"o":"m 356 638 b 570 402 484 638 568 541 l 135 402 b 356 638 142 541 230 638 z m 565 200 b 365 67 545 123 471 67 b 134 326 224 67 134 166 l 134 331 l 663 331 l 663 369 b 357 717 663 579 545 717 b 42 351 166 717 42 570 b 363 -12 42 127 165 -12 b 654 200 518 -12 633 78 z m 393 1006 l 321 1006 l 139 813 l 226 813 l 356 951 l 359 951 l 489 813 l 576 813 z m 621 1006 l 469 1210 l 381 1210 l 545 1006 z "},"ễ":{"ha":705,"x_min":0,"x_max":0,"o":"m 356 638 b 570 402 484 638 568 541 l 135 402 b 356 638 142 541 230 638 z m 565 200 b 365 67 545 123 471 67 b 134 326 224 67 134 166 l 134 331 l 663 331 l 663 369 b 357 717 663 579 545 717 b 42 351 166 717 42 570 b 363 -12 42 127 165 -12 b 654 200 518 -12 633 78 z m 393 1006 l 321 1006 l 139 813 l 226 813 l 356 951 l 359 951 l 489 813 l 576 813 z m 444 1053 b 559 1201 513 1053 559 1112 l 496 1201 b 444 1112 496 1145 478 1112 b 272 1213 385 1112 359 1213 b 155 1066 200 1213 155 1156 l 218 1066 b 272 1154 216 1120 237 1154 b 444 1053 330 1154 356 1053 z "},"ệ":{"ha":705,"x_min":0,"x_max":0,"o":"m 356 638 b 570 402 484 638 568 541 l 135 402 b 356 638 142 541 230 638 z m 565 200 b 365 67 545 123 471 67 b 134 326 224 67 134 166 l 134 331 l 663 331 l 663 369 b 357 717 663 579 545 717 b 42 351 166 717 42 570 b 363 -12 42 127 165 -12 b 654 200 518 -12 633 78 z m 393 1018 l 322 1018 l 139 813 l 225 813 l 355 960 l 359 960 l 489 813 l 575 813 z m 362 -237 b 431 -168 400 -237 431 -205 b 362 -98 431 -130 400 -98 b 293 -168 324 -98 293 -130 b 362 -237 293 -205 324 -237 z "},"ế":{"ha":705,"x_min":0,"x_max":0,"o":"m 356 638 b 570 402 484 638 568 541 l 135 402 b 356 638 142 541 230 638 z m 565 200 b 365 67 545 123 471 67 b 134 326 224 67 134 166 l 134 331 l 663 331 l 663 369 b 357 717 663 579 545 717 b 42 351 166 717 42 570 b 363 -12 42 127 165 -12 b 654 200 518 -12 633 78 z m 393 1006 l 321 1006 l 139 813 l 226 813 l 356 951 l 359 951 l 489 813 l 576 813 z m 486 1006 l 562 1006 l 725 1210 l 637 1210 z "},"ë":{"ha":705,"x_min":0,"x_max":0,"o":"m 356 638 b 570 402 484 638 568 541 l 135 402 b 356 638 142 541 230 638 z m 565 200 b 365 67 545 123 471 67 b 134 326 224 67 134 166 l 134 331 l 663 331 l 663 369 b 357 717 663 579 545 717 b 42 351 166 717 42 570 b 363 -12 42 127 165 -12 b 654 200 518 -12 633 78 z m 242 819 b 304 882 276 819 304 847 b 242 943 304 916 276 943 b 180 882 208 943 180 916 b 242 819 180 847 208 819 z m 473 819 b 535 882 507 819 535 847 b 473 943 535 916 507 943 b 411 882 439 943 411 916 b 473 819 411 847 439 819 z "},"ẹ":{"ha":705,"x_min":0,"x_max":0,"o":"m 356 638 b 570 402 484 638 568 541 l 135 402 b 356 638 142 541 230 638 z m 565 200 b 365 67 545 123 471 67 b 134 326 224 67 134 166 l 134 331 l 663 331 l 663 369 b 357 717 663 579 545 717 b 42 351 166 717 42 570 b 363 -12 42 127 165 -12 b 654 200 518 -12 633 78 z m 362 -237 b 431 -168 400 -237 431 -205 b 362 -98 431 -130 400 -98 b 293 -168 324 -98 293 -130 b 362 -237 293 -205 324 -237 z "},"ȇ":{"ha":705,"x_min":0,"x_max":0,"o":"m 356 638 b 570 402 484 638 568 541 l 135 402 b 356 638 142 541 230 638 z m 565 200 b 365 67 545 123 471 67 b 134 326 224 67 134 166 l 134 331 l 663 331 l 663 369 b 357 717 663 579 545 717 b 42 351 166 717 42 570 b 363 -12 42 127 165 -12 b 654 200 518 -12 633 78 z m 153 813 l 220 813 b 357 947 220 895 277 947 b 494 813 438 947 494 895 l 562 813 b 357 1007 562 931 481 1007 b 153 813 234 1007 153 931 z "},"ẻ":{"ha":705,"x_min":0,"x_max":0,"o":"m 356 638 b 570 402 484 638 568 541 l 135 402 b 356 638 142 541 230 638 z m 565 200 b 365 67 545 123 471 67 b 134 326 224 67 134 166 l 134 331 l 663 331 l 663 369 b 357 717 663 579 545 717 b 42 351 166 717 42 570 b 363 -12 42 127 165 -12 b 654 200 518 -12 633 78 z m 278 946 b 347 964 303 959 323 964 b 411 909 384 964 411 941 b 351 838 411 875 391 852 l 385 792 b 481 913 442 814 481 861 b 362 1021 481 978 434 1021 b 278 1004 329 1021 303 1016 z "},"ě":{"ha":705,"x_min":0,"x_max":0,"o":"m 356 638 b 570 402 484 638 568 541 l 135 402 b 356 638 142 541 230 638 z m 565 200 b 365 67 545 123 471 67 b 134 326 224 67 134 166 l 134 331 l 663 331 l 663 369 b 357 717 663 579 545 717 b 42 351 166 717 42 570 b 363 -12 42 127 165 -12 b 654 200 518 -12 633 78 z m 393 813 l 575 1018 l 489 1018 l 359 869 l 355 869 l 225 1018 l 139 1018 l 322 813 z "},"ē":{"ha":705,"x_min":0,"x_max":0,"o":"m 356 638 b 570 402 484 638 568 541 l 135 402 b 356 638 142 541 230 638 z m 565 200 b 365 67 545 123 471 67 b 134 326 224 67 134 166 l 134 331 l 663 331 l 663 369 b 357 717 663 579 545 717 b 42 351 166 717 42 570 b 363 -12 42 127 165 -12 b 654 200 518 -12 633 78 z m 538 916 l 174 916 l 174 854 l 538 854 z "},"ḕ":{"ha":705,"x_min":0,"x_max":0,"o":"m 356 638 b 570 402 484 638 568 541 l 135 402 b 356 638 142 541 230 638 z m 565 200 b 365 67 545 123 471 67 b 134 326 224 67 134 166 l 134 331 l 663 331 l 663 369 b 357 717 663 579 545 717 b 42 351 166 717 42 570 b 363 -12 42 127 165 -12 b 654 200 518 -12 633 78 z m 410 1006 l 258 1210 l 171 1210 l 334 1006 z m 538 897 l 174 897 l 174 835 l 538 835 z "},"ḗ":{"ha":705,"x_min":0,"x_max":0,"o":"m 356 638 b 570 402 484 638 568 541 l 135 402 b 356 638 142 541 230 638 z m 565 200 b 365 67 545 123 471 67 b 134 326 224 67 134 166 l 134 331 l 663 331 l 663 369 b 357 717 663 579 545 717 b 42 351 166 717 42 570 b 363 -12 42 127 165 -12 b 654 200 518 -12 633 78 z m 304 1006 l 380 1006 l 544 1210 l 456 1210 z m 538 897 l 174 897 l 174 835 l 538 835 z "},"ẽ":{"ha":705,"x_min":0,"x_max":0,"o":"m 356 638 b 570 402 484 638 568 541 l 135 402 b 356 638 142 541 230 638 z m 565 200 b 365 67 545 123 471 67 b 134 326 224 67 134 166 l 134 331 l 663 331 l 663 369 b 357 717 663 579 545 717 b 42 351 166 717 42 570 b 363 -12 42 127 165 -12 b 654 200 518 -12 633 78 z m 450 817 b 567 979 521 817 567 880 l 503 979 b 450 878 503 914 485 878 b 270 985 393 878 363 985 b 152 824 197 985 152 925 l 216 824 b 269 924 214 887 233 924 b 450 817 329 924 360 817 z "},"ḙ":{"ha":705,"x_min":0,"x_max":0,"o":"m 356 638 b 570 402 484 638 568 541 l 135 402 b 356 638 142 541 230 638 z m 565 200 b 365 67 545 123 471 67 b 134 326 224 67 134 166 l 134 331 l 663 331 l 663 369 b 357 717 663 579 545 717 b 42 351 166 717 42 570 b 363 -12 42 127 165 -12 b 654 200 518 -12 633 78 z m 327 -89 l 139 -289 l 227 -289 l 361 -146 l 363 -146 l 497 -289 l 585 -289 l 397 -89 z "},"ĕ":{"ha":705,"x_min":0,"x_max":0,"o":"m 356 638 b 570 402 484 638 568 541 l 135 402 b 356 638 142 541 230 638 z m 565 200 b 365 67 545 123 471 67 b 134 326 224 67 134 166 l 134 331 l 663 331 l 663 369 b 357 717 663 579 545 717 b 42 351 166 717 42 570 b 363 -12 42 127 165 -12 b 654 200 518 -12 633 78 z m 153 1002 b 357 809 153 886 233 809 b 561 1002 480 809 561 886 l 494 1002 b 357 867 494 920 437 867 b 220 1002 276 867 220 920 z "},"ḛ":{"ha":705,"x_min":0,"x_max":0,"o":"m 356 638 b 570 402 484 638 568 541 l 135 402 b 356 638 142 541 230 638 z m 565 200 b 365 67 545 123 471 67 b 134 326 224 67 134 166 l 134 331 l 663 331 l 663 369 b 357 717 663 579 545 717 b 42 351 166 717 42 570 b 363 -12 42 127 165 -12 b 654 200 518 -12 633 78 z m 452 -234 b 570 -73 524 -234 570 -172 l 506 -73 b 453 -173 506 -137 488 -173 b 273 -66 395 -173 366 -66 b 155 -227 199 -66 155 -126 l 218 -227 b 272 -127 216 -164 235 -127 b 452 -234 332 -127 363 -234 z "},"ė":{"ha":705,"x_min":0,"x_max":0,"o":"m 356 638 b 570 402 484 638 568 541 l 135 402 b 356 638 142 541 230 638 z m 565 200 b 365 67 545 123 471 67 b 134 326 224 67 134 166 l 134 331 l 663 331 l 663 369 b 357 717 663 579 545 717 b 42 351 166 717 42 570 b 363 -12 42 127 165 -12 b 654 200 518 -12 633 78 z m 357 819 b 428 889 396 819 428 850 b 357 960 428 928 396 960 b 287 889 319 960 287 928 b 357 819 287 850 319 819 z "},"ȩ":{"ha":705,"x_min":0,"x_max":0,"o":"m 135 402 b 356 638 142 541 230 638 b 570 402 484 638 568 541 z m 663 331 l 663 369 b 357 717 663 579 545 717 b 42 351 166 717 42 570 b 332 -10 42 139 152 3 l 293 -106 l 293 -144 l 335 -144 b 438 -199 405 -144 438 -161 b 342 -259 438 -235 401 -259 b 258 -250 313 -259 275 -255 l 258 -306 b 353 -316 276 -312 317 -317 b 509 -197 441 -315 509 -272 b 365 -90 509 -130 453 -92 l 400 -9 b 654 200 536 3 635 88 l 565 200 b 365 67 545 123 471 67 b 134 326 224 67 134 166 l 134 331 z "},"ḝ":{"ha":705,"x_min":0,"x_max":0,"o":"m 494 1002 b 357 867 494 920 437 867 b 220 1002 276 867 220 920 l 153 1002 b 357 809 153 886 233 809 b 561 1002 480 809 561 886 z m 135 402 b 356 638 142 541 230 638 b 570 402 484 638 568 541 z m 663 331 l 663 369 b 357 717 663 579 545 717 b 42 351 166 717 42 570 b 332 -10 42 139 152 3 l 293 -106 l 293 -144 l 335 -144 b 438 -199 405 -144 438 -161 b 342 -259 438 -235 401 -259 b 258 -250 313 -259 275 -255 l 258 -306 b 353 -316 276 -312 317 -317 b 509 -197 441 -315 509 -272 b 365 -90 509 -130 453 -92 l 400 -9 b 654 200 536 3 635 88 l 565 200 b 365 67 545 123 471 67 b 134 326 224 67 134 166 l 134 331 z "},"ę":{"ha":705,"x_min":0,"x_max":0,"o":"m 477 -270 b 545 -260 507 -270 534 -266 l 545 -197 b 494 -203 532 -201 513 -203 b 409 -132 446 -203 409 -177 b 524 20 409 -80 451 -32 b 654 200 585 63 640 121 l 565 200 b 365 67 545 123 471 67 b 134 326 224 67 134 166 l 134 331 l 663 331 l 663 369 b 357 717 663 579 545 717 b 42 351 166 717 42 570 b 363 -12 42 127 165 -12 b 425 -3 383 -12 409 -8 l 425 -5 b 334 -152 366 -48 334 -99 b 477 -270 334 -223 394 -270 z m 356 638 b 570 402 484 638 568 541 l 135 402 b 356 638 142 541 230 638 z "},"f":{"ha":394,"x_min":0,"x_max":0,"o":"m 113 0 l 203 0 l 203 631 l 355 631 l 355 705 l 203 705 l 203 793 b 307 906 203 871 239 906 b 359 901 326 906 345 904 l 359 975 b 294 981 344 978 318 981 b 113 795 176 981 113 922 l 113 705 l 15 705 l 15 631 l 113 631 z "},"ḟ":{"ha":388,"x_min":0,"x_max":0,"o":"m 113 0 l 203 0 l 203 631 l 355 631 l 355 705 l 203 705 l 203 793 b 307 906 203 871 239 906 b 359 901 326 906 345 904 l 359 975 b 294 981 344 978 318 981 b 113 795 176 981 113 922 l 113 705 l 15 705 l 15 631 l 113 631 z m 229 1048 b 298 1118 267 1048 298 1080 b 229 1187 298 1156 267 1187 b 159 1118 191 1187 159 1156 b 229 1048 159 1080 191 1048 z "},"g":{"ha":751,"x_min":0,"x_max":0,"o":"m 356 73 b 134 354 223 73 134 184 b 356 637 134 526 223 637 b 583 355 492 637 583 524 b 356 73 583 186 492 73 z m 365 -261 b 673 12 553 -261 673 -153 l 673 705 l 588 705 l 588 556 l 586 556 b 342 717 545 652 454 717 b 42 355 161 717 42 574 b 340 -7 42 136 161 -7 b 581 150 452 -7 543 59 l 583 150 l 583 8 b 369 -184 583 -107 501 -184 b 168 -65 267 -184 191 -134 l 75 -65 b 365 -261 95 -176 211 -261 z "},"ǵ":{"ha":751,"x_min":0,"x_max":0,"o":"m 356 73 b 134 354 223 73 134 184 b 356 637 134 526 223 637 b 583 355 492 637 583 524 b 356 73 583 186 492 73 z m 365 -261 b 673 12 553 -261 673 -153 l 673 705 l 588 705 l 588 556 l 586 556 b 342 717 545 652 454 717 b 42 355 161 717 42 574 b 340 -7 42 136 161 -7 b 581 150 452 -7 543 59 l 583 150 l 583 8 b 369 -184 583 -107 501 -184 b 168 -65 267 -184 191 -134 l 75 -65 b 365 -261 95 -176 211 -261 z m 402 813 l 569 1018 l 470 1018 l 321 813 z "},"ǧ":{"ha":751,"x_min":0,"x_max":0,"o":"m 356 73 b 134 354 223 73 134 184 b 356 637 134 526 223 637 b 583 355 492 637 583 524 b 356 73 583 186 492 73 z m 365 -261 b 673 12 553 -261 673 -153 l 673 705 l 588 705 l 588 556 l 586 556 b 342 717 545 652 454 717 b 42 355 161 717 42 574 b 340 -7 42 136 161 -7 b 581 150 452 -7 543 59 l 583 150 l 583 8 b 369 -184 583 -107 501 -184 b 168 -65 267 -184 191 -134 l 75 -65 b 365 -261 95 -176 211 -261 z m 401 813 l 583 1018 l 497 1018 l 367 869 l 363 869 l 233 1018 l 147 1018 l 330 813 z "},"ĝ":{"ha":751,"x_min":0,"x_max":0,"o":"m 356 73 b 134 354 223 73 134 184 b 356 637 134 526 223 637 b 583 355 492 637 583 524 b 356 73 583 186 492 73 z m 365 -261 b 673 12 553 -261 673 -153 l 673 705 l 588 705 l 588 556 l 586 556 b 342 717 545 652 454 717 b 42 355 161 717 42 574 b 340 -7 42 136 161 -7 b 581 150 452 -7 543 59 l 583 150 l 583 8 b 369 -184 583 -107 501 -184 b 168 -65 267 -184 191 -134 l 75 -65 b 365 -261 95 -176 211 -261 z m 401 1018 l 330 1018 l 147 813 l 233 813 l 363 960 l 367 960 l 497 813 l 583 813 z "},"ğ":{"ha":751,"x_min":0,"x_max":0,"o":"m 356 73 b 134 354 223 73 134 184 b 356 637 134 526 223 637 b 583 355 492 637 583 524 b 356 73 583 186 492 73 z m 365 -261 b 673 12 553 -261 673 -153 l 673 705 l 588 705 l 588 556 l 586 556 b 342 717 545 652 454 717 b 42 355 161 717 42 574 b 340 -7 42 136 161 -7 b 581 150 452 -7 543 59 l 583 150 l 583 8 b 369 -184 583 -107 501 -184 b 168 -65 267 -184 191 -134 l 75 -65 b 365 -261 95 -176 211 -261 z m 161 1002 b 365 809 161 886 241 809 b 569 1002 488 809 569 886 l 502 1002 b 365 867 502 920 446 867 b 228 1002 284 867 228 920 z "},"ḡ":{"ha":751,"x_min":0,"x_max":0,"o":"m 356 73 b 134 354 223 73 134 184 b 356 637 134 526 223 637 b 583 355 492 637 583 524 b 356 73 583 186 492 73 z m 365 -261 b 673 12 553 -261 673 -153 l 673 705 l 588 705 l 588 556 l 586 556 b 342 717 545 652 454 717 b 42 355 161 717 42 574 b 340 -7 42 136 161 -7 b 581 150 452 -7 543 59 l 583 150 l 583 8 b 369 -184 583 -107 501 -184 b 168 -65 267 -184 191 -134 l 75 -65 b 365 -261 95 -176 211 -261 z m 547 916 l 182 916 l 182 854 l 547 854 z "},"ġ":{"ha":751,"x_min":0,"x_max":0,"o":"m 356 73 b 134 354 223 73 134 184 b 356 637 134 526 223 637 b 583 355 492 637 583 524 b 356 73 583 186 492 73 z m 365 -261 b 673 12 553 -261 673 -153 l 673 705 l 588 705 l 588 556 l 586 556 b 342 717 545 652 454 717 b 42 355 161 717 42 574 b 340 -7 42 136 161 -7 b 581 150 452 -7 543 59 l 583 150 l 583 8 b 369 -184 583 -107 501 -184 b 168 -65 267 -184 191 -134 l 75 -65 b 365 -261 95 -176 211 -261 z m 366 819 b 436 889 404 819 436 850 b 366 960 436 928 404 960 b 295 889 327 960 295 928 b 366 819 295 850 327 819 z "},"ģ":{"ha":751,"x_min":0,"x_max":0,"o":"m 356 73 b 134 354 223 73 134 184 b 356 637 134 526 223 637 b 583 355 492 637 583 524 b 356 73 583 186 492 73 z m 365 -261 b 673 12 553 -261 673 -153 l 673 705 l 588 705 l 588 556 l 586 556 b 342 717 545 652 454 717 b 42 355 161 717 42 574 b 340 -7 42 136 161 -7 b 581 150 452 -7 543 59 l 583 150 l 583 8 b 369 -184 583 -107 501 -184 b 168 -65 267 -184 191 -134 l 75 -65 b 365 -261 95 -176 211 -261 z m 394 1032 l 308 794 l 389 794 l 461 1032 z "},"h":{"ha":734,"x_min":0,"x_max":0,"o":"m 83 0 l 174 0 l 174 415 b 382 637 174 548 256 637 b 570 441 502 637 570 563 l 570 0 l 661 0 l 661 456 b 408 717 661 614 563 717 b 176 575 296 717 212 662 l 174 575 l 174 979 l 83 979 z "},"ḧ":{"ha":734,"x_min":0,"x_max":0,"o":"m 83 0 l 174 0 l 174 415 b 382 637 174 548 256 637 b 570 441 502 637 570 563 l 570 0 l 661 0 l 661 456 b 408 717 661 614 563 717 b 176 575 296 717 212 662 l 174 575 l 174 979 l 83 979 z m 14 1077 b 75 1139 47 1077 75 1105 b 14 1201 75 1173 47 1201 b -49 1139 -20 1201 -49 1173 b 14 1077 -49 1105 -20 1077 z m 244 1077 b 307 1139 278 1077 307 1105 b 244 1201 307 1173 278 1201 b 182 1139 210 1201 182 1173 b 244 1077 182 1105 210 1077 z "},"ȟ":{"ha":734,"x_min":0,"x_max":0,"o":"m 83 0 l 174 0 l 174 415 b 382 637 174 548 256 637 b 570 441 502 637 570 563 l 570 0 l 661 0 l 661 456 b 408 717 661 614 563 717 b 176 575 296 717 212 662 l 174 575 l 174 979 l 83 979 z m 94 1052 l 164 1052 l 352 1252 l 264 1252 l 130 1109 l 127 1109 l -6 1252 l -94 1252 z "},"ĥ":{"ha":734,"x_min":0,"x_max":0,"o":"m 83 0 l 174 0 l 174 415 b 382 637 174 548 256 637 b 570 441 502 637 570 563 l 570 0 l 661 0 l 661 456 b 408 717 661 614 563 717 b 176 575 296 717 212 662 l 174 575 l 174 979 l 83 979 z m 94 1247 l -94 1047 l -6 1047 l 127 1190 l 130 1190 l 264 1047 l 352 1047 l 164 1247 z "},"ḥ":{"ha":734,"x_min":0,"x_max":0,"o":"m 83 0 l 174 0 l 174 415 b 382 637 174 548 256 637 b 570 441 502 637 570 563 l 570 0 l 661 0 l 661 456 b 408 717 661 614 563 717 b 176 575 296 717 212 662 l 174 575 l 174 979 l 83 979 z m 373 -237 b 442 -168 411 -237 442 -205 b 373 -98 442 -130 411 -98 b 304 -168 335 -98 304 -130 b 373 -237 304 -205 335 -237 z "},"ḣ":{"ha":734,"x_min":0,"x_max":0,"o":"m 83 0 l 174 0 l 174 415 b 382 637 174 548 256 637 b 570 441 502 637 570 563 l 570 0 l 661 0 l 661 456 b 408 717 661 614 563 717 b 176 575 296 717 212 662 l 174 575 l 174 979 l 83 979 z m 129 1068 b 198 1137 167 1068 198 1099 b 129 1206 198 1175 167 1206 b 60 1137 91 1206 60 1175 b 129 1068 60 1099 91 1068 z "},"ḫ":{"ha":734,"x_min":0,"x_max":0,"o":"m 83 0 l 174 0 l 174 415 b 382 637 174 548 256 637 b 570 441 502 637 570 563 l 570 0 l 661 0 l 661 456 b 408 717 661 614 563 717 b 176 575 296 717 212 662 l 174 575 l 174 979 l 83 979 z m 170 -77 b 373 -264 176 -180 252 -264 b 576 -77 494 -264 570 -180 l 509 -77 b 373 -203 503 -154 450 -203 b 237 -77 296 -203 243 -154 z "},"ḩ":{"ha":734,"x_min":0,"x_max":0,"o":"m 174 575 l 174 979 l 83 979 l 83 0 l 105 0 l 62 -106 l 62 -144 l 104 -144 b 208 -199 174 -144 208 -161 b 111 -259 208 -235 171 -259 b 28 -250 82 -259 44 -255 l 28 -306 b 123 -316 45 -312 87 -317 b 278 -197 211 -315 278 -272 b 134 -90 278 -130 222 -92 l 174 0 l 174 5 l 174 415 b 382 637 174 548 256 637 b 570 441 502 637 570 563 l 570 0 l 661 0 l 661 456 b 408 717 661 614 563 717 b 176 575 296 717 212 662 z "},"ħ":{"ha":739,"x_min":0,"x_max":0,"o":"m 178 575 l 178 831 l 357 831 l 357 896 l 178 896 l 178 979 l 88 979 l 88 896 l 9 896 l 9 831 l 88 831 l 88 0 l 178 0 l 178 415 b 387 637 178 548 260 637 b 575 441 506 637 575 563 l 575 0 l 665 0 l 665 456 b 413 717 665 614 568 717 b 180 575 300 717 216 662 z "},"ẖ":{"ha":734,"x_min":0,"x_max":0,"o":"m 83 0 l 174 0 l 174 415 b 382 637 174 548 256 637 b 570 441 502 637 570 563 l 570 0 l 661 0 l 661 456 b 408 717 661 614 563 717 b 176 575 296 717 212 662 l 174 575 l 174 979 l 83 979 z m 580 -143 l 166 -143 l 166 -205 l 580 -205 z "},"i":{"ha":256,"x_min":0,"x_max":0,"o":"m 83 0 l 173 0 l 173 705 l 83 705 z m 128 848 b 189 907 161 848 189 874 b 128 966 189 940 161 966 b 68 907 96 966 68 940 b 128 848 68 874 96 848 z "},"ì":{"ha":256,"x_min":0,"x_max":0,"o":"m 83 0 l 173 0 l 173 705 l 83 705 z m 168 813 l 20 1018 l -79 1018 l 87 813 z "},"ȉ":{"ha":256,"x_min":0,"x_max":0,"o":"m 83 0 l 173 0 l 173 705 l 83 705 z m 68 813 l -73 1018 l -171 1018 l -6 813 z m 262 813 l 120 1018 l 22 1018 l 187 813 z "},"í":{"ha":256,"x_min":0,"x_max":0,"o":"m 83 0 l 173 0 l 173 705 l 83 705 z m 165 813 l 332 1018 l 233 1018 l 84 813 z "},"î":{"ha":256,"x_min":0,"x_max":0,"o":"m 83 0 l 173 0 l 173 705 l 83 705 z m 163 1018 l 93 1018 l -90 813 l -4 813 l 126 960 l 130 960 l 260 813 l 346 813 z "},"ǐ":{"ha":256,"x_min":0,"x_max":0,"o":"m 83 0 l 173 0 l 173 705 l 83 705 z m 163 813 l 346 1018 l 260 1018 l 130 869 l 126 869 l -4 1018 l -90 1018 l 93 813 z "},"ï":{"ha":256,"x_min":0,"x_max":0,"o":"m 83 0 l 173 0 l 173 705 l 83 705 z m 13 819 b 75 882 47 819 75 847 b 13 943 75 916 47 943 b -50 882 -21 943 -50 916 b 13 819 -50 847 -21 819 z m 243 819 b 306 882 277 819 306 847 b 243 943 306 916 277 943 b 182 882 210 943 182 916 b 243 819 182 847 210 819 z "},"ḯ":{"ha":256,"x_min":0,"x_max":0,"o":"m 83 0 l 173 0 l 173 705 l 83 705 z m 75 1006 l 151 1006 l 315 1210 l 227 1210 z m 13 796 b 75 859 47 796 75 824 b 13 920 75 892 47 920 b -50 859 -21 920 -50 892 b 13 796 -50 824 -21 796 z m 243 796 b 306 859 277 796 306 824 b 243 920 306 892 277 920 b 182 859 210 920 182 892 b 243 796 182 824 210 796 z "},"ĭ":{"ha":256,"x_min":0,"x_max":0,"o":"m 83 0 l 173 0 l 173 705 l 83 705 z m -77 1002 b 127 809 -77 886 4 809 b 332 1002 251 809 332 886 l 264 1002 b 127 867 264 920 208 867 b -9 1002 47 867 -9 920 z "},"ị":{"ha":256,"x_min":0,"x_max":0,"o":"m 83 0 l 173 0 l 173 705 l 83 705 z m 128 848 b 189 907 161 848 189 874 b 128 966 189 940 161 966 b 68 907 96 966 68 940 b 128 848 68 874 96 848 z m 128 -237 b 197 -168 166 -237 197 -205 b 128 -98 197 -130 166 -98 b 59 -168 90 -98 59 -130 b 128 -237 59 -205 90 -237 z "},"ȋ":{"ha":256,"x_min":0,"x_max":0,"o":"m 83 0 l 173 0 l 173 705 l 83 705 z m -76 813 l -9 813 b 128 947 -9 895 47 947 b 265 813 209 947 265 895 l 332 813 b 128 1007 332 931 252 1007 b -76 813 5 1007 -76 931 z "},"ī":{"ha":256,"x_min":0,"x_max":0,"o":"m 83 0 l 173 0 l 173 705 l 83 705 z m 282 916 l -28 916 l -28 854 l 282 854 z "},"ḭ":{"ha":256,"x_min":0,"x_max":0,"o":"m 83 0 l 173 0 l 173 705 l 83 705 z m 128 848 b 189 907 161 848 189 874 b 128 966 189 940 161 966 b 68 907 96 966 68 940 b 128 848 68 874 96 848 z m 218 -234 b 336 -73 290 -234 336 -172 l 272 -73 b 219 -173 272 -137 254 -173 b 39 -66 161 -173 132 -66 b -79 -227 -35 -66 -79 -126 l -16 -227 b 38 -127 -18 -164 1 -127 b 218 -234 98 -127 129 -234 z "},"ỉ":{"ha":256,"x_min":0,"x_max":0,"o":"m 83 0 l 173 0 l 173 705 l 83 705 z m 35 946 b 104 964 60 959 80 964 b 168 909 141 964 168 941 b 109 838 168 875 148 852 l 142 792 b 238 913 199 814 238 861 b 119 1021 238 978 191 1021 b 35 1004 86 1021 60 1016 z "},"ĩ":{"ha":256,"x_min":0,"x_max":0,"o":"m 83 0 l 173 0 l 173 705 l 83 705 z m 220 817 b 338 979 292 817 338 880 l 274 979 b 221 878 274 914 256 878 b 41 985 163 878 134 985 b -77 824 -33 985 -77 925 l -14 824 b 40 924 -16 887 3 924 b 220 817 100 924 131 817 z "},"į":{"ha":256,"x_min":0,"x_max":0,"o":"m 128 843 b 189 903 161 843 189 870 b 128 962 189 936 161 962 b 68 903 96 962 68 936 b 128 843 68 870 96 843 z m 83 2 b -14 -151 20 -39 -14 -96 b 130 -270 -14 -222 47 -270 b 198 -260 160 -270 186 -266 l 198 -197 b 146 -203 184 -201 165 -203 b 62 -133 98 -203 62 -178 b 166 -1 62 -81 98 -43 l 173 4 l 173 705 l 83 705 z "},"j":{"ha":256,"x_min":0,"x_max":0,"o":"m 173 705 l 83 705 l 83 -46 b -33 -164 83 -132 50 -164 b -52 -164 -34 -164 -51 -164 l -52 -240 b -30 -241 -51 -241 -32 -241 b 173 -45 108 -241 173 -182 z m 128 848 b 189 907 161 848 189 874 b 128 966 189 940 161 966 b 68 907 96 966 68 940 b 128 848 68 874 96 848 z "},"ĵ":{"ha":256,"x_min":0,"x_max":0,"o":"m 173 705 l 83 705 l 83 -46 b -33 -164 83 -131 51 -164 b -52 -164 -34 -164 -51 -164 l -52 -240 b -30 -241 -51 -241 -32 -241 b 173 -45 110 -241 173 -180 z m 163 1018 l 93 1018 l -90 813 l -4 813 l 126 960 l 130 960 l 260 813 l 346 813 z "},"k":{"ha":649,"x_min":0,"x_max":0,"o":"m 174 372 l 174 372 l 174 979 l 83 979 l 83 0 l 174 0 l 174 273 l 252 346 l 534 0 l 640 0 l 317 401 l 633 705 l 522 705 z "},"ḱ":{"ha":649,"x_min":0,"x_max":0,"o":"m 174 372 l 174 372 l 174 979 l 83 979 l 83 0 l 174 0 l 174 273 l 252 346 l 534 0 l 640 0 l 317 401 l 633 705 l 522 705 z m 173 1057 l 359 1252 l 256 1252 l 91 1057 z "},"ǩ":{"ha":649,"x_min":0,"x_max":0,"o":"m 174 372 l 174 372 l 174 979 l 83 979 l 83 0 l 174 0 l 174 273 l 252 346 l 534 0 l 640 0 l 317 401 l 633 705 l 522 705 z m 93 1052 l 163 1052 l 351 1252 l 263 1252 l 130 1109 l 127 1109 l -7 1252 l -95 1252 z "},"ḳ":{"ha":649,"x_min":0,"x_max":0,"o":"m 174 372 l 174 372 l 174 979 l 83 979 l 83 0 l 174 0 l 174 273 l 252 346 l 534 0 l 640 0 l 317 401 l 633 705 l 522 705 z m 345 -237 b 414 -168 383 -237 414 -205 b 345 -98 414 -130 383 -98 b 276 -168 307 -98 276 -130 b 345 -237 276 -205 307 -237 z "},"ḵ":{"ha":649,"x_min":0,"x_max":0,"o":"m 174 372 l 174 372 l 174 979 l 83 979 l 83 0 l 174 0 l 174 273 l 252 346 l 534 0 l 640 0 l 317 401 l 633 705 l 522 705 z m 552 -143 l 138 -143 l 138 -205 l 552 -205 z "},"ķ":{"ha":649,"x_min":0,"x_max":0,"o":"m 174 372 l 174 372 l 174 979 l 83 979 l 83 0 l 174 0 l 174 273 l 252 346 l 534 0 l 640 0 l 317 401 l 633 705 l 522 705 z m 317 -327 l 403 -89 l 321 -89 l 250 -327 z "},"l":{"ha":256,"x_min":0,"x_max":0,"o":"m 83 0 l 173 0 l 173 979 l 83 979 z "},"ĺ":{"ha":256,"x_min":0,"x_max":0,"o":"m 83 0 l 173 0 l 173 979 l 83 979 z m 173 1057 l 359 1252 l 256 1252 l 91 1057 z "},"ḽ":{"ha":256,"x_min":0,"x_max":0,"o":"m 83 0 l 173 0 l 173 979 l 83 979 z m 93 -89 l -95 -289 l -7 -289 l 127 -146 l 130 -146 l 263 -289 l 351 -289 l 163 -89 z "},"ḷ":{"ha":256,"x_min":0,"x_max":0,"o":"m 83 0 l 173 0 l 173 979 l 83 979 z m 128 -237 b 197 -168 166 -237 197 -205 b 128 -98 197 -130 166 -98 b 59 -168 90 -98 59 -130 b 128 -237 59 -205 90 -237 z "},"ḹ":{"ha":256,"x_min":0,"x_max":0,"o":"m 83 0 l 173 0 l 173 979 l 83 979 z m 128 -237 b 197 -168 166 -237 197 -205 b 128 -98 197 -130 166 -98 b 59 -168 90 -98 59 -130 b 128 -237 59 -205 90 -237 z m 335 1166 l -79 1166 l -79 1104 l 335 1104 z "},"ḻ":{"ha":256,"x_min":0,"x_max":0,"o":"m 83 0 l 173 0 l 173 979 l 83 979 z m 335 -143 l -79 -143 l -79 -205 l 335 -205 z "},"ļ":{"ha":256,"x_min":0,"x_max":0,"o":"m 83 0 l 173 0 l 173 979 l 83 979 z m 100 -327 l 186 -89 l 104 -89 l 33 -327 z "},"ľ":{"ha":338,"x_min":0,"x_max":0,"o":"m 276 983 l 276 692 l 334 692 l 349 983 z m 83 0 l 173 0 l 173 979 l 83 979 z "},"ł":{"ha":269,"x_min":0,"x_max":0,"o":"m 260 631 l 179 590 l 179 979 l 90 979 l 90 544 l 9 503 l 9 427 l 90 469 l 90 0 l 179 0 l 179 515 l 260 557 z "},"m":{"ha":1099,"x_min":0,"x_max":0,"o":"m 77 0 l 167 0 l 167 433 b 345 637 167 553 241 637 b 507 470 441 637 507 571 l 507 0 l 597 0 l 597 444 b 773 637 597 557 669 637 b 937 462 876 637 937 571 l 937 0 l 1026 0 l 1026 482 b 798 717 1026 625 936 717 b 576 568 692 717 609 655 l 574 568 b 370 717 547 657 473 717 b 164 575 267 717 195 658 l 162 575 l 162 705 l 77 705 z "},"ḿ":{"ha":1099,"x_min":0,"x_max":0,"o":"m 77 0 l 167 0 l 167 433 b 345 637 167 553 241 637 b 507 470 441 637 507 571 l 507 0 l 597 0 l 597 444 b 773 637 597 557 669 637 b 937 462 876 637 937 571 l 937 0 l 1026 0 l 1026 482 b 798 717 1026 625 936 717 b 576 568 692 717 609 655 l 574 568 b 370 717 547 657 473 717 b 164 575 267 717 195 658 l 162 575 l 162 705 l 77 705 z m 589 813 l 755 1018 l 656 1018 l 508 813 z "},"ṁ":{"ha":1099,"x_min":0,"x_max":0,"o":"m 77 0 l 167 0 l 167 433 b 345 637 167 553 241 637 b 507 470 441 637 507 571 l 507 0 l 597 0 l 597 444 b 773 637 597 557 669 637 b 937 462 876 637 937 571 l 937 0 l 1026 0 l 1026 482 b 798 717 1026 625 936 717 b 576 568 692 717 609 655 l 574 568 b 370 717 547 657 473 717 b 164 575 267 717 195 658 l 162 575 l 162 705 l 77 705 z m 552 819 b 623 889 591 819 623 850 b 552 960 623 928 591 960 b 481 889 513 960 481 928 b 552 819 481 850 513 819 z "},"ṃ":{"ha":1099,"x_min":0,"x_max":0,"o":"m 77 0 l 167 0 l 167 433 b 345 637 167 553 241 637 b 507 470 441 637 507 571 l 507 0 l 597 0 l 597 444 b 773 637 597 557 669 637 b 937 462 876 637 937 571 l 937 0 l 1026 0 l 1026 482 b 798 717 1026 625 936 717 b 576 568 692 717 609 655 l 574 568 b 370 717 547 657 473 717 b 164 575 267 717 195 658 l 162 575 l 162 705 l 77 705 z m 552 -237 b 621 -168 590 -237 621 -205 b 552 -98 621 -130 590 -98 b 483 -168 514 -98 483 -130 b 552 -237 483 -205 514 -237 z "},"n":{"ha":720,"x_min":0,"x_max":0,"o":"m 77 0 l 167 0 l 167 418 b 371 637 167 549 249 637 b 557 443 489 637 557 566 l 557 0 l 646 0 l 646 457 b 397 717 646 617 551 717 b 164 575 283 717 200 661 l 162 575 l 162 705 l 77 705 z "},"ǹ":{"ha":720,"x_min":0,"x_max":0,"o":"m 77 0 l 167 0 l 167 418 b 371 637 167 549 249 637 b 557 443 489 637 557 566 l 557 0 l 646 0 l 646 457 b 397 717 646 617 551 717 b 164 575 283 717 200 661 l 162 575 l 162 705 l 77 705 z m 403 813 l 254 1018 l 155 1018 l 322 813 z "},"ń":{"ha":720,"x_min":0,"x_max":0,"o":"m 77 0 l 167 0 l 167 418 b 371 637 167 549 249 637 b 557 443 489 637 557 566 l 557 0 l 646 0 l 646 457 b 397 717 646 617 551 717 b 164 575 283 717 200 661 l 162 575 l 162 705 l 77 705 z m 399 813 l 566 1018 l 467 1018 l 319 813 z "},"ñ":{"ha":720,"x_min":0,"x_max":0,"o":"m 77 0 l 167 0 l 167 418 b 371 637 167 549 249 637 b 557 443 489 637 557 566 l 557 0 l 646 0 l 646 457 b 397 717 646 617 551 717 b 164 575 283 717 200 661 l 162 575 l 162 705 l 77 705 z m 454 817 b 572 979 526 817 572 880 l 508 979 b 455 878 508 914 490 878 b 275 985 397 878 368 985 b 157 824 201 985 157 925 l 220 824 b 274 924 218 887 237 924 b 454 817 334 924 365 817 z "},"ṇ":{"ha":720,"x_min":0,"x_max":0,"o":"m 77 0 l 167 0 l 167 418 b 371 637 167 549 249 637 b 557 443 489 637 557 566 l 557 0 l 646 0 l 646 457 b 397 717 646 617 551 717 b 164 575 283 717 200 661 l 162 575 l 162 705 l 77 705 z m 363 -237 b 432 -168 401 -237 432 -205 b 363 -98 432 -130 401 -98 b 294 -168 325 -98 294 -130 b 363 -237 294 -205 325 -237 z "},"ṅ":{"ha":720,"x_min":0,"x_max":0,"o":"m 77 0 l 167 0 l 167 418 b 371 637 167 549 249 637 b 557 443 489 637 557 566 l 557 0 l 646 0 l 646 457 b 397 717 646 617 551 717 b 164 575 283 717 200 661 l 162 575 l 162 705 l 77 705 z m 363 819 b 433 889 401 819 433 850 b 363 960 433 928 401 960 b 292 889 324 960 292 928 b 363 819 292 850 324 819 z "},"ň":{"ha":720,"x_min":0,"x_max":0,"o":"m 77 0 l 167 0 l 167 418 b 371 637 167 549 249 637 b 557 443 489 637 557 566 l 557 0 l 646 0 l 646 457 b 397 717 646 617 551 717 b 164 575 283 717 200 661 l 162 575 l 162 705 l 77 705 z m 398 813 l 581 1018 l 494 1018 l 364 869 l 361 869 l 231 1018 l 144 1018 l 328 813 z "},"ṋ":{"ha":720,"x_min":0,"x_max":0,"o":"m 77 0 l 167 0 l 167 418 b 371 637 167 549 249 637 b 557 443 489 637 557 566 l 557 0 l 646 0 l 646 457 b 397 717 646 617 551 717 b 164 575 283 717 200 661 l 162 575 l 162 705 l 77 705 z m 328 -89 l 140 -289 l 228 -289 l 361 -146 l 364 -146 l 498 -289 l 586 -289 l 398 -89 z "},"ṉ":{"ha":720,"x_min":0,"x_max":0,"o":"m 77 0 l 167 0 l 167 418 b 371 637 167 549 249 637 b 557 443 489 637 557 566 l 557 0 l 646 0 l 646 457 b 397 717 646 617 551 717 b 164 575 283 717 200 661 l 162 575 l 162 705 l 77 705 z m 570 -143 l 156 -143 l 156 -205 l 570 -205 z "},"ņ":{"ha":720,"x_min":0,"x_max":0,"o":"m 77 0 l 167 0 l 167 418 b 371 637 167 549 249 637 b 557 443 489 637 557 566 l 557 0 l 646 0 l 646 457 b 397 717 646 617 551 717 b 164 575 283 717 200 661 l 162 575 l 162 705 l 77 705 z m 334 -327 l 420 -89 l 339 -89 l 267 -327 z "},"o":{"ha":727,"x_min":0,"x_max":0,"o":"m 363 -12 b 685 353 555 -12 685 129 b 363 717 685 577 555 717 b 42 353 172 717 42 577 b 363 -12 42 129 172 -12 z m 363 68 b 134 353 225 68 134 174 b 363 637 134 532 225 637 b 594 353 502 637 594 532 b 363 68 594 174 502 68 z "},"ö":{"ha":727,"x_min":0,"x_max":0,"o":"m 363 -12 b 685 353 555 -12 685 129 b 363 717 685 577 555 717 b 42 353 172 717 42 577 b 363 -12 42 129 172 -12 z m 363 68 b 134 353 225 68 134 174 b 363 637 134 532 225 637 b 594 353 502 637 594 532 b 363 68 594 174 502 68 z m 248 819 b 310 881 282 819 310 846 b 248 943 310 915 282 943 b 186 881 214 943 186 915 b 248 819 186 846 214 819 z m 479 819 b 541 881 513 819 541 846 b 479 943 541 915 513 943 b 417 881 445 943 417 915 b 479 819 417 846 445 819 z "},"ø":{"ha":727,"x_min":0,"x_max":0,"o":"m 542 547 b 594 353 575 499 594 433 b 363 68 594 174 502 68 b 237 106 315 68 272 81 z m 191 151 b 134 353 154 199 134 268 b 363 637 134 532 225 637 b 498 593 416 637 462 623 z m 650 703 l 598 736 l 547 663 b 363 717 496 698 434 717 b 42 353 172 717 42 577 b 140 77 42 235 78 140 l 84 -2 l 138 -38 l 189 37 b 363 -12 238 5 297 -12 b 685 353 555 -12 685 129 b 593 622 685 467 652 559 z "},"õ":{"ha":727,"x_min":0,"x_max":0,"o":"m 363 -12 b 685 353 555 -12 685 129 b 363 717 685 577 555 717 b 42 353 172 717 42 577 b 363 -12 42 129 172 -12 z m 363 68 b 134 353 225 68 134 174 b 363 637 134 532 225 637 b 594 353 502 637 594 532 b 363 68 594 174 502 68 z m 456 817 b 573 978 527 817 573 879 l 509 978 b 456 878 509 913 491 878 b 276 984 399 878 370 984 b 158 823 203 984 158 924 l 222 823 b 275 923 220 886 239 923 b 456 817 335 923 366 817 z "},"ó":{"ha":727,"x_min":0,"x_max":0,"o":"m 363 -12 b 685 353 555 -12 685 129 b 363 717 685 577 555 717 b 42 353 172 717 42 577 b 363 -12 42 129 172 -12 z m 363 68 b 134 353 225 68 134 174 b 363 637 134 532 225 637 b 594 353 502 637 594 532 b 363 68 594 174 502 68 z m 400 812 l 567 1017 l 468 1017 l 319 812 z "},"ô":{"ha":727,"x_min":0,"x_max":0,"o":"m 363 -12 b 685 353 555 -12 685 129 b 363 717 685 577 555 717 b 42 353 172 717 42 577 b 363 -12 42 129 172 -12 z m 363 68 b 134 353 225 68 134 174 b 363 637 134 532 225 637 b 594 353 502 637 594 532 b 363 68 594 174 502 68 z m 399 1017 l 328 1017 l 145 812 l 231 812 l 361 959 l 365 959 l 495 812 l 581 812 z "},"ò":{"ha":727,"x_min":0,"x_max":0,"o":"m 363 -12 b 685 353 555 -12 685 129 b 363 717 685 577 555 717 b 42 353 172 717 42 577 b 363 -12 42 129 172 -12 z m 363 68 b 134 353 225 68 134 174 b 363 637 134 532 225 637 b 594 353 502 637 594 532 b 363 68 594 174 502 68 z m 404 812 l 255 1017 l 156 1017 l 323 812 z "},"ổ":{"ha":727,"x_min":0,"x_max":0,"o":"m 363 -12 b 685 353 555 -12 685 129 b 363 717 685 577 555 717 b 42 353 172 717 42 577 b 363 -12 42 129 172 -12 z m 363 68 b 134 353 225 68 134 174 b 363 637 134 532 225 637 b 594 353 502 637 594 532 b 363 68 594 174 502 68 z m 426 1131 b 495 1146 446 1140 470 1146 b 557 1094 531 1146 557 1124 b 500 1024 557 1065 536 1038 l 537 986 b 621 1098 591 1005 621 1046 b 501 1201 621 1160 574 1201 b 426 1184 473 1201 441 1193 z m 399 1005 l 328 1005 l 145 812 l 232 812 l 362 950 l 365 950 l 495 812 l 582 812 z "},"ồ":{"ha":727,"x_min":0,"x_max":0,"o":"m 363 -12 b 685 353 555 -12 685 129 b 363 717 685 577 555 717 b 42 353 172 717 42 577 b 363 -12 42 129 172 -12 z m 363 68 b 134 353 225 68 134 174 b 363 637 134 532 225 637 b 594 353 502 637 594 532 b 363 68 594 174 502 68 z m 399 1005 l 328 1005 l 145 812 l 232 812 l 362 950 l 365 950 l 495 812 l 582 812 z m 627 1006 l 475 1209 l 387 1209 l 551 1006 z "},"ọ":{"ha":727,"x_min":0,"x_max":0,"o":"m 363 -12 b 685 353 555 -12 685 129 b 363 717 685 577 555 717 b 42 353 172 717 42 577 b 363 -12 42 129 172 -12 z m 363 68 b 134 353 225 68 134 174 b 363 637 134 532 225 637 b 594 353 502 637 594 532 b 363 68 594 174 502 68 z m 363 -237 b 433 -168 401 -237 433 -205 b 363 -98 433 -130 401 -98 b 294 -168 326 -98 294 -130 b 363 -237 294 -205 326 -237 z "},"ȍ":{"ha":727,"x_min":0,"x_max":0,"o":"m 363 -12 b 685 353 555 -12 685 129 b 363 717 685 577 555 717 b 42 353 172 717 42 577 b 363 -12 42 129 172 -12 z m 363 68 b 134 353 225 68 134 174 b 363 637 134 532 225 637 b 594 353 502 637 594 532 b 363 68 594 174 502 68 z m 304 812 l 162 1017 l 64 1017 l 229 812 z m 497 812 l 355 1017 l 258 1017 l 422 812 z "},"ṍ":{"ha":727,"x_min":0,"x_max":0,"o":"m 363 -12 b 685 353 555 -12 685 129 b 363 717 685 577 555 717 b 42 353 172 717 42 577 b 363 -12 42 129 172 -12 z m 363 68 b 134 353 225 68 134 174 b 363 637 134 532 225 637 b 594 353 502 637 594 532 b 363 68 594 174 502 68 z m 314 1023 l 389 1023 l 524 1209 l 437 1209 z m 456 788 b 573 949 527 788 573 850 l 509 949 b 456 849 509 885 491 849 b 276 956 399 849 370 956 b 158 795 203 956 158 896 l 222 795 b 275 895 220 858 239 895 b 456 788 335 895 366 788 z "},"ṓ":{"ha":727,"x_min":0,"x_max":0,"o":"m 363 -12 b 685 353 555 -12 685 129 b 363 717 685 577 555 717 b 42 353 172 717 42 577 b 363 -12 42 129 172 -12 z m 363 68 b 134 353 225 68 134 174 b 363 637 134 532 225 637 b 594 353 502 637 594 532 b 363 68 594 174 502 68 z m 311 1006 l 387 1006 l 550 1209 l 463 1209 z m 545 897 l 180 897 l 180 834 l 545 834 z "},"ỗ":{"ha":727,"x_min":0,"x_max":0,"o":"m 363 -12 b 685 353 555 -12 685 129 b 363 717 685 577 555 717 b 42 353 172 717 42 577 b 363 -12 42 129 172 -12 z m 363 68 b 134 353 225 68 134 174 b 363 637 134 532 225 637 b 594 353 502 637 594 532 b 363 68 594 174 502 68 z m 399 1005 l 328 1005 l 145 812 l 232 812 l 362 950 l 365 950 l 495 812 l 582 812 z m 450 1053 b 566 1200 519 1053 566 1112 l 503 1200 b 450 1112 503 1145 484 1112 b 278 1213 391 1112 365 1213 b 161 1065 206 1213 161 1156 l 224 1065 b 278 1154 222 1119 243 1154 b 450 1053 336 1154 362 1053 z "},"ȱ":{"ha":727,"x_min":0,"x_max":0,"o":"m 363 -12 b 685 353 555 -12 685 129 b 363 717 685 577 555 717 b 42 353 172 717 42 577 b 363 -12 42 129 172 -12 z m 363 68 b 134 353 225 68 134 174 b 363 637 134 532 225 637 b 594 353 502 637 594 532 b 363 68 594 174 502 68 z m 363 804 b 433 873 401 804 433 835 b 363 943 433 911 401 943 b 294 873 326 943 294 911 b 363 804 294 835 326 804 z m 545 1099 l 180 1099 l 180 1036 l 545 1036 z "},"ṑ":{"ha":727,"x_min":0,"x_max":0,"o":"m 363 -12 b 685 353 555 -12 685 129 b 363 717 685 577 555 717 b 42 353 172 717 42 577 b 363 -12 42 129 172 -12 z m 363 68 b 134 353 225 68 134 174 b 363 637 134 532 225 637 b 594 353 502 637 594 532 b 363 68 594 174 502 68 z m 416 1006 l 264 1209 l 177 1209 l 340 1006 z m 545 897 l 180 897 l 180 834 l 545 834 z "},"ǒ":{"ha":727,"x_min":0,"x_max":0,"o":"m 363 -12 b 685 353 555 -12 685 129 b 363 717 685 577 555 717 b 42 353 172 717 42 577 b 363 -12 42 129 172 -12 z m 363 68 b 134 353 225 68 134 174 b 363 637 134 532 225 637 b 594 353 502 637 594 532 b 363 68 594 174 502 68 z m 399 812 l 581 1017 l 495 1017 l 365 869 l 361 869 l 231 1017 l 145 1017 l 328 812 z "}}}
